<svg width="167" height="185" viewBox="0 0 167 185" fill="none" xmlns="http://www.w3.org/2000/svg">
<g id="Frame 42064">
<g id="Ameriways">
<path id="Vector" fill-rule="evenodd" clip-rule="evenodd" d="M35.4986 0.122616C36.0203 4.90643 35.7967 10.0182 35.7967 15.116V45.5244C35.7967 50.5987 35.6151 55.2841 34.3995 59.426C32.2967 66.6561 28.1102 73.0967 22.3692 77.9334C16.1695 83.0912 8.43265 86.0139 0.39066 86.236C-0.191523 84.5399 0.0925825 81.41 0.39066 79.6342C8.2804 78.5097 14.6844 75.914 19.286 71.4347C22.9509 68.1151 25.7796 63.967 27.539 59.3323C29.4998 54.1783 29.2297 47.7827 29.2297 40.6234V4.92518C29.2297 3.33682 29.0015 1.64538 29.5277 0.127306C31.5145 -0.0408532 33.5116 -0.042425 35.4986 0.122616Z" fill="#FFBF3F"/>
<path id="Vector_2" fill-rule="evenodd" clip-rule="evenodd" d="M41.1668 0.122629C43.1276 0.188225 45.3352 -0.00387689 47.1283 0.225709C47.664 11.4707 47.3053 23.5404 47.4264 35.535C47.4963 41.9306 47.5335 47.9233 47.0305 53.4427C45.5355 69.8651 37.7156 80.8946 27.4412 88.6537C20.455 93.9154 11.8248 97.6356 0.395356 97.8558C-0.14491 96.2206 0.0320738 92.9502 0.297549 91.1557C10.2692 90.1155 18.0751 87.2059 24.2602 82.2534C30.3382 77.3805 35.2472 71.4066 38.2792 63.3477C39.8534 59.1636 40.4169 54.5532 40.6684 49.2446C40.9199 43.936 40.4449 38.3463 40.566 32.8456C40.7663 23.9433 40.6684 13.9727 40.6684 4.43322C40.6684 2.99948 40.5241 1.12062 40.8641 0.436551C40.8894 0.36555 40.9295 0.300818 40.9817 0.246678C41.0339 0.192538 41.097 0.15024 41.1668 0.122629Z" fill="#FFBF3F"/>
<path id="Vector_3" fill-rule="evenodd" clip-rule="evenodd" d="M52.8989 0.122629C54.7619 0.188225 56.8671 -0.00387689 58.5671 0.225709C58.8791 14.0758 58.8651 27.9775 58.8651 41.7385C58.8651 48.7667 58.7627 55.4434 57.4679 61.3424C53.7419 78.3364 44.6459 90.9917 32.108 99.2568C23.7246 104.776 13.5899 109.415 0.390688 109.26C-0.130948 107.747 0.00877655 104.626 0.292882 102.958C2.62161 102.377 4.79199 102.541 7.05086 102.255C8.29906 102.096 9.68233 101.731 10.9305 101.454C19.314 99.5801 26.561 95.1758 32.3083 90.6778C37.8243 86.3861 42.4082 81.0034 45.7772 74.8614C49.1463 68.7194 51.2292 61.9483 51.8976 54.9655C52.4099 49.343 52.2935 43.3503 52.2935 36.861C52.2935 26.6515 51.9814 15.3643 52.2935 4.53162C52.34 3.03228 52.1258 1.15342 52.5915 0.314733C52.6773 0.226996 52.7827 0.161134 52.8989 0.122629Z" fill="#FFBF3F"/>
<path id="Vector_4" fill-rule="evenodd" clip-rule="evenodd" d="M69.8008 0.324082C70.1967 15.9031 70.0989 31.4353 70.0989 47.0424C70.0989 55.1107 69.4562 62.3403 67.6118 68.6469C64.9291 77.8444 60.8958 85.9829 55.6794 92.7534C53.9375 95.0118 52.0326 97.0452 50.1137 99.1584C46.2853 103.375 41.8095 106.73 36.8865 109.963C31.8103 113.279 26.2836 115.839 20.4783 117.563C14.391 119.385 7.66561 121.311 0.195041 120.763C0.129837 118.828 -0.18687 115.778 0.395312 114.161C3.94896 113.693 7.27904 113.589 10.4368 113.06C19.6772 111.518 27.4831 107.686 34.1899 103.46C43.2766 97.7434 50.3047 89.914 55.6654 80.3511C58.4738 75.2721 60.5486 69.8166 61.8272 64.1489C64.6217 52.0418 63.4248 35.9567 63.5226 21.5116C63.5598 16.0202 63.448 10.6648 63.6204 5.20628C63.6716 3.54764 63.313 1.79999 63.9185 0.202256C65.6557 0.113233 68.2406 -0.0554372 69.8008 0.324082Z" fill="#FFBF3F"/>
<path id="Vector_5" fill-rule="evenodd" clip-rule="evenodd" d="M80.7412 0.525561C80.9415 8.56574 80.9415 16.8496 80.9415 24.8288C80.9415 32.9862 81.2023 41.3168 80.9415 49.7365C80.7801 57.2353 79.7453 64.6892 77.8582 71.9454C75.5854 80.2902 71.92 87.9368 67.9145 94.5526C61.8226 104.608 52.9548 112.563 43.2579 119.062C37.7295 122.764 31.2184 125.786 24.2648 128.161C20.5965 129.389 16.8391 130.329 13.0263 130.972C8.86253 131.739 4.63173 132.075 0.399962 131.975C-0.168249 130.279 -0.0657843 127.65 0.302155 125.973C2.11857 125.228 4.09333 125.415 5.86782 125.27C17.5556 124.302 28.8423 120.53 38.7821 114.269C52.9222 105.395 63.3921 93.2266 69.9871 76.3544C70.6066 74.7707 70.872 73.2246 71.3844 71.4535C73.515 64.3102 74.5869 56.8899 74.5654 49.432C74.5654 37.9808 74.5654 25.0116 74.5654 12.4172C74.5654 10.4727 74.4862 8.30804 74.5654 6.11527C74.6166 4.48942 74.3465 1.1581 74.9613 0.413115C75.0416 0.321139 75.1443 0.251715 75.2594 0.211638C77.0339 0.384999 79.4744 -0.121027 80.7412 0.525561Z" fill="#FFBF3F"/>
<path id="Vector_6" fill-rule="evenodd" clip-rule="evenodd" d="M92.1752 0.422491C92.5339 16.7418 92.3755 34.3215 92.3755 50.341C92.364 57.7011 93.4633 65.0204 95.6357 72.0485C97.4668 78.1155 100.11 83.9036 103.493 89.2534C106.818 94.4308 110.167 99.5004 114.429 103.46C118.768 107.539 123.461 111.221 128.452 114.461C133.767 117.827 139.478 120.515 145.452 122.464C151.772 124.591 158.851 125.664 166.634 126.264C166.909 127.875 167.077 131.019 166.532 132.467C160.291 132.743 154.329 131.497 149.034 130.167C147.212 129.698 145.308 129.431 143.663 128.869C140.324 127.73 137.143 126.31 134.116 124.966C131.154 123.585 128.302 121.98 125.583 120.163C120.078 116.649 115.104 112.924 110.572 108.361C106.041 103.797 101.942 99.1209 98.6351 93.4562C96.9678 90.5934 95.4029 87.7869 93.9777 84.6523C89.8325 75.6423 86.4652 65.0626 86.0227 52.2386C85.8784 48.0545 86.1205 43.5565 86.1205 39.0351C86.1205 30.5544 85.9296 21.8489 86.0227 12.8295C86.0553 9.63872 86.0227 6.60725 86.1205 3.22438C86.1531 2.28729 85.8085 1.11594 86.5211 0.324102C88.1698 0.211652 90.6522 0.0476577 92.1752 0.422491Z" fill="#FFBF3F"/>
<path id="Vector_7" fill-rule="evenodd" clip-rule="evenodd" d="M103.409 0.422475C103.791 3.84283 103.707 7.3569 103.712 10.9272C103.712 21.3944 103.712 32.9487 103.712 43.936C103.712 47.8296 103.609 51.4655 103.907 54.942C104.645 63.9504 107.327 72.6885 111.764 80.5479C114.316 85.2757 117.42 89.68 121.01 93.6671C129.766 103.249 141.605 110.558 156.905 113.571C160.025 114.185 163.281 114.124 166.751 114.77C167.074 116.926 167.074 119.118 166.751 121.274C159.378 121.653 152.536 119.905 146.467 117.872C140.399 115.838 134.856 113.482 130.166 110.169C125.476 106.857 120.851 103.446 116.944 99.2661C112.966 95.1156 109.524 90.4781 106.697 85.4629C102.505 77.7788 98.7515 69.1248 97.5453 58.353C97.1401 54.7125 97.2099 50.9735 97.2472 47.0518C97.3916 33.1642 97.2472 19.2204 97.2472 6.03562C97.2472 4.16145 97.0096 2.17483 97.5453 0.333458C99.2685 0.211637 101.83 0.042956 103.409 0.422475Z" fill="#FFBF3F"/>
<path id="Vector_8" fill-rule="evenodd" clip-rule="evenodd" d="M114.745 0.525555C115.109 12.8857 114.941 26.4406 114.946 39.1381C114.946 45.8523 114.755 52.2292 115.64 57.8423C118.215 74.1429 127.106 85.4629 137.995 93.5546C144.274 98.2072 152.755 101.721 162.456 102.958C163.854 103.132 165.325 102.935 166.732 103.455C166.946 105.517 166.946 107.596 166.732 109.658C165.2 110.127 163.546 109.799 162.074 109.658C154.967 108.95 148.054 106.914 141.689 103.656C139.458 102.449 137.3 101.111 135.224 99.6503C126.807 94.0373 119.988 86.3152 115.439 77.2447C111.886 70.2821 109.031 62.3169 108.583 52.337C108.439 49.1134 108.583 45.7258 108.481 42.3336C108.108 30.2827 108.481 17.5805 108.481 5.31875C108.481 3.70228 108.253 1.98272 108.779 0.417793C110.33 0.136667 113.353 0.000787988 114.745 0.525555Z" fill="#FFBF3F"/>
<path id="Vector_9" fill-rule="evenodd" clip-rule="evenodd" d="M126.38 0.422478C126.906 2.55903 126.678 4.80803 126.678 7.02424C126.678 18.1849 126.678 29.9032 126.678 41.2278C126.678 45.8102 126.45 50.3738 126.776 54.7312C127.19 60.1897 129.384 65.1516 131.55 69.2326C133.709 73.3172 136.578 76.9797 140.021 80.0465C145.25 84.9904 151.652 88.5038 158.614 90.2514C161.18 90.8933 163.914 91.0011 166.769 91.657C167.033 93.885 166.999 96.1384 166.667 98.3572C155.466 98.2447 146.938 94.1965 139.919 89.155C133.361 84.4696 127.195 77.2447 124.009 68.8531C122.36 64.4956 120.809 59.9508 120.232 54.4454C119.654 48.94 119.934 43.1442 119.934 36.6408V4.82677C119.934 3.36492 119.752 1.0269 120.232 0.525558C120.312 0.433582 120.415 0.364165 120.53 0.324088C122.444 0.384999 124.619 0.197578 126.38 0.422478Z" fill="#FFBF3F"/>
<path id="Vector_10" fill-rule="evenodd" clip-rule="evenodd" d="M137.814 0.623953C138.247 8.547 137.939 16.6575 138.112 24.8288C138.284 33.0002 138.014 41.4106 138.014 49.5398C138.014 58.9949 141.828 65.5826 146.761 70.5445C150.459 74.2647 154.678 77.329 160.584 78.9501C162.508 79.4749 164.608 79.4796 166.751 80.1496C167.025 81.9254 167.174 85.1349 166.648 86.7514C157.175 86.4796 150.431 82.5954 144.758 78.1489C138.769 72.742 133.799 65.8075 132.029 56.2446C131.438 53.0304 131.535 49.4179 131.535 45.44C131.535 32.5832 131.172 18.4707 131.535 6.12932C131.582 4.38165 131.289 1.22837 131.829 0.623953C131.912 0.535891 132.014 0.468505 132.127 0.427167C133.967 0.539617 136.295 0.178838 137.814 0.623953Z" fill="#FFBF3F"/>
</g>
<g id="Group 122">
<g id="Group 121">
<path id="Vector_11" d="M33.8416 165.823C34.0837 167.697 34.9128 168.596 36.3193 168.596H37.1949V174.603H36.2355C35.4255 174.593 34.6215 174.461 33.8509 174.209V176.59C33.8509 179.857 32.1664 182.414 28.7975 184.26C27.7535 184.725 26.6278 184.977 25.4861 185H18.3602C17.2184 184.977 16.0928 184.725 15.0487 184.26C11.6798 182.414 9.9969 179.857 10 176.59V167.739L15.9709 161.826V176.22C16.2131 178.07 17.0421 178.993 18.4486 178.993H25.3883C26.7855 178.993 27.6238 178.056 27.866 176.22V161.479L33.8416 155.557V165.823ZM26.2592 160.926H17.233L23.1154 154.915H26.2592V160.926Z" fill="#444A5D"/>
</g>
<path id="Vector_12" d="M50.0873 153.875H34.401L40.2694 147.868H50.078L50.0873 153.875ZM50.3202 165.823C50.5624 167.697 51.3914 168.596 52.798 168.596H53.6736V174.603H52.7048C51.5649 174.577 50.4412 174.326 49.398 173.863C48.6671 173.459 47.9748 172.989 47.3301 172.457C46.6878 172.99 45.997 173.46 45.2669 173.863C44.2221 174.326 43.0968 174.577 41.9554 174.603H36.3665V168.596H41.8809C43.2781 168.596 44.1165 167.659 44.3587 165.823V161.479L50.3202 155.557V165.823Z" fill="#444A5D"/>
<path id="Vector_13" d="M58.3356 151.705L64.3065 145.788V166.193C64.3065 169.457 62.622 172.014 59.2531 173.863C58.21 174.326 57.0863 174.577 55.9463 174.603H53.1519V168.596H55.8625C57.2597 168.596 58.0981 167.659 58.3449 165.823L58.3356 151.705Z" fill="#444A5D"/>
<path id="Vector_14" d="M61.9406 140.915C62.1688 140.713 62.4063 140.521 62.6764 140.334C64.086 139.083 65.8969 138.386 67.7764 138.371H78.591L75.3773 144.101H68.6799C67.566 144.081 66.4876 144.496 65.6712 145.258L61.9406 140.915ZM73.3374 174.603H67.3618V151.705L73.3374 145.788V174.603Z" fill="#444A5D"/>
<path id="Vector_15" d="M92.1907 155.557C93.3307 155.582 94.4543 155.834 95.4975 156.297C98.8664 158.146 100.551 160.703 100.551 163.967V166.188C100.551 169.452 98.8664 172.009 95.4975 173.858C94.4543 174.321 93.3307 174.573 92.1907 174.598H89.5965C88.4565 174.573 87.3327 174.322 86.2897 173.858C82.9332 172.015 81.255 169.46 81.255 166.193V163.991C81.255 160.73 82.9395 158.173 86.3084 156.321C87.3514 155.857 88.4752 155.605 89.6152 155.58L92.1907 155.557ZM89.685 161.568C88.2878 161.568 87.4494 162.505 87.2072 164.337V165.818C87.4494 167.692 88.2785 168.592 89.685 168.592H92.0976C93.4948 168.592 94.3332 167.655 94.58 165.818V164.337C94.3332 162.491 93.5088 161.568 92.0976 161.568H89.685Z" fill="#444A5D"/>
<path id="Vector_16" d="M116.056 174.603H112.218C108.864 174.603 106.208 172.862 104.249 169.379C103.702 168.232 103.412 166.978 103.401 165.705V164.459C103.401 161.07 105.123 158.398 108.566 156.442C109.703 155.877 110.95 155.576 112.218 155.562H113.182C116.554 155.562 119.212 157.303 121.156 160.786C121.716 161.929 122.014 163.184 122.026 164.459V176.59C122.026 179.857 120.342 182.414 116.973 184.26C115.931 184.725 114.806 184.977 113.666 185H107.649L113.438 178.984H113.573C114.97 178.984 115.809 178.047 116.056 176.21V174.603ZM109.163 165.035V165.129C109.163 167.197 110.22 168.421 112.334 168.803H116.261V165.054C116.261 162.993 115.205 161.768 113.093 161.381H112.628C111.945 161.357 111.272 161.549 110.703 161.931C110.135 162.313 109.7 162.864 109.461 163.508C109.256 163.991 109.155 164.511 109.163 165.035Z" fill="#444A5D"/>
<path id="Vector_17" d="M132.25 165.823C132.492 167.697 133.321 168.596 134.727 168.596H135.603V174.603H134.639C133.827 174.594 133.022 174.461 132.25 174.209V176.59C132.25 179.857 130.565 182.414 127.196 184.26C126.154 184.725 125.03 184.977 123.889 185H117.583L123.428 178.984H123.796C125.203 178.984 126.03 178.059 126.279 176.21V161.479L132.25 155.557V165.823Z" fill="#444A5D"/>
<path id="Vector_18" d="M134.774 174.603V168.596H149.338C150.945 168.624 151.774 167.701 151.816 165.823V164.342C151.816 162.496 151.005 161.573 149.338 161.573H136.795V157.019L147.913 146.711L152.277 151.101L147.661 155.557H149.431C150.571 155.583 151.695 155.834 152.738 156.297C156.104 158.146 157.788 160.703 157.791 163.967V166.188C157.791 169.452 156.107 172.009 152.738 173.858C151.695 174.321 150.571 174.573 149.431 174.598L134.774 174.603ZM138.472 153.645L135.924 151.082L143.344 144.171L145.915 146.758L138.472 153.645Z" fill="#444A5D"/>
</g>
</g>
</svg>
