<svg width="65" height="72" viewBox="0 0 65 72" fill="none" xmlns="http://www.w3.org/2000/svg">
<g id="Frame 42064">
<g id="Ameriways">
<path id="Vector" fill-rule="evenodd" clip-rule="evenodd" d="M13.8168 0.047721C14.0199 1.90953 13.9328 3.89899 13.9328 5.88297V17.7176C13.9328 19.6925 13.8622 21.516 13.389 23.128C12.5706 25.9418 10.9411 28.4484 8.70659 30.3308C6.29354 32.3382 3.28217 33.4757 0.152056 33.5621C-0.0745419 32.902 0.036038 31.6839 0.152056 30.9928C3.22291 30.5551 5.7155 29.5449 7.50653 27.8016C8.933 26.5096 10.034 24.8953 10.7188 23.0915C11.482 21.0856 11.3768 18.5965 11.3768 15.8102V1.91683C11.3768 1.29866 11.288 0.640365 11.4928 0.0495463C12.2661 -0.0158996 13.0435 -0.0165113 13.8168 0.047721Z" fill="#FFBF3F"/>
<path id="Vector_2" fill-rule="evenodd" clip-rule="evenodd" d="M16.023 0.0477185C16.7862 0.0732477 17.6454 -0.00151618 18.3434 0.0878361C18.5518 4.46427 18.4123 9.16165 18.4594 13.8298C18.4866 16.3189 18.5011 18.6512 18.3053 20.7993C17.7234 27.1907 14.6797 31.4833 10.6807 34.503C7.96155 36.5508 4.60246 37.9987 0.153887 38.0844C-0.0563963 37.448 0.0124897 36.1752 0.115818 35.4768C3.99699 35.072 7.03522 33.9396 9.4426 32.0121C11.8083 30.1157 13.719 27.7907 14.8991 24.6542C15.5118 23.0258 15.7311 21.2315 15.829 19.1655C15.9269 17.0994 15.742 14.924 15.7892 12.7832C15.8671 9.31847 15.829 5.43803 15.829 1.72535C15.829 1.16736 15.7728 0.436127 15.9052 0.169894C15.915 0.142261 15.9306 0.117068 15.951 0.095997C15.9713 0.0749262 15.9958 0.0584644 16.023 0.0477185Z" fill="#FFBF3F"/>
<path id="Vector_3" fill-rule="evenodd" clip-rule="evenodd" d="M20.5894 0.0477185C21.3146 0.0732477 22.1339 -0.00151618 22.7956 0.0878361C22.9171 5.47815 22.9116 10.8885 22.9116 16.2442C22.9116 18.9795 22.8717 21.578 22.3678 23.8738C20.9176 30.4877 17.3772 35.413 12.4972 38.6297C9.23415 40.7778 5.28953 42.583 0.152099 42.5229C-0.0509333 41.9339 0.00345038 40.7194 0.11403 40.0702C1.02042 39.8441 1.86518 39.9079 2.74438 39.7967C3.23021 39.7347 3.76861 39.5925 4.25443 39.4849C7.51745 38.7555 10.3381 37.0414 12.5751 35.2908C14.7221 33.6205 16.5062 31.5256 17.8175 29.1352C19.1288 26.7448 19.9395 24.1096 20.1997 21.392C20.3991 19.2037 20.3538 16.8715 20.3538 14.3459C20.3538 10.3725 20.2323 5.97962 20.3538 1.76365C20.3719 1.18012 20.2885 0.448893 20.4698 0.122483C20.5032 0.088337 20.5442 0.0627043 20.5894 0.0477185Z" fill="#FFBF3F"/>
<path id="Vector_4" fill-rule="evenodd" clip-rule="evenodd" d="M27.168 0.12613C27.3221 6.18932 27.284 12.2343 27.284 18.3084C27.284 21.4485 27.0338 24.2622 26.316 26.7166C25.2718 30.2962 23.7019 33.4636 21.6716 36.0986C20.9936 36.9775 20.2522 37.769 19.5053 38.5914C18.0152 40.2325 16.2731 41.5382 14.357 42.7964C12.3812 44.0871 10.2301 45.0834 7.97058 45.7541C5.60127 46.4635 2.9836 47.2129 0.0758975 46.9996C0.0505185 46.2465 -0.0727508 45.0594 0.153847 44.4303C1.537 44.2479 2.83314 44.2078 4.06221 44.0017C7.65878 43.4018 10.697 41.9102 13.3074 40.2653C16.8442 38.0407 19.5797 34.9936 21.6662 31.2718C22.7593 29.2951 23.5668 27.1719 24.0645 24.9661C25.1522 20.2541 24.6863 13.994 24.7243 8.37207C24.7388 6.23491 24.6953 4.15063 24.7624 2.02623C24.7823 1.38071 24.6428 0.700536 24.8784 0.078717C25.5546 0.0440702 26.5607 -0.0215746 27.168 0.12613Z" fill="#FFBF3F"/>
<path id="Vector_5" fill-rule="evenodd" clip-rule="evenodd" d="M31.4262 0.204545C31.5042 3.3337 31.5042 6.55767 31.5042 9.66312C31.5042 12.8379 31.6057 16.0801 31.5042 19.3569C31.4414 22.2754 31.0386 25.1763 30.3041 28.0004C29.4195 31.2481 27.9928 34.224 26.4338 36.7989C24.0627 40.7121 20.6111 43.8084 16.8369 46.3377C14.6851 47.7782 12.1509 48.9544 9.44438 49.8789C8.0166 50.3568 6.55413 50.7226 5.07013 50.973C3.44949 51.2713 1.80277 51.402 0.155674 51.3633C-0.0654861 50.7032 -0.0256047 49.6802 0.117605 49.0273C0.824592 48.7374 1.59321 48.8103 2.28388 48.7538C6.833 48.377 11.2261 46.9088 15.0948 44.4722C20.5985 41.0185 24.6736 36.2828 27.2405 29.7163C27.4816 29.1 27.5849 28.4982 27.7843 27.8089C28.6136 25.0288 29.0308 22.1409 29.0225 19.2384C29.0225 14.7817 29.0225 9.73424 29.0225 4.83263C29.0225 4.07587 28.9916 3.2334 29.0225 2.38C29.0424 1.74724 28.9373 0.450721 29.1765 0.160782C29.2078 0.124986 29.2478 0.0979667 29.2926 0.0823694C29.9832 0.149839 30.9331 -0.0471005 31.4262 0.204545Z" fill="#FFBF3F"/>
<path id="Vector_6" fill-rule="evenodd" clip-rule="evenodd" d="M35.8766 0.16443C36.0161 6.51574 35.9545 13.3576 35.9545 19.5922C35.95 22.4567 36.3779 25.3052 37.2235 28.0405C37.9362 30.4017 38.965 32.6544 40.2816 34.7365C41.576 36.7514 42.8793 38.7245 44.538 40.2654C46.2271 41.8532 48.0538 43.2861 49.9963 44.547C52.0651 45.8569 54.2877 46.9031 56.613 47.6615C59.073 48.4894 61.8284 48.907 64.8575 49.1404C64.9645 49.7677 65.0298 50.9913 64.8177 51.5547C62.3885 51.6623 60.0682 51.1773 58.007 50.6594C57.2982 50.477 56.5568 50.3731 55.9169 50.1543C54.6171 49.7112 53.379 49.1586 52.2007 48.6353C51.048 48.0981 49.9378 47.4733 48.8797 46.7662C46.7369 45.3986 44.8009 43.9489 43.0371 42.1728C41.2732 40.3967 39.678 38.5768 38.3909 36.3722C37.7419 35.258 37.1328 34.1657 36.5781 32.9458C34.9647 29.4392 33.6541 25.3217 33.4819 20.3307C33.4257 18.7023 33.5199 16.9517 33.5199 15.192C33.5199 11.8915 33.4456 8.50337 33.4819 4.9931C33.4946 3.75129 33.4819 2.57147 33.5199 1.25489C33.5326 0.890191 33.3985 0.434312 33.6758 0.126138C34.3176 0.0823731 35.2838 0.0185485 35.8766 0.16443Z" fill="#FFBF3F"/>
<path id="Vector_7" fill-rule="evenodd" clip-rule="evenodd" d="M40.2491 0.164425C40.3977 1.49559 40.3651 2.86323 40.3669 4.25275C40.3669 8.32648 40.3669 12.8233 40.3669 17.0994C40.3669 18.6148 40.327 20.0298 40.443 21.3829C40.7303 24.8888 41.7739 28.2896 43.5012 31.3484C44.4942 33.1884 45.7023 34.9025 47.0996 36.4542C50.5076 40.1833 55.1157 43.028 61.0707 44.2005C62.2853 44.4394 63.5524 44.4157 64.9029 44.6673C65.0289 45.5062 65.0289 46.3594 64.9029 47.1984C62.0333 47.3461 59.3703 46.6659 57.0083 45.8745C54.6462 45.0831 52.489 44.1659 50.6635 42.8766C48.838 41.5874 47.0379 40.2599 45.517 38.6333C43.9689 37.018 42.629 35.2131 41.5289 33.2612C39.8974 30.2707 38.4363 26.9026 37.9668 22.7104C37.8091 21.2935 37.8362 19.8383 37.8508 18.3121C37.9069 12.9072 37.8508 7.48037 37.8508 2.349C37.8508 1.61959 37.7583 0.846423 37.9668 0.129781C38.6375 0.0823696 39.6345 0.0167207 40.2491 0.164425Z" fill="#FFBF3F"/>
<path id="Vector_8" fill-rule="evenodd" clip-rule="evenodd" d="M44.6613 0.20454C44.8027 5.01497 44.7375 10.2904 44.7393 15.2321C44.7393 17.8452 44.665 20.327 45.0094 22.5116C46.0119 28.8556 49.4725 33.2612 53.7108 36.4104C56.1544 38.2212 59.4555 39.5888 63.2315 40.0702C63.7754 40.1377 64.3482 40.0611 64.8957 40.2635C64.979 41.0661 64.979 41.8753 64.8957 42.6779C64.2992 42.8602 63.6557 42.7326 63.0829 42.6779C60.3167 42.4021 57.6258 41.6099 55.1483 40.3419C54.2801 39.8719 53.44 39.3513 52.6322 38.7828C49.3559 36.5983 46.7018 33.5929 44.9314 30.0628C43.5483 27.353 42.4371 24.2531 42.263 20.369C42.2068 19.1144 42.263 17.796 42.2231 16.4758C42.0781 11.7857 42.2231 6.84214 42.2231 2.07C42.2231 1.44089 42.1343 0.771655 42.3392 0.1626C42.9428 0.0531894 44.1193 0.000306673 44.6613 0.20454Z" fill="#FFBF3F"/>
<path id="Vector_9" fill-rule="evenodd" clip-rule="evenodd" d="M49.1897 0.16443C49.3946 0.995953 49.3058 1.87124 49.3058 2.73376C49.3058 7.07738 49.3058 11.638 49.3058 16.0454C49.3058 17.8288 49.2169 19.6049 49.3438 21.3008C49.5052 23.4252 50.359 25.3563 51.2019 26.9446C52.0425 28.5343 53.1593 29.9597 54.4994 31.1532C56.5346 33.0774 59.0261 34.4447 61.736 35.1249C62.7349 35.3747 63.799 35.4166 64.9102 35.6719C65.0129 36.539 64.9995 37.416 64.8703 38.2796C60.5106 38.2358 57.1914 36.6603 54.4595 34.6982C51.9071 32.8746 49.507 30.0628 48.267 26.7969C47.6253 25.101 47.0217 23.3322 46.7969 21.1896C46.5721 19.0469 46.6808 16.7912 46.6808 14.2602V1.87853C46.6808 1.3096 46.6102 0.399663 46.7969 0.204547C46.8281 0.168751 46.8681 0.141735 46.9129 0.126137C47.6579 0.149843 48.5045 0.076901 49.1897 0.16443Z" fill="#FFBF3F"/>
<path id="Vector_10" fill-rule="evenodd" clip-rule="evenodd" d="M53.64 0.242843C53.8086 3.32641 53.689 6.48291 53.756 9.66312C53.8231 12.8433 53.718 16.1165 53.718 19.2803C53.718 22.9602 55.2026 25.5241 57.1224 27.4552C58.5617 28.903 60.2041 30.0956 62.5027 30.7265C63.2514 30.9308 64.069 30.9326 64.9029 31.1934C65.0098 31.8845 65.0678 33.1336 64.863 33.7627C61.1758 33.6569 58.5509 32.1452 56.3429 30.4147C54.0116 28.3104 52.0774 25.6116 51.3885 21.8898C51.1583 20.6389 51.1964 19.2329 51.1964 17.6848C51.1964 12.681 51.055 7.18861 51.1964 2.38547C51.2145 1.7053 51.1003 0.478076 51.3106 0.242843C51.3428 0.20857 51.3825 0.182344 51.4266 0.166256C52.1427 0.21002 53.0491 0.0696089 53.64 0.242843Z" fill="#FFBF3F"/>
</g>
<g id="Group 122">
<g id="Group 121">
<path id="Vector_11" d="M13.1719 64.5364C13.2661 65.2658 13.5888 65.6159 14.1363 65.6159H14.4771V67.9536H14.1036C13.7883 67.9499 13.4754 67.8982 13.1755 67.8004V68.7268C13.1755 69.9984 12.5199 70.9934 11.2086 71.7119C10.8022 71.893 10.3641 71.9909 9.91972 72H7.14616C6.70179 71.9909 6.26365 71.893 5.85727 71.7119C4.54603 70.9934 3.89101 69.9984 3.89221 68.7268V65.2822L6.2162 62.9809V68.5827C6.31047 69.303 6.63314 69.6623 7.18061 69.6623H9.88166C10.4255 69.6623 10.7518 69.2976 10.8461 68.5827V62.846L13.1719 60.541V64.5364ZM10.2206 62.6308H6.70747L8.99702 60.2912H10.2206V62.6308Z" fill="#444A5D"/>
</g>
<path id="Vector_12" d="M19.4951 59.8864H13.3896L15.6738 57.5486H19.4915L19.4951 59.8864ZM19.5857 64.5363C19.68 65.2658 20.0027 65.6159 20.5501 65.6159H20.891V67.9536H20.5139C20.0702 67.9436 19.6328 67.8457 19.2268 67.6655C18.9423 67.5085 18.6729 67.3254 18.4219 67.1185C18.1719 67.3258 17.9031 67.5089 17.6189 67.6655C17.2122 67.8457 16.7743 67.9436 16.33 67.9536H14.1546V65.6159H16.301C16.8448 65.6159 17.1711 65.2512 17.2654 64.5363V62.846L19.5857 60.541V64.5363Z" fill="#444A5D"/>
<path id="Vector_13" d="M22.7055 59.0421L25.0295 56.739V64.6804C25.0295 65.9508 24.3739 66.9458 23.0626 67.6655C22.6566 67.8457 22.2192 67.9436 21.7755 67.9536H20.6879V65.6159H21.7429C22.2867 65.6159 22.613 65.2512 22.7091 64.5363L22.7055 59.0421Z" fill="#444A5D"/>
<path id="Vector_14" d="M24.1086 54.8425C24.1975 54.7641 24.2899 54.6894 24.3951 54.6164C24.9437 54.1297 25.6485 53.8584 26.3801 53.8524H30.5893L29.3385 56.0825H26.7317C26.2982 56.0747 25.8785 56.2361 25.5607 56.5329L24.1086 54.8425ZM28.5445 67.9536H26.2187V59.0421L28.5445 56.739V67.9536Z" fill="#444A5D"/>
<path id="Vector_15" d="M35.8826 60.541C36.3263 60.551 36.7637 60.6489 37.1697 60.8291C38.481 61.5488 39.1366 62.5439 39.1366 63.8142V64.6786C39.1366 65.949 38.481 66.944 37.1697 67.6637C36.7637 67.8439 36.3263 67.9418 35.8826 67.9518H34.8729C34.4292 67.942 33.9918 67.8441 33.5858 67.6637C32.2794 66.9464 31.6262 65.952 31.6262 64.6804V63.8234C31.6262 62.5542 32.2818 61.5592 33.5931 60.8383C33.9991 60.6579 34.4365 60.5599 34.8802 60.5501L35.8826 60.541ZM34.9074 62.8806C34.3635 62.8806 34.0372 63.2453 33.943 63.9583V64.5345C34.0372 65.2639 34.3599 65.6141 34.9074 65.6141H35.8464C36.3902 65.6141 36.7165 65.2494 36.8126 64.5345V63.9583C36.7165 63.2398 36.3957 62.8806 35.8464 62.8806H34.9074Z" fill="#444A5D"/>
<path id="Vector_16" d="M45.1713 67.9536H43.6776C42.3724 67.9536 41.3385 67.2759 40.5759 65.9204C40.3628 65.474 40.2502 64.9859 40.246 64.4908V64.0057C40.246 62.6867 40.9161 61.6467 42.2564 60.8857C42.6986 60.6658 43.1843 60.5486 43.6776 60.5429H44.0528C45.3653 60.5429 46.3998 61.2206 47.1563 62.5761C47.3746 63.021 47.4904 63.5096 47.4953 64.0057V68.7268C47.4953 69.9984 46.8397 70.9934 45.5284 71.7119C45.1227 71.8929 44.6851 71.9909 44.2414 72H41.8992L44.1525 69.6586H44.2051C44.7489 69.6586 45.0752 69.2939 45.1713 68.5791V67.9536ZM42.4884 64.23V64.2665C42.4884 65.0713 42.8999 65.5478 43.7229 65.6961H45.2511V64.2373C45.2511 63.435 44.8402 62.9584 44.0184 62.8077H43.8371C43.5713 62.7983 43.3093 62.8732 43.0881 63.0217C42.8669 63.1703 42.6977 63.385 42.6044 63.6355C42.5248 63.8233 42.4853 64.0259 42.4884 64.23Z" fill="#444A5D"/>
<path id="Vector_17" d="M51.4743 64.5363C51.5686 65.2658 51.8913 65.6159 52.4387 65.6159H52.7795V67.9536H52.4043C52.0884 67.95 51.7749 67.8984 51.4743 67.8004V68.7268C51.4743 69.9984 50.8187 70.9934 49.5075 71.7119C49.1017 71.8929 48.6642 71.9909 48.2204 72H45.7659L48.0409 69.6586H48.1841C48.7316 69.6586 49.0537 69.2988 49.1503 68.5791V62.846L51.4743 60.541V64.5363Z" fill="#444A5D"/>
<path id="Vector_18" d="M52.457 67.9536V65.6159H58.1256C58.751 65.6268 59.0737 65.2676 59.09 64.5364V63.9601C59.09 63.2417 58.7746 62.8824 58.1256 62.8824H53.2438V61.11L57.5709 57.0982L59.2695 58.8069L57.473 60.541H58.1619C58.6055 60.551 59.0429 60.6489 59.4489 60.8292C60.759 61.5488 61.4146 62.5439 61.4158 63.8142V64.6786C61.4158 65.949 60.7602 66.944 59.4489 67.6637C59.0429 67.8439 58.6055 67.9418 58.1619 67.9518L52.457 67.9536ZM53.8964 59.797L52.9048 58.7996L55.7926 56.1099L56.7932 57.1165L53.8964 59.797Z" fill="#444A5D"/>
</g>
</g>
</svg>
