<svg width="113" height="125" viewBox="0 0 113 125" fill="none" xmlns="http://www.w3.org/2000/svg">
<g id="Frame 42065">
<g id="Ameriways">
<path id="Vector" fill-rule="evenodd" clip-rule="evenodd" d="M24.02 0.0828489C24.373 3.31516 24.2217 6.76908 24.2217 10.2135V30.7597C24.2217 34.1883 24.0988 37.3541 23.2762 40.1527C21.8534 45.0379 19.0206 49.3897 15.136 52.6577C10.941 56.1427 5.70589 58.1175 0.264305 58.2676C-0.129628 57.1215 0.0626113 55.0068 0.264305 53.8069C5.60287 53.0471 9.93613 51.2932 13.0498 48.2667C15.5296 46.0237 17.4436 43.221 18.6342 40.0894C19.9609 36.607 19.7781 32.2856 19.7781 27.4482V3.32782C19.7781 2.25461 19.6237 1.11175 19.9798 0.0860178C21.3241 -0.0276035 22.6755 -0.0286655 24.02 0.0828489Z" fill="white"/>
<path id="Vector_2" fill-rule="evenodd" clip-rule="evenodd" d="M27.8553 0.0828508C29.1821 0.127172 30.6759 -0.00262612 31.8892 0.152499C32.2516 7.75048 32.0089 15.9056 32.0909 24.0102C32.1381 28.3315 32.1633 32.3806 31.823 36.1099C30.8114 47.2062 25.5201 54.6585 18.568 59.9011C13.8408 63.4563 8.00112 65.97 0.267447 66.1188C-0.0981217 65.0139 0.0216339 62.8042 0.201267 61.5917C6.94854 60.8889 12.2304 58.9229 16.4155 55.5766C20.5282 52.2841 23.8498 48.2477 25.9014 42.8025C26.9666 39.9754 27.3479 36.8602 27.5181 33.2734C27.6883 29.6865 27.3668 25.9097 27.4488 22.193C27.5843 16.1779 27.5181 9.44103 27.5181 2.99541C27.5181 2.02667 27.4204 0.757171 27.6505 0.29496C27.6676 0.246987 27.6947 0.203249 27.7301 0.166668C27.7654 0.130086 27.8081 0.101507 27.8553 0.0828508Z" fill="white"/>
<path id="Vector_3" fill-rule="evenodd" clip-rule="evenodd" d="M35.7938 0.0828508C37.0544 0.127172 38.4789 -0.00262612 39.6291 0.152499C39.8403 9.51068 39.8308 18.9037 39.8308 28.2017C39.8308 32.9504 39.7615 37.4618 38.8854 41.4475C36.3642 52.93 30.2094 61.4809 21.7257 67.0654C16.0531 70.7947 9.19552 73.9289 0.26429 73.8244C-0.0886733 72.8019 0.00587064 70.6934 0.19811 69.5664C1.77384 69.1738 3.24242 69.2846 4.77087 69.0915C5.61546 68.9839 6.55145 68.7369 7.39604 68.5502C13.0687 67.2838 17.9723 64.308 21.8612 61.2688C25.5936 58.369 28.6953 54.732 30.9749 50.582C33.2546 46.432 34.664 41.8569 35.1162 37.1388C35.4629 33.3398 35.3841 29.2908 35.3841 24.9061C35.3841 18.0078 35.173 10.3813 35.3841 3.0619C35.4156 2.04883 35.2707 0.779333 35.5858 0.212651C35.6439 0.153369 35.7152 0.108868 35.7938 0.0828508Z" fill="white"/>
<path id="Vector_4" fill-rule="evenodd" clip-rule="evenodd" d="M47.2305 0.219004C47.4984 10.7454 47.4322 21.2401 47.4322 31.7854C47.4322 37.237 46.9973 42.1219 45.7493 46.3831C43.9341 52.5976 41.2049 58.0966 37.6753 62.6712C36.4966 64.1972 35.2077 65.5711 33.9093 66.9989C31.3188 69.8482 28.2902 72.1149 24.9591 74.2993C21.5243 76.5402 17.7847 78.2697 13.8566 79.4343C9.7376 80.6658 5.1869 81.9669 0.131958 81.5965C0.0878376 80.2891 -0.126461 78.2281 0.267471 77.1359C2.67203 76.8193 4.92532 76.7497 7.06201 76.3919C13.3145 75.3504 18.5963 72.7607 23.1344 69.9052C29.2829 66.0428 34.0385 60.7527 37.6658 54.2913C39.5661 50.8596 40.97 47.1734 41.8352 43.3439C43.7261 35.1634 42.9161 24.2951 42.9823 14.5349C43.0075 10.8245 42.9319 7.20598 43.0485 3.51779C43.0832 2.39709 42.8405 1.21624 43.2502 0.136689C44.4257 0.0765388 46.1747 -0.0374279 47.2305 0.219004Z" fill="white"/>
<path id="Vector_5" fill-rule="evenodd" clip-rule="evenodd" d="M54.6333 0.35517C54.7688 5.78773 54.7688 11.3849 54.7688 16.7763C54.7688 22.288 54.9453 27.9168 54.7688 33.6058C54.6596 38.6726 53.9594 43.709 52.6825 48.6118C51.1446 54.2502 48.6644 59.4168 45.9542 63.887C41.832 70.6808 35.8317 76.0564 29.2703 80.4474C25.5296 82.9484 21.1238 84.9904 16.4187 86.5954C13.9366 87.4251 11.3941 88.0601 8.81423 88.4949C5.9968 89.0127 3.13404 89.2397 0.270633 89.1724C-0.113845 88.0264 -0.0445127 86.2503 0.204452 85.117C1.43352 84.6136 2.76974 84.7402 3.97044 84.6421C11.8789 83.988 19.5161 81.439 26.2418 77.2088C35.8096 71.2127 42.8941 62.991 47.3566 51.5909C47.7757 50.5208 47.9553 49.4761 48.302 48.2794C49.7437 43.4529 50.469 38.4392 50.4544 33.4001C50.4544 25.6628 50.4544 16.8998 50.4544 8.39004C50.4544 7.07622 50.4009 5.6136 50.4544 4.132C50.4891 3.03346 50.3063 0.78256 50.7223 0.279194C50.7767 0.217048 50.8462 0.170139 50.924 0.143061C52.1247 0.260196 53.7761 -0.0817135 54.6333 0.35517Z" fill="white"/>
<path id="Vector_6" fill-rule="evenodd" clip-rule="evenodd" d="M62.3701 0.285426C62.6127 11.312 62.5056 23.1902 62.5056 34.0141C62.4978 38.9872 63.2416 43.9326 64.7116 48.6814C65.9506 52.7807 67.7392 56.6916 70.0281 60.3063C72.2782 63.8045 74.5441 67.23 77.4277 69.9051C80.3641 72.6618 83.5397 75.1494 86.9168 77.3385C90.5132 79.6126 94.3771 81.429 98.4196 82.7457C102.696 84.183 107.486 84.9079 112.752 85.3132C112.938 86.4022 113.052 88.5265 112.683 89.5047C108.46 89.6915 104.426 88.8494 100.843 87.9503C99.6108 87.6337 98.3219 87.4532 97.2094 87.0733C94.9498 86.3041 92.7974 85.3448 90.7489 84.4362C88.7451 83.5036 86.815 82.4188 84.9755 81.1913C81.2504 78.8169 77.8847 76.3001 74.8183 73.2165C71.7519 70.133 68.9787 66.9735 66.7411 63.1461C65.6129 61.2117 64.554 59.3154 63.5897 57.1975C60.7849 51.1096 58.5064 43.9612 58.207 35.2963C58.1093 32.4692 58.2732 29.43 58.2732 26.375C58.2732 20.6448 58.1439 14.7627 58.207 8.66854C58.229 6.51261 58.207 4.46432 58.2732 2.17859C58.2952 1.54543 58.062 0.753971 58.5442 0.218946C59.6598 0.142967 61.3395 0.0321599 62.3701 0.285426Z" fill="white"/>
<path id="Vector_7" fill-rule="evenodd" clip-rule="evenodd" d="M69.9714 0.285444C70.2298 2.5965 70.1731 4.97087 70.1762 7.38323C70.1762 14.4557 70.1762 22.2626 70.1762 29.6865C70.1762 32.3173 70.1069 34.7739 70.3086 37.123C70.808 43.2097 72.6223 49.1138 75.6251 54.4242C77.3515 57.6187 79.4516 60.5946 81.8807 63.2885C87.8055 69.7626 95.8165 74.7013 106.169 76.737C108.28 77.1517 110.483 77.1105 112.831 77.5474C113.05 79.0039 113.05 80.4851 112.831 81.9416C107.842 82.198 103.213 81.0172 99.1066 79.6432C95.0002 78.2692 91.25 76.6768 88.0765 74.4386C84.903 72.2003 81.7736 69.8956 79.1295 67.0717C76.4382 64.2673 74.1088 61.1338 72.1963 57.7452C69.36 52.5532 66.8199 46.7059 66.0037 39.4277C65.7295 36.9679 65.7768 34.4415 65.802 31.7917C65.8997 22.4082 65.802 12.9867 65.802 4.07811C65.802 2.81178 65.6413 1.46947 66.0037 0.225297C67.1697 0.142986 68.903 0.029012 69.9714 0.285444Z" fill="white"/>
<path id="Vector_8" fill-rule="evenodd" clip-rule="evenodd" d="M77.642 0.355166C77.8878 8.70661 77.7744 17.8653 77.7775 26.4447C77.7775 30.9814 77.6483 35.2901 78.2471 39.0827C79.9899 50.0966 86.006 57.7453 93.3741 63.2126C97.6223 66.3563 103.361 68.7307 109.926 69.5664C110.871 69.6836 111.867 69.5506 112.819 69.902C112.964 71.2954 112.964 72.7002 112.819 74.0936C111.782 74.4102 110.663 74.1886 109.667 74.0936C104.858 73.6148 100.18 72.2395 95.8732 70.0382C94.3639 69.2221 92.9034 68.3183 91.499 67.3314C85.8033 63.5388 81.1893 58.3212 78.1116 52.1924C75.707 47.488 73.7752 42.1061 73.4726 35.3629C73.3749 33.1848 73.4726 30.8959 73.4033 28.6038C73.1512 20.4613 73.4033 11.8788 73.4033 3.59381C73.4033 2.5016 73.2489 1.33974 73.605 0.282353C74.6544 0.0924037 76.6997 0.000593461 77.642 0.355166Z" fill="white"/>
<path id="Vector_9" fill-rule="evenodd" clip-rule="evenodd" d="M85.5143 0.285448C85.8704 1.72906 85.716 3.24866 85.716 4.7461C85.716 12.2871 85.716 20.2048 85.716 27.8566C85.716 30.9528 85.5616 34.0363 85.7822 36.9805C86.0626 40.6687 87.547 44.0213 89.0124 46.7788C90.4736 49.5386 92.4151 52.0133 94.7449 54.0855C98.2831 57.426 102.614 59.7999 107.326 60.9806C109.062 61.4144 110.912 61.4872 112.844 61.9304C113.022 63.4358 112.999 64.9584 112.774 66.4575C105.195 66.3816 99.4248 63.6463 94.6756 60.2398C90.2383 57.074 86.0658 52.1923 83.9102 46.5223C82.7946 43.5781 81.7451 40.5073 81.3544 36.7874C80.9636 33.0676 81.1527 29.1514 81.1527 24.7573V3.26132C81.1527 2.27358 81.0298 0.69384 81.3544 0.355097C81.4087 0.292951 81.4782 0.246047 81.5561 0.218969C82.8513 0.260125 84.323 0.133489 85.5143 0.285448Z" fill="white"/>
<path id="Vector_10" fill-rule="evenodd" clip-rule="evenodd" d="M93.2512 0.421615C93.5443 5.77503 93.3363 11.2551 93.4529 16.7763C93.5695 22.2975 93.3867 27.9801 93.3867 33.4728C93.3867 39.8615 95.9678 44.3126 99.3052 47.6652C101.807 50.1789 104.663 52.2493 108.659 53.3447C109.96 53.6993 111.382 53.7025 112.831 54.1552C113.017 55.355 113.118 57.5236 112.762 58.6158C106.352 58.4322 101.789 55.8077 97.95 52.8034C93.8973 49.15 90.5347 44.4646 89.3371 38.0031C88.9369 35.8314 89.003 33.3905 89.003 30.7027C89.003 22.0157 88.7572 12.4802 89.003 4.14145C89.0346 2.9606 88.836 0.830006 89.2016 0.421615C89.2576 0.362114 89.3267 0.316582 89.4033 0.288651C90.6481 0.364631 92.2238 0.120862 93.2512 0.421615Z" fill="white"/>
</g>
<g id="Group 120">
<path id="Vector_11" d="M22.6401 112.042C22.804 113.309 23.365 113.916 24.3167 113.916H24.9092V117.975H24.26C23.7119 117.969 23.1679 117.879 22.6464 117.709V119.317C22.6464 121.525 21.5066 123.252 19.2271 124.5C18.5206 124.814 17.7589 124.984 16.9864 125H12.1647C11.3922 124.984 10.6305 124.814 9.924 124.5C7.64444 123.252 6.50571 121.525 6.50782 119.317V113.337L10.548 109.342V119.067C10.7119 120.318 11.2728 120.941 12.2246 120.941H16.9202C17.8657 120.941 18.4329 120.308 18.5968 119.067V109.108L22.6401 105.106V112.042ZM17.5096 108.734H11.402L15.3823 104.672H17.5096V108.734Z" fill="white"/>
<path id="Vector_12" d="M33.98 103.969H23.3658L27.3367 99.9109H33.9736L33.98 103.969ZM34.1375 112.042C34.3014 113.309 34.8624 113.916 35.8141 113.916H36.4066V117.975H35.7511C34.9797 117.958 34.2194 117.788 33.5135 117.475C33.0189 117.202 32.5505 116.884 32.1143 116.525C31.6797 116.885 31.2122 117.203 30.7182 117.475C30.0112 117.788 29.2498 117.958 28.4775 117.975H24.6958V113.916H28.4271C29.3725 113.916 29.9398 113.283 30.1037 112.042V109.108L34.1375 105.106V112.042Z" fill="white"/>
<path id="Vector_13" d="M39.5612 102.504L43.6013 98.5052V112.292C43.6013 114.498 42.4615 116.225 40.182 117.475C39.4761 117.788 38.7158 117.958 37.9445 117.975H36.0536V113.916H37.8877C38.8332 113.916 39.4004 113.283 39.5675 112.042L39.5612 102.504Z" fill="white"/>
<path id="Vector_14" d="M42.0004 95.2128C42.1548 95.0767 42.3155 94.9469 42.4983 94.8203C43.4521 93.9752 44.6774 93.5042 45.9491 93.4938H53.2668L51.0923 97.3656H46.5605C45.8068 97.352 45.0771 97.6323 44.5247 98.1475L42.0004 95.2128ZM49.712 117.975H45.6687V102.504L49.712 98.5053V117.975Z" fill="white"/>
<path id="Vector_15" d="M62.4691 105.106C63.2404 105.123 64.0008 105.293 64.7066 105.606C66.9862 106.856 68.1259 108.583 68.1259 110.789V112.289C68.1259 114.495 66.9862 116.222 64.7066 117.472C64.0008 117.785 63.2404 117.955 62.4691 117.972H60.7137C59.9424 117.955 59.1819 117.785 58.4762 117.472C56.205 116.226 55.0695 114.5 55.0695 112.292V110.804C55.0695 108.601 56.2092 106.874 58.4888 105.622C59.1945 105.309 59.955 105.139 60.7263 105.122L62.4691 105.106ZM60.7736 109.168C59.8282 109.168 59.2609 109.801 59.097 111.039V112.039C59.2609 113.305 59.8219 113.913 60.7736 113.913H62.406C63.3515 113.913 63.9187 113.28 64.0858 112.039V111.039C63.9187 109.791 63.3609 109.168 62.406 109.168H60.7736Z" fill="white"/>
<path id="Vector_16" d="M78.6172 117.975H76.0204C73.7514 117.975 71.954 116.798 70.6283 114.445C70.2579 113.67 70.062 112.823 70.0547 111.963V111.121C70.0547 108.831 71.2197 107.026 73.5497 105.704C74.3185 105.323 75.1628 105.119 76.0204 105.109H76.6727C78.9544 105.109 80.7528 106.286 82.068 108.639C82.4475 109.411 82.6489 110.26 82.6574 111.121V119.317C82.6574 121.525 81.5176 123.252 79.238 124.5C78.5326 124.814 77.772 124.984 77.0005 125H72.9288L76.8461 120.935H76.9375C77.8829 120.935 78.4502 120.302 78.6172 119.061V117.975ZM73.953 111.51V111.574C73.953 112.971 74.6684 113.798 76.0992 114.056H78.7559V111.523C78.7559 110.13 78.0415 109.303 76.6129 109.041H76.2977C75.8356 109.025 75.3802 109.155 74.9956 109.413C74.6111 109.671 74.3169 110.043 74.1547 110.478C74.0164 110.804 73.9476 111.156 73.953 111.51Z" fill="white"/>
<path id="Vector_17" d="M89.5748 112.042C89.7387 113.309 90.2997 113.916 91.2514 113.916H91.8439V117.975H91.1915C90.6423 117.969 90.0973 117.879 89.5748 117.709V119.317C89.5748 121.525 88.435 123.252 86.1555 124.5C85.4501 124.814 84.6895 124.984 83.918 125H79.6509L83.606 120.935H83.8549C84.8067 120.935 85.3666 120.31 85.5347 119.061V109.108L89.5748 105.106V112.042Z" fill="white"/>
<path id="Vector_18" d="M91.283 117.975V113.917H101.138C102.225 113.936 102.786 113.312 102.814 112.042V111.042C102.814 109.795 102.266 109.171 101.138 109.171H92.6507V106.094L100.173 99.129L103.126 102.095L100.003 105.106H101.201C101.972 105.123 102.732 105.293 103.438 105.606C105.716 106.856 106.855 108.583 106.857 110.789V112.289C106.857 114.495 105.718 116.222 103.438 117.472C102.732 117.785 101.972 117.955 101.201 117.972L91.283 117.975ZM93.7852 103.814L92.0614 102.083L97.0816 97.4131L98.8212 99.1606L93.7852 103.814Z" fill="white"/>
</g>
</g>
</svg>
