<svg width="35" height="34" viewBox="0 0 35 34" fill="none" xmlns="http://www.w3.org/2000/svg">
<g id="Group 3">
<g id="Ameriways">
<path id="Vector" fill-rule="evenodd" clip-rule="evenodd" d="M7.42632 0.0254984C7.53545 1.02031 7.48868 2.08332 7.48868 3.14341V9.46692C7.48868 10.5221 7.45068 11.4965 7.19638 12.3578C6.75648 13.8613 5.88065 15.2007 4.67964 16.2065C3.38266 17.2791 1.76409 17.8868 0.0816964 17.933C-0.040097 17.5803 0.0193382 16.9294 0.0816964 16.5602C1.73224 16.3263 3.07197 15.7865 4.03462 14.8551C4.80133 14.1647 5.39309 13.3021 5.76116 12.3383C6.17136 11.2665 6.11485 9.93655 6.11485 8.44775V1.02421C6.11485 0.693902 6.06711 0.342162 6.17721 0.0264737C6.59283 -0.00849554 7.01064 -0.00882239 7.42632 0.0254984Z" fill="#444A5D"/>
<path id="Vector_2" fill-rule="evenodd" clip-rule="evenodd" d="M8.61212 0.0254968C9.02232 0.0391376 9.48416 -0.000810459 9.85928 0.0469325C9.97133 2.38536 9.89631 4.89528 9.92164 7.38961C9.93626 8.71959 9.94405 9.96578 9.83882 11.1136C9.52605 14.5286 7.89013 16.8223 5.74072 18.4358C4.2792 19.53 2.47373 20.3036 0.0826863 20.3494C-0.0303379 20.0093 0.00668732 19.3293 0.0622251 18.9561C2.1483 18.7398 3.78131 18.1347 5.07524 17.1048C6.34676 16.0915 7.37372 14.8492 8.00802 13.1733C8.33735 12.3032 8.45525 11.3445 8.50786 10.2405C8.56048 9.13661 8.46109 7.97422 8.48643 6.83033C8.52833 4.97908 8.50786 2.90566 8.50786 0.921895C8.50786 0.623745 8.47766 0.233032 8.54879 0.0907778C8.55408 0.076013 8.56247 0.0625517 8.5734 0.0512931C8.58432 0.0400345 8.59752 0.0312386 8.61212 0.0254968Z" fill="#444A5D"/>
<path id="Vector_3" fill-rule="evenodd" clip-rule="evenodd" d="M11.0665 0.0254968C11.4562 0.0391376 11.8967 -0.000810465 12.2523 0.0469325C12.3176 2.9271 12.3146 5.81799 12.3146 8.67964C12.3146 10.1412 12.2932 11.5296 12.0223 12.7563C11.2429 16.2903 9.33997 18.922 6.71702 20.6407C4.9632 21.7885 2.84302 22.7531 0.0817236 22.721C-0.0274032 22.4062 0.00182728 21.7573 0.0612624 21.4105C0.548436 21.2896 1.00248 21.3237 1.47504 21.2643C1.73616 21.2312 2.02555 21.1552 2.28667 21.0977C4.04049 20.708 5.55658 19.7921 6.75892 18.8567C7.91288 17.9642 8.87183 16.8449 9.57664 15.5676C10.2815 14.2904 10.7172 12.8823 10.857 11.4302C10.9642 10.261 10.9398 9.01482 10.9398 7.66535C10.9398 5.54225 10.8746 3.19505 10.9398 0.942359C10.9496 0.630568 10.9048 0.239853 11.0022 0.0654454C11.0202 0.0472002 11.0422 0.0335041 11.0665 0.0254968Z" fill="#444A5D"/>
<path id="Vector_4" fill-rule="evenodd" clip-rule="evenodd" d="M14.6024 0.0674065C14.6852 3.30711 14.6648 6.53707 14.6648 9.78262C14.6648 11.4604 14.5303 12.9639 14.1445 14.2753C13.5832 16.188 12.7395 17.8804 11.6482 19.2883C11.2838 19.758 10.8853 20.1808 10.4838 20.6203C9.68293 21.4972 8.74658 22.1948 7.71669 22.8671C6.65473 23.5568 5.49854 24.0891 4.28407 24.4475C3.0106 24.8265 1.60364 25.227 0.0407895 25.113C0.0271487 24.7106 -0.0391069 24.0763 0.0826865 23.7401C0.826113 23.6427 1.52277 23.6213 2.18338 23.5112C4.11648 23.1906 5.74949 22.3936 7.15255 21.5147C9.0535 20.326 10.5238 18.6979 11.6453 16.7092C12.2328 15.6531 12.6668 14.5186 12.9343 13.34C13.5189 10.8222 13.2685 7.47731 13.289 4.4734C13.2968 3.33147 13.2734 2.21779 13.3094 1.08267C13.3202 0.737755 13.2451 0.374325 13.3718 0.0420726C13.7352 0.02356 14.276 -0.0115156 14.6024 0.0674065Z" fill="#444A5D"/>
<path id="Vector_5" fill-rule="evenodd" clip-rule="evenodd" d="M16.8912 0.109285C16.9331 1.78126 16.9331 3.50391 16.9331 5.16322C16.9331 6.85956 16.9876 8.59195 16.9331 10.3428C16.8993 11.9022 16.6828 13.4523 16.2881 14.9612C15.8126 16.6966 15.0458 18.2867 14.2078 19.6625C12.9334 21.7534 11.0782 23.4079 9.04964 24.7593C7.89309 25.529 6.53095 26.1575 5.07626 26.6515C4.30884 26.9068 3.52279 27.1023 2.72516 27.2361C1.85408 27.3954 0.968993 27.4653 0.0837029 27.4446C-0.0351673 27.0919 -0.0137316 26.5453 0.0632418 26.1964C0.443237 26.0415 0.856359 26.0805 1.23246 26.0503C3.67755 25.849 6.03875 25.0645 8.11816 23.7625C11.0763 21.9171 13.2666 19.3867 14.6463 15.8781C14.7759 15.5488 14.8314 15.2272 14.9386 14.8589C15.3843 13.3735 15.6086 11.8304 15.6041 10.2795C15.6041 7.89821 15.6041 5.20122 15.6041 2.58218C15.6041 2.17782 15.5875 1.72767 15.6041 1.27168C15.6148 0.933581 15.5583 0.240822 15.6869 0.0859013C15.7037 0.0667747 15.7252 0.0523376 15.7492 0.0440036C16.1156 0.0800545 16.6262 -0.0251751 16.8912 0.109285Z" fill="#444A5D"/>
<path id="Vector_6" fill-rule="evenodd" clip-rule="evenodd" d="M19.2832 0.0878568C19.3582 3.48151 19.3251 7.13726 19.3251 10.4685C19.3227 11.9991 19.5527 13.5212 20.0071 14.9827C20.3902 16.2443 20.9432 17.448 21.6509 18.5605C22.3465 19.6372 23.0471 20.6914 23.9386 21.5147C24.8465 22.3631 25.8283 23.1288 26.8724 23.8025C27.9843 24.5024 29.1789 25.0614 30.4288 25.4667C31.7509 25.909 33.2319 26.1321 34.8601 26.2569C34.9176 26.592 34.9526 27.2458 34.8386 27.5469C33.533 27.6044 32.2859 27.3452 31.178 27.0685C30.7971 26.9711 30.3985 26.9155 30.0546 26.7986C29.356 26.5618 28.6905 26.2666 28.0572 25.987C27.4377 25.6999 26.8409 25.3661 26.2722 24.9883C25.1205 24.2575 24.0799 23.4829 23.1319 22.5339C22.1838 21.5849 21.3264 20.6125 20.6346 19.4345C20.2858 18.8392 19.9584 18.2555 19.6603 17.6037C18.7931 15.73 18.0887 13.5299 17.9961 10.8632C17.9659 9.99307 18.0165 9.05769 18.0165 8.11745C18.0165 6.35388 17.9766 4.54355 17.9961 2.66793C18.0029 2.0044 17.9961 1.374 18.0165 0.670517C18.0234 0.475648 17.9513 0.232061 18.1003 0.0673963C18.4453 0.044012 18.9646 0.00990901 19.2832 0.0878568Z" fill="#444A5D"/>
<path id="Vector_7" fill-rule="evenodd" clip-rule="evenodd" d="M21.6334 0.0878517C21.7133 0.799125 21.6957 1.52989 21.6967 2.27234C21.6967 4.44903 21.6967 6.85177 21.6967 9.13661C21.6967 9.94629 21.6753 10.7024 21.7376 11.4254C21.892 13.2987 22.453 15.1158 23.3813 16.7502C23.9151 17.7333 24.5644 18.6492 25.3154 19.4783C27.1472 21.4709 29.624 22.9908 32.8247 23.6174C33.4775 23.745 34.1586 23.7323 34.8845 23.8668C34.9522 24.315 34.9522 24.7709 34.8845 25.2192C33.3421 25.2981 31.9108 24.9347 30.6412 24.5118C29.3716 24.0889 28.2122 23.5988 27.231 22.91C26.2498 22.2211 25.2823 21.5118 24.4648 20.6427C23.6327 19.7796 22.9126 18.8152 22.3213 17.7722C21.4443 16.1743 20.659 14.3747 20.4067 12.1347C20.3219 11.3776 20.3365 10.6001 20.3443 9.78455C20.3745 6.89659 20.3443 3.99693 20.3443 1.25512C20.3443 0.865381 20.2946 0.452259 20.4067 0.0693404C20.7672 0.0440074 21.3031 0.00892965 21.6334 0.0878517Z" fill="#444A5D"/>
<path id="Vector_8" fill-rule="evenodd" clip-rule="evenodd" d="M24.0049 0.109302C24.0809 2.67963 24.0458 5.49841 24.0468 8.13889C24.0468 9.53513 24.0068 10.8612 24.192 12.0285C24.7308 15.4182 26.5908 17.7723 28.8688 19.455C30.1823 20.4225 31.9565 21.1532 33.9861 21.4105C34.2784 21.4465 34.5863 21.4056 34.8806 21.5138C34.9254 21.9426 34.9254 22.3749 34.8806 22.8038C34.56 22.9012 34.2141 22.833 33.9062 22.8038C32.4194 22.6564 30.9731 22.2332 29.6415 21.5556C29.1749 21.3045 28.7233 21.0263 28.2891 20.7226C26.5282 19.5553 25.1016 17.9495 24.1501 16.0633C23.4067 14.6154 22.8094 12.959 22.7158 10.8836C22.6856 10.2133 22.7158 9.50883 22.6944 8.8034C22.6165 6.29738 22.6944 3.65592 22.6944 1.10606C22.6944 0.76991 22.6467 0.412324 22.7568 0.0868922C23.0812 0.0284314 23.7136 0.000174906 24.0049 0.109302Z" fill="#444A5D"/>
<path id="Vector_9" fill-rule="evenodd" clip-rule="evenodd" d="M26.4388 0.0878762C26.5489 0.532178 26.5012 0.999864 26.5012 1.46073C26.5012 3.78162 26.5012 6.21847 26.5012 8.57346C26.5012 9.52637 26.4534 10.4754 26.5216 11.3815C26.6083 12.5166 27.0672 13.5485 27.5203 14.3971C27.9721 15.2465 28.5723 16.0082 29.2927 16.6459C30.3866 17.674 31.7257 18.4046 33.1822 18.7681C33.7191 18.9015 34.2911 18.9239 34.8883 19.0604C34.9435 19.5237 34.9363 19.9923 34.8669 20.4537C32.5236 20.4303 30.7396 19.5885 29.2712 18.5401C27.8993 17.5657 26.6093 16.0633 25.9428 14.3182C25.5979 13.4121 25.2735 12.467 25.1527 11.3221C25.0318 10.1772 25.0903 8.97197 25.0903 7.61958V1.00376C25.0903 0.699765 25.0523 0.213567 25.1527 0.109312C25.1695 0.0901853 25.191 0.0757497 25.215 0.0674158C25.6155 0.0800823 26.0705 0.0411076 26.4388 0.0878762Z" fill="#444A5D"/>
<path id="Vector_10" fill-rule="evenodd" clip-rule="evenodd" d="M28.8308 0.129763C28.9214 1.77738 28.8571 3.46398 28.8931 5.16324C28.9292 6.8625 28.8727 8.61145 28.8727 10.3019C28.8727 12.2682 29.6707 13.6381 30.7025 14.6699C31.4761 15.4436 32.3589 16.0808 33.5944 16.4179C33.9968 16.527 34.4362 16.528 34.8844 16.6674C34.9419 17.0366 34.9731 17.7041 34.863 18.0402C32.8811 17.9837 31.4703 17.176 30.2835 16.2513C29.0305 15.1269 27.9909 13.6849 27.6206 11.6962C27.4969 11.0278 27.5174 10.2766 27.5174 9.44939C27.5174 6.77578 27.4414 3.84105 27.5174 1.27462C27.5271 0.911188 27.4657 0.255454 27.5787 0.129763C27.5961 0.11145 27.6174 0.0974372 27.6411 0.0888408C28.026 0.112225 28.5131 0.0372003 28.8308 0.129763Z" fill="#444A5D"/>
</g>
<path id="Vector_11" d="M1.5003 33.735L1.41748 33.9971H0.384674L1.67958 30.3998H2.70265L3.98683 33.9961H2.96377L2.87803 33.734L1.5003 33.735ZM2.53311 32.7187L2.18624 31.6859L1.84814 32.7187H2.53311Z" fill="#444A5D"/>
<path id="Vector_12" d="M5.26819 32.9701H6.29807L6.16751 33.9971H4.23538V30.3998H5.26819V32.9701Z" fill="#444A5D"/>
<path id="Vector_13" d="M8.6053 33.9971H7.57639V31.4248H6.54358L6.67999 30.4008H9.62544L9.5017 31.4248H8.6053V33.9971Z" fill="#444A5D"/>
<path id="Vector_14" d="M11.1786 32.3007L11.1113 32.1955L9.88367 30.3998H11.0529L11.6774 31.3313L12.3195 30.3998H13.4887L12.2806 32.2082L12.2016 32.3261V33.9971H11.1786V32.3007Z" fill="#444A5D"/>
<path id="Vector_15" d="M14.7671 32.1955V33.9971H13.7343V30.3998H14.7671L16.0523 32.1945V30.3998H17.0782V33.9961H16.0523L14.7671 32.1955Z" fill="#444A5D"/>
<path id="Vector_16" d="M20.9668 33.9971H19.9282C19.4513 33.994 18.9949 33.8032 18.6577 33.466C18.3205 33.1288 18.1297 32.6724 18.1266 32.1955C18.1232 31.959 18.1688 31.7244 18.2605 31.5064C18.3522 31.2884 18.4881 31.0917 18.6596 30.9288C18.8243 30.7603 19.0214 30.6268 19.2391 30.5366C19.4569 30.4463 19.6906 30.4011 19.9262 30.4037H20.9649L20.8285 31.4277H19.9262C19.7213 31.4277 19.5248 31.5091 19.3799 31.654C19.235 31.7989 19.1536 31.9954 19.1536 32.2004C19.1536 32.4053 19.235 32.6018 19.3799 32.7467C19.5248 32.8916 19.7213 32.973 19.9262 32.973V32.1935H20.9649L20.9668 33.9971Z" fill="#444A5D"/>
<path id="Vector_17" d="M22.4079 32.9701H22.2393V33.9971H21.2056V30.3998H23.0061C23.8603 30.3998 24.2874 30.8282 24.2874 31.685C24.2874 32.3501 24.0302 32.7571 23.5157 32.9058L24.2874 33.9961H23.1377L22.4079 32.9701ZM22.2393 31.4248V31.9412H23.0071C23.0756 31.9412 23.1413 31.914 23.1897 31.8656C23.2381 31.8172 23.2653 31.7515 23.2653 31.683C23.2653 31.6145 23.2381 31.5489 23.1897 31.5004C23.1413 31.452 23.0756 31.4248 23.0071 31.4248H22.2393Z" fill="#444A5D"/>
<path id="Vector_18" d="M26.3472 33.9971C25.8703 33.9943 25.4138 33.8035 25.0767 33.4662C24.7396 33.129 24.5491 32.6724 24.5466 32.1955C24.5432 31.9591 24.5887 31.7246 24.6803 31.5066C24.7718 31.2887 24.9074 31.092 25.0786 30.9289C25.4161 30.5925 25.8731 30.4037 26.3496 30.4037C26.8261 30.4037 27.2832 30.5925 27.6207 30.9289C27.8716 31.1808 28.0423 31.5015 28.1112 31.8503C28.1802 32.1992 28.1443 32.5606 28.0081 32.8891C27.8718 33.2176 27.6414 33.4984 27.3459 33.6961C27.0503 33.8938 26.7028 33.9995 26.3472 34V33.9971ZM27.1267 32.1955C27.1278 32.0943 27.1081 31.9939 27.0689 31.9005C27.0297 31.8072 26.9718 31.7229 26.8987 31.6528C26.8274 31.5792 26.7417 31.5209 26.647 31.4817C26.5524 31.4425 26.4506 31.4231 26.3482 31.4248C26.1432 31.4248 25.9467 31.5062 25.8018 31.6511C25.6569 31.796 25.5755 31.9925 25.5755 32.1975C25.5755 32.4024 25.6569 32.5989 25.8018 32.7438C25.9467 32.8887 26.1432 32.9701 26.3482 32.9701C26.5549 32.9701 26.7532 32.888 26.8993 32.7418C27.0455 32.5956 27.1276 32.3974 27.1276 32.1906L27.1267 32.1955Z" fill="#444A5D"/>
<path id="Vector_19" d="M28.3972 32.1955V30.3998H29.43V32.1945C29.43 32.7142 29.5989 32.974 29.9367 32.974C30.2855 32.974 30.4599 32.7142 30.4599 32.1945V30.3998H31.4801V32.1945C31.4801 33.3962 30.9656 33.9968 29.9367 33.9961C28.9078 33.9955 28.3946 33.3953 28.3972 32.1955Z" fill="#444A5D"/>
<path id="Vector_20" d="M32.771 32.9701V33.9971H31.7382V30.3998H33.5388C34.3937 30.3998 34.8207 30.8282 34.8201 31.685C34.8194 32.5417 34.3924 32.9698 33.5388 32.9691L32.771 32.9701ZM32.771 31.4248V31.9412H33.5388C33.6073 31.9412 33.673 31.914 33.7214 31.8656C33.7698 31.8172 33.797 31.7515 33.797 31.683C33.797 31.6145 33.7698 31.5489 33.7214 31.5004C33.673 31.452 33.6073 31.4248 33.5388 31.4248H32.771Z" fill="#444A5D"/>
</g>
</svg>
