<svg width="57" height="55" viewBox="0 0 57 55" fill="none" xmlns="http://www.w3.org/2000/svg">
<g id="Group 3">
<g id="Ameriways">
<path id="Vector" fill-rule="evenodd" clip-rule="evenodd" d="M12.0131 0.0412474C12.1897 1.6505 12.114 3.37008 12.114 5.08493V15.3141C12.114 17.0211 12.0525 18.5972 11.6412 19.9906C10.9296 22.4227 9.51279 24.5893 7.56997 26.2164C5.47191 27.9514 2.85364 28.9346 0.132122 29.0093C-0.0648969 28.4387 0.0312482 27.3859 0.132122 26.7885C2.80212 26.4102 4.96932 25.537 6.52656 24.0302C7.76683 22.9135 8.72408 21.5181 9.3195 19.959C9.98306 18.2253 9.89164 16.0738 9.89164 13.6655V1.6568C9.89164 1.12249 9.81441 0.553497 9.99251 0.0428251C10.6648 -0.0137428 11.3407 -0.0142715 12.0131 0.0412474Z" fill="#FFBF3F"/>
<path id="Vector_2" fill-rule="evenodd" clip-rule="evenodd" d="M13.9312 0.0412838C14.5948 0.0633499 15.3419 -0.00127199 15.9487 0.0759593C16.13 3.85872 16.0086 7.91888 16.0496 11.9538C16.0732 14.1053 16.0858 16.1212 15.9156 17.9779C15.4097 23.5023 12.7633 27.2125 9.28633 29.8226C6.92211 31.5926 4.0015 32.8441 0.133633 32.9182C-0.0491999 32.3681 0.0106939 31.2679 0.100534 30.6643C3.47507 30.3144 6.1167 29.3356 8.20982 27.6696C10.2667 26.0304 11.928 24.0208 12.954 21.3098C13.4868 19.9023 13.6775 18.3514 13.7626 16.5656C13.8477 14.7799 13.6869 12.8995 13.7279 11.0491C13.7957 8.05443 13.7626 4.70038 13.7626 1.49134C13.7626 1.00904 13.7137 0.377003 13.8288 0.146886C13.8374 0.123001 13.8509 0.101226 13.8686 0.0830132C13.8863 0.0648007 13.9076 0.050572 13.9312 0.0412838Z" fill="#FFBF3F"/>
<path id="Vector_3" fill-rule="evenodd" clip-rule="evenodd" d="M17.9016 0.0412838C18.5321 0.0633499 19.2445 -0.001272 19.8198 0.0759593C19.9254 4.73506 19.9207 9.41149 19.9207 14.0406C19.9207 16.4049 19.886 18.6509 19.4478 20.6353C18.1869 26.3519 15.1087 30.6091 10.8657 33.3895C8.02862 35.2462 4.59892 36.8065 0.132116 36.7545C-0.0444131 36.2454 0.00287152 35.1957 0.0990166 34.6346C0.887091 34.4392 1.62158 34.4943 2.38601 34.3982C2.80842 34.3446 3.27653 34.2217 3.69894 34.1287C6.53601 33.4982 8.9885 32.0166 10.9335 30.5035C12.8002 29.0598 14.3514 27.2491 15.4915 25.183C16.6317 23.1168 17.3366 20.8391 17.5627 18.4901C17.7361 16.5987 17.6967 14.5828 17.6967 12.3999C17.6967 8.96544 17.5911 5.1685 17.6967 1.52444C17.7125 1.02008 17.64 0.388037 17.7976 0.105907C17.8266 0.0763923 17.8623 0.0542368 17.9016 0.0412838Z" fill="#FFBF3F"/>
<path id="Vector_4" fill-rule="evenodd" clip-rule="evenodd" d="M23.6215 0.109038C23.7555 5.34973 23.7224 10.5747 23.7224 15.8248C23.7224 18.5389 23.5048 20.9709 22.8807 23.0924C21.9728 26.1864 20.6079 28.9242 18.8426 31.2017C18.2531 31.9614 17.6085 32.6455 16.9591 33.3563C15.6635 34.7749 14.1488 35.9034 12.4828 36.9909C10.765 38.1066 8.89464 38.9677 6.93006 39.5474C4.87003 40.1606 2.59407 40.8084 0.065931 40.624C0.0438649 39.973 -0.0633131 38.9469 0.133705 38.4032C1.33631 38.2455 2.46325 38.2109 3.53188 38.0328C6.65896 37.5142 9.30059 36.2249 11.5702 34.8032C14.6453 32.8803 17.0237 30.2466 18.8379 27.0297C19.7883 25.3211 20.4904 23.4859 20.9231 21.5793C21.8688 17.5066 21.4637 12.0957 21.4968 7.23638C21.5094 5.38914 21.4716 3.5876 21.5299 1.75138C21.5473 1.19343 21.4259 0.605523 21.6308 0.0680563C22.2187 0.0381095 23.0935 -0.0186303 23.6215 0.109038Z" fill="#FFBF3F"/>
<path id="Vector_5" fill-rule="evenodd" clip-rule="evenodd" d="M27.3239 0.176789C27.3917 2.88146 27.3917 5.66809 27.3917 8.35227C27.3917 11.0963 27.48 13.8987 27.3917 16.7311C27.3371 19.2536 26.9869 21.7611 26.3483 24.202C25.5791 27.0091 24.3387 29.5814 22.9832 31.8069C20.9216 35.1894 17.9206 37.8657 14.6391 40.0518C12.7682 41.2969 10.5647 42.3136 8.21154 43.1127C6.97014 43.5257 5.69858 43.8419 4.40829 44.0584C2.9992 44.3161 1.56744 44.4292 0.135352 44.3956C-0.0569377 43.8251 -0.0222623 42.9409 0.102253 42.3766C0.716952 42.126 1.38524 42.189 1.99363 42.1402C5.94892 41.8145 9.76852 40.5454 13.1323 38.4394C17.9175 35.4542 21.4606 31.3609 23.6925 25.6852C23.9021 25.1524 23.9919 24.6323 24.1653 24.0365C24.8864 21.6336 25.2491 19.1374 25.2418 16.6286C25.2418 12.7765 25.2418 8.41374 25.2418 4.17706C25.2418 3.52295 25.215 2.79477 25.2418 2.05713C25.2592 1.51021 25.1677 0.38957 25.3758 0.138962C25.403 0.108022 25.4378 0.0846683 25.4767 0.0711868C26.0693 0.129504 26.8952 -0.04072 27.3239 0.176789Z" fill="#FFBF3F"/>
<path id="Vector_6" fill-rule="evenodd" clip-rule="evenodd" d="M31.1933 0.142133C31.3147 5.63186 31.2611 11.5456 31.2611 16.9344C31.2572 19.4103 31.6292 21.8725 32.3644 24.2367C32.9841 26.2776 33.8786 28.2247 35.0234 30.0243C36.1487 31.766 37.282 33.4714 38.7241 34.8032C40.1927 36.1757 41.781 37.4142 43.4699 38.504C45.2686 39.6363 47.2011 40.5406 49.2229 41.1961C51.3617 41.9117 53.7575 42.2726 56.3912 42.4743C56.4842 43.0165 56.5409 44.0741 56.3565 44.5612C54.2445 44.6542 52.227 44.2349 50.4349 43.7873C49.8187 43.6297 49.174 43.5398 48.6176 43.3507C47.4875 42.9677 46.411 42.4901 45.3865 42.0378C44.3843 41.5735 43.419 41.0334 42.499 40.4222C40.636 39.2401 38.9527 37.9871 37.4191 36.4519C35.8855 34.9167 34.4985 33.3437 33.3794 31.4382C32.8152 30.4751 32.2856 29.531 31.8033 28.4766C30.4005 25.4456 29.2609 21.8867 29.1112 17.5728C29.0624 16.1653 29.1443 14.6522 29.1443 13.1312C29.1443 10.2783 29.0797 7.34987 29.1112 4.31578C29.1222 3.24242 29.1112 2.22265 29.1443 1.08467C29.1553 0.769442 29.0387 0.375404 29.2799 0.109035C29.8378 0.0712075 30.6779 0.0160409 31.1933 0.142133Z" fill="#FFBF3F"/>
<path id="Vector_7" fill-rule="evenodd" clip-rule="evenodd" d="M34.9951 0.14214C35.1243 1.29273 35.0959 2.47484 35.0975 3.67587C35.0975 7.19699 35.0975 11.0838 35.0975 14.7798C35.0975 16.0896 35.0628 17.3127 35.1637 18.4822C35.4135 21.5126 36.3209 24.452 37.8227 27.0959C38.6861 28.6863 39.7364 30.1679 40.9513 31.5091C43.9145 34.7323 47.9211 37.1911 53.0987 38.2046C54.1547 38.411 55.2565 38.3906 56.4307 38.6081C56.5402 39.3332 56.5402 40.0706 56.4307 40.7957C53.9356 40.9234 51.6203 40.3355 49.5666 39.6515C47.5128 38.9674 45.6372 38.1746 44.05 37.0603C42.4629 35.9459 40.8977 34.7985 39.5754 33.3926C38.2293 31.9964 37.0644 30.4363 36.1078 28.7492C34.6893 26.1644 33.4189 23.2532 33.0107 19.6297C32.8736 18.405 32.8972 17.1472 32.9098 15.828C32.9587 11.1563 32.9098 6.46565 32.9098 2.03037C32.9098 1.39991 32.8294 0.731622 33.0107 0.112196C33.5939 0.0712158 34.4608 0.0144724 34.9951 0.14214Z" fill="#FFBF3F"/>
<path id="Vector_8" fill-rule="evenodd" clip-rule="evenodd" d="M38.8314 0.176825C38.9543 4.33471 38.8976 8.89451 38.8992 13.1659C38.8992 15.4245 38.8345 17.5696 39.134 19.4579C40.0056 24.9413 43.0145 28.7493 46.6995 31.4713C48.8242 33.0364 51.6943 34.2185 54.9775 34.6346C55.4503 34.6929 55.9484 34.6267 56.4244 34.8017C56.4969 35.4954 56.4969 36.1948 56.4244 36.8885C55.9058 37.0461 55.3463 36.9358 54.8482 36.8885C52.4431 36.6501 50.1035 35.9654 47.9494 34.8694C47.1946 34.4632 46.4641 34.0132 45.7617 33.5218C42.9131 31.6336 40.6055 29.036 39.0662 25.9847C37.8636 23.6425 36.8975 20.9631 36.7461 17.6059C36.6973 16.5215 36.7461 15.3819 36.7115 14.2408C36.5854 10.1869 36.7115 5.91401 36.7115 1.78923C36.7115 1.24546 36.6342 0.667008 36.8123 0.140574C37.3372 0.0460049 38.3601 0.000295956 38.8314 0.176825Z" fill="#FFBF3F"/>
<path id="Vector_9" fill-rule="evenodd" clip-rule="evenodd" d="M42.7686 0.142193C42.9467 0.860917 42.8694 1.61747 42.8694 2.36299C42.8694 6.11737 42.8694 10.0593 42.8694 13.8689C42.8694 15.4103 42.7922 16.9455 42.9025 18.4113C43.0428 20.2476 43.7852 21.9167 44.5181 23.2895C45.2489 24.6636 46.2199 25.8956 47.3851 26.9273C49.1547 28.5904 51.3209 29.7723 53.6771 30.3601C54.5456 30.5761 55.4707 30.6123 56.4369 30.833C56.5262 31.5824 56.5145 32.3405 56.4023 33.0869C52.6116 33.049 49.7257 31.6872 47.3504 29.9913C45.1312 28.4152 43.0444 25.9847 41.9663 23.1619C41.4083 21.696 40.8835 20.1672 40.688 18.3152C40.4926 16.4632 40.5872 14.5135 40.5872 12.3258V1.62377C40.5872 1.13201 40.5257 0.345517 40.688 0.176869C40.7152 0.145928 40.75 0.122577 40.7889 0.109095C41.4367 0.129585 42.1728 0.0665379 42.7686 0.142193Z" fill="#FFBF3F"/>
<path id="Vector_10" fill-rule="evenodd" clip-rule="evenodd" d="M46.638 0.209927C46.7846 2.8752 46.6805 5.60351 46.7388 8.35231C46.7972 11.1011 46.7057 13.9303 46.7057 16.6649C46.7057 19.8456 47.9966 22.0617 49.6658 23.7308C50.9172 24.9823 52.3452 26.0131 54.3438 26.5584C54.9947 26.7349 55.7056 26.7365 56.4306 26.9619C56.5236 27.5593 56.574 28.6389 56.3959 29.1827C53.19 29.0913 50.9078 27.7847 48.988 26.2889C46.9611 24.47 45.2793 22.1373 44.6804 18.9204C44.4802 17.8392 44.5133 16.6239 44.5133 15.2858C44.5133 10.9608 44.3904 6.21348 44.5133 2.0619C44.5291 1.474 44.4298 0.413251 44.6126 0.209927C44.6406 0.180304 44.6752 0.157635 44.7135 0.143729C45.3361 0.181557 46.1241 0.0601931 46.638 0.209927Z" fill="#FFBF3F"/>
</g>
<path id="Vector_11" d="M2.427 54.5713L2.29303 54.9953H0.622314L2.71702 49.1761H4.37197L6.44934 54.9937H4.79438L4.65568 54.5697L2.427 54.5713ZM4.09772 52.9274L3.53662 51.2567L2.98969 52.9274H4.09772Z" fill="#FFBF3F"/>
<path id="Vector_12" d="M8.5221 53.334H10.1881L9.97688 54.9953H6.85138V49.1761H8.5221V53.334Z" fill="#FFBF3F"/>
<path id="Vector_13" d="M13.9203 54.9953H12.2559V50.8343H10.5852L10.8059 49.1777H15.5706L15.3704 50.8343H13.9203V54.9953Z" fill="#FFBF3F"/>
<path id="Vector_14" d="M18.083 52.2512L17.9742 52.081L15.9883 49.1761H17.8797L18.89 50.6829L19.9287 49.1761H21.82L19.8656 52.1015L19.7379 52.2922V54.9953H18.083V52.2512Z" fill="#FFBF3F"/>
<path id="Vector_15" d="M23.8879 52.081V54.9953H22.2172V49.1761H23.8879L25.9669 52.0794V49.1761H27.6266V54.9937H25.9669L23.8879 52.081Z" fill="#FFBF3F"/>
<path id="Vector_16" d="M33.9169 54.9953H32.2368C31.4654 54.9903 30.727 54.6817 30.1815 54.1362C29.6361 53.5907 29.3274 52.8524 29.3225 52.081C29.3169 51.6984 29.3907 51.3189 29.5391 50.9662C29.6874 50.6136 29.9072 50.2955 30.1846 50.032C30.451 49.7593 30.77 49.5434 31.1221 49.3974C31.4743 49.2514 31.8524 49.1782 32.2336 49.1824H33.9138L33.6931 50.839H32.2336C31.9021 50.839 31.5842 50.9706 31.3498 51.205C31.1154 51.4394 30.9837 51.7573 30.9837 52.0888C30.9837 52.4203 31.1154 52.7382 31.3498 52.9726C31.5842 53.207 31.9021 53.3387 32.2336 53.3387V52.0778H33.9138L33.9169 54.9953Z" fill="#FFBF3F"/>
<path id="Vector_17" d="M36.248 53.334H35.9754V54.9953H34.3031V49.1761H37.2158C38.5976 49.1761 39.2884 49.8691 39.2884 51.2551C39.2884 52.3311 38.8723 52.9894 38.0401 53.23L39.2884 54.9937H37.4286L36.248 53.334ZM35.9754 50.8343V51.6696H37.2174C37.3281 51.6696 37.4344 51.6256 37.5127 51.5473C37.591 51.4689 37.6351 51.3627 37.6351 51.2519C37.6351 51.1412 37.591 51.0349 37.5127 50.9566C37.4344 50.8783 37.3281 50.8343 37.2174 50.8343H35.9754Z" fill="#FFBF3F"/>
<path id="Vector_18" d="M42.6205 54.9953C41.8491 54.9907 41.1107 54.6822 40.5654 54.1366C40.0201 53.591 39.7119 52.8523 39.7078 52.081C39.7023 51.6986 39.7759 51.3192 39.924 50.9666C40.0721 50.614 40.2915 50.2958 40.5683 50.032C41.1143 49.4879 41.8537 49.1824 42.6244 49.1824C43.3952 49.1824 44.1346 49.4879 44.6805 50.032C45.0864 50.4396 45.3625 50.9582 45.4741 51.5226C45.5856 52.0869 45.5275 52.6716 45.3072 53.2029C45.0869 53.7343 44.7141 54.1885 44.236 54.5084C43.7579 54.8282 43.1957 54.9992 42.6205 55V54.9953ZM43.8814 52.081C43.8832 51.9172 43.8514 51.7548 43.788 51.6038C43.7245 51.4528 43.6308 51.3164 43.5126 51.2031C43.3973 51.0839 43.2587 50.9898 43.1056 50.9263C42.9524 50.8629 42.7878 50.8315 42.6221 50.8342C42.2906 50.8342 41.9727 50.9659 41.7383 51.2003C41.5039 51.4347 41.3722 51.7526 41.3722 52.0841C41.3722 52.4156 41.5039 52.7335 41.7383 52.9679C41.9727 53.2023 42.2906 53.334 42.6221 53.334C42.9565 53.334 43.2772 53.2012 43.5137 52.9647C43.7501 52.7282 43.883 52.4075 43.883 52.0731L43.8814 52.081Z" fill="#FFBF3F"/>
<path id="Vector_19" d="M45.9367 52.081V49.1761H47.6074V52.0794C47.6074 52.92 47.8806 53.3403 48.427 53.3403C48.9912 53.3403 49.2734 52.92 49.2734 52.0794V49.1761H50.9236V52.0794C50.9236 54.0233 50.0914 54.9948 48.427 54.9937C46.7626 54.9927 45.9325 54.0218 45.9367 52.081Z" fill="#FFBF3F"/>
<path id="Vector_20" d="M53.012 53.334V54.9953H51.3413V49.1761H54.254C55.6368 49.1761 56.3277 49.8691 56.3266 51.2551C56.3256 52.641 55.6347 53.3335 54.254 53.3325L53.012 53.334ZM53.012 50.8343V51.6696H54.254C54.3648 51.6696 54.471 51.6256 54.5493 51.5473C54.6277 51.4689 54.6717 51.3627 54.6717 51.2519C54.6717 51.1412 54.6277 51.0349 54.5493 50.9566C54.471 50.8783 54.3648 50.8343 54.254 50.8343H53.012Z" fill="#FFBF3F"/>
</g>
</svg>
