<svg width="89" height="86" viewBox="0 0 89 86" fill="none" xmlns="http://www.w3.org/2000/svg">
<g id="Group 3">
<g id="Ameriways">
<path id="Vector" fill-rule="evenodd" clip-rule="evenodd" d="M18.7842 0.064496C19.0602 2.58078 18.9419 5.26957 18.9419 7.95098V23.9457C18.9419 26.6148 18.8458 29.0793 18.2026 31.258C17.0899 35.061 14.8746 38.4487 11.8367 40.9928C8.55609 43.7058 4.46206 45.2432 0.206597 45.36C-0.101468 44.4678 0.0488675 42.8215 0.206597 41.8875C4.3815 41.296 7.77022 39.9306 10.2052 37.5746C12.1445 35.8284 13.6413 33.6466 14.5723 31.2087C15.6099 28.4977 15.4669 25.1336 15.4669 21.3678V2.59064C15.4669 1.75516 15.3462 0.865469 15.6247 0.0669629C16.6759 -0.0214887 17.7328 -0.0223155 18.7842 0.064496Z" fill="#FFBF3F"/>
<path id="Vector_2" fill-rule="evenodd" clip-rule="evenodd" d="M21.7835 0.0645035C22.8211 0.0990069 23.9893 -0.00203832 24.9381 0.118723C25.2215 6.03358 25.0318 12.3822 25.0959 18.6914C25.1328 22.0554 25.1525 25.2076 24.8864 28.1108C24.0953 36.7489 19.9573 42.5504 14.5206 46.6317C10.8238 49.3993 6.25704 51.3562 0.209094 51.472C-0.076791 50.6119 0.0168611 48.8916 0.157339 47.9477C5.43389 47.4006 9.56443 45.8701 12.8373 43.2651C16.0535 40.702 18.6511 37.5598 20.2555 33.3208C21.0885 31.12 21.3867 28.6949 21.5198 25.9026C21.6529 23.1103 21.4015 20.1701 21.4656 17.2767C21.5716 12.5941 21.5198 7.34963 21.5198 2.33186C21.5198 1.57772 21.4434 0.589447 21.6233 0.229626C21.6367 0.19228 21.658 0.158231 21.6856 0.129753C21.7132 0.101275 21.7466 0.0790269 21.7835 0.0645035Z" fill="#FFBF3F"/>
<path id="Vector_3" fill-rule="evenodd" clip-rule="evenodd" d="M27.9917 0.0645035C28.9775 0.0990069 30.0914 -0.00203833 30.991 0.118723C31.1561 7.40386 31.1487 14.7161 31.1487 21.9544C31.1487 25.6512 31.0945 29.1631 30.4094 32.266C28.4377 41.2048 23.6245 47.8615 16.99 52.2089C12.5539 55.1121 7.19108 57.552 0.206623 57.4707C-0.0694038 56.6746 0.00453218 55.0332 0.154868 54.1559C1.38713 53.8503 2.5356 53.9365 3.73089 53.7862C4.39139 53.7024 5.12335 53.5102 5.78384 53.3648C10.22 52.379 14.0548 50.0623 17.096 47.6964C20.0148 45.439 22.4404 42.6076 24.2232 39.377C26.0059 36.1463 27.1081 32.5847 27.4618 28.9118C27.7329 25.9543 27.6713 22.8022 27.6713 19.3888C27.6713 14.0186 27.5062 8.08161 27.6713 2.38363C27.6959 1.59498 27.5826 0.6067 27.829 0.16555C27.8744 0.1194 27.9302 0.0847572 27.9917 0.0645035Z" fill="#FFBF3F"/>
<path id="Vector_4" fill-rule="evenodd" clip-rule="evenodd" d="M36.9354 0.170493C37.1449 8.36504 37.0931 16.5349 37.0931 24.7443C37.0931 28.9882 36.753 32.7909 35.7771 36.1082C34.3575 40.946 32.2232 45.2269 29.463 48.7882C28.5412 49.9761 27.5332 51.0457 26.5178 52.1572C24.492 54.3752 22.1236 56.1398 19.5186 57.8404C16.8325 59.5848 13.908 60.9312 10.8361 61.8378C7.61495 62.7965 4.05617 63.8094 0.103077 63.5211C0.0685733 62.5032 -0.0990143 60.8988 0.209051 60.0486C2.08948 59.8021 3.85162 59.7479 5.52257 59.4694C10.4122 58.6586 14.5427 56.6426 18.0916 54.4196C22.8999 51.4129 26.6189 47.2947 29.4556 42.2646C30.9416 39.5931 32.0395 36.7234 32.7161 33.7422C34.1948 27.3739 33.5615 18.9132 33.6132 11.3151C33.6329 8.42665 33.5738 5.60969 33.665 2.73852C33.6921 1.86608 33.5023 0.946815 33.8227 0.106413C34.742 0.0595866 36.1098 -0.0291338 36.9354 0.170493Z" fill="#FFBF3F"/>
<path id="Vector_5" fill-rule="evenodd" clip-rule="evenodd" d="M42.7247 0.276439C42.8307 4.50556 42.8307 8.86284 42.8307 13.0599C42.8307 17.3507 42.9687 21.7326 42.8307 26.1613C42.7453 30.1057 42.1977 34.0264 41.1991 37.8432C39.9964 42.2325 38.0569 46.2546 35.9374 49.7345C32.7138 55.0234 28.0213 59.2081 22.8902 62.6264C19.9648 64.5734 16.5194 66.163 12.8399 67.4125C10.8988 68.0584 8.9105 68.5528 6.89297 68.8913C4.68966 69.2943 2.45091 69.4711 0.211642 69.4186C-0.0890299 68.5265 -0.0348101 67.1439 0.159887 66.2616C1.12105 65.8697 2.16601 65.9683 3.11731 65.8919C9.30195 65.3827 15.2744 63.3983 20.5341 60.1052C28.0164 55.4374 33.5566 49.037 37.0464 40.1623C37.3742 39.3293 37.5147 38.516 37.7858 37.5844C38.9132 33.827 39.4804 29.924 39.469 26.0011C39.469 19.9778 39.469 13.156 39.469 6.5314C39.469 5.50862 39.4271 4.37001 39.469 3.21661C39.4962 2.36142 39.3532 0.609152 39.6785 0.217292C39.721 0.168913 39.7754 0.132396 39.8363 0.111316C40.7629 0.202503 42.0543 -0.0636657 42.7247 0.276439Z" fill="#FFBF3F"/>
<path id="Vector_6" fill-rule="evenodd" clip-rule="evenodd" d="M48.7751 0.22221C48.9648 8.80615 48.881 18.053 48.881 26.4793C48.8749 30.3507 49.4566 34.2006 50.6062 37.8974C51.5751 41.0886 52.9738 44.1331 54.7639 46.9471C56.5235 49.6704 58.2955 52.337 60.5505 54.4196C62.8469 56.5656 65.3303 58.5022 67.9712 60.2063C70.7838 61.9767 73.8054 63.3906 76.9667 64.4157C80.3111 65.5346 84.0572 66.0989 88.1754 66.4144C88.3208 67.2622 88.4095 68.9159 88.1212 69.6774C84.8187 69.8228 81.6641 69.1673 78.862 68.4674C77.8983 68.2209 76.8903 68.0804 76.0204 67.7847C74.2533 67.1858 72.57 66.4391 70.9681 65.7317C69.401 65.0057 67.8917 64.1612 66.4531 63.2056C63.54 61.3572 60.9079 59.3979 58.5099 56.9975C56.1119 54.597 53.9432 52.1374 52.1934 49.1578C51.3111 47.652 50.483 46.1757 49.7288 44.527C47.5354 39.7877 45.7535 34.2228 45.5194 27.4774C45.443 25.2766 45.5712 22.9106 45.5712 20.5324C45.5712 16.0716 45.4701 11.4925 45.5194 6.74827C45.5367 5.06993 45.5194 3.47538 45.5712 1.696C45.5884 1.20309 45.4061 0.586961 45.7831 0.170457C46.6556 0.111308 47.9692 0.0250478 48.7751 0.22221Z" fill="#FFBF3F"/>
<path id="Vector_7" fill-rule="evenodd" clip-rule="evenodd" d="M54.7195 0.222211C54.9216 2.02131 54.8772 3.86971 54.8797 5.74768C54.8797 11.2534 54.8797 17.3309 54.8797 23.1102C54.8797 25.1583 54.8255 27.0707 54.9832 28.8994C55.3737 33.6378 56.7926 38.234 59.1408 42.368C60.4909 44.8549 62.1332 47.1715 64.0329 49.2687C68.6662 54.3087 74.931 58.1533 83.027 59.738C84.6782 60.0609 86.4009 60.0288 88.237 60.3689C88.4083 61.5027 88.4083 62.6558 88.237 63.7897C84.3357 63.9893 80.7153 63.07 77.504 62.0004C74.2927 60.9308 71.36 59.6912 68.8782 57.9488C66.3964 56.2063 63.9491 54.4122 61.8814 52.2138C59.7767 50.0306 57.9551 47.5913 56.4594 44.9533C54.2414 40.9115 52.255 36.3595 51.6167 30.6936C51.4022 28.7787 51.4392 26.812 51.4589 24.7492C51.5353 17.4443 51.4589 10.1099 51.4589 3.17471C51.4589 2.1889 51.3332 1.14395 51.6167 0.175388C52.5285 0.11131 53.884 0.0225841 54.7195 0.222211Z" fill="#FFBF3F"/>
<path id="Vector_8" fill-rule="evenodd" clip-rule="evenodd" d="M60.7181 0.276463C60.9103 6.77788 60.8216 13.9077 60.8241 20.5866C60.8241 24.1183 60.723 27.4725 61.1913 30.425C62.5542 38.9991 67.2589 44.9534 73.021 49.2096C76.3432 51.6569 80.8311 53.5053 85.9647 54.1559C86.704 54.2471 87.4828 54.1436 88.2271 54.4171C88.3405 55.5019 88.3405 56.5954 88.2271 57.6802C87.4163 57.9266 86.5414 57.7541 85.7626 57.6802C82.0019 57.3075 78.3436 56.2368 74.9754 54.5231C73.7951 53.8879 72.6529 53.1843 71.5546 52.4159C67.1004 49.4635 63.4922 45.4017 61.0853 40.6306C59.2049 36.9683 57.6941 32.7786 57.4575 27.5292C57.3811 25.8336 57.4575 24.0517 57.4033 22.2674C57.2061 15.9287 57.4033 9.24733 57.4033 2.79767C57.4033 1.94741 57.2825 1.04293 57.561 0.21978C58.3817 0.0719084 59.9812 0.000436127 60.7181 0.276463Z" fill="#FFBF3F"/>
<path id="Vector_9" fill-rule="evenodd" clip-rule="evenodd" d="M66.8744 0.222266C67.1529 1.34609 67.0321 2.52906 67.0321 3.69478C67.0321 9.56528 67.0321 15.729 67.0321 21.6858C67.0321 24.0961 66.9114 26.4966 67.0839 28.7886C67.3032 31.6597 68.464 34.2697 69.61 36.4163C70.7527 38.5648 72.271 40.4912 74.093 42.1044C76.8599 44.7049 80.2471 46.5529 83.9314 47.4721C85.2893 47.8098 86.736 47.8664 88.2468 48.2115C88.3863 49.3834 88.3681 50.5687 88.1925 51.7357C82.2654 51.6766 77.7528 49.5472 74.0388 46.8954C70.5687 44.4309 67.3057 40.6306 65.62 36.2166C64.7475 33.9246 63.9268 31.534 63.6212 28.6382C63.3156 25.7424 63.4635 22.6938 63.4635 19.273V2.53892C63.4635 1.76999 63.3674 0.54019 63.6212 0.276486C63.6638 0.228107 63.7181 0.191593 63.779 0.170513C64.7919 0.202552 65.9428 0.103969 66.8744 0.222266Z" fill="#FFBF3F"/>
<path id="Vector_10" fill-rule="evenodd" clip-rule="evenodd" d="M72.925 0.328221C73.1542 4.49573 72.9915 8.76182 73.0827 13.06C73.1739 17.3581 73.0309 21.7819 73.0309 26.0579C73.0309 31.0313 75.0494 34.4964 77.6593 37.1063C79.6161 39.0631 81.849 40.6749 84.974 41.5277C85.9919 41.8037 87.1034 41.8062 88.237 42.1586C88.3824 43.0926 88.4613 44.7808 88.1828 45.6311C83.17 45.4882 79.6013 43.4451 76.5996 41.1062C73.4302 38.2622 70.8005 34.6147 69.864 29.5846C69.551 27.8939 69.6028 25.9938 69.6028 23.9014C69.6028 17.1387 69.4105 9.71559 69.6028 3.22403C69.6274 2.30477 69.4722 0.646145 69.758 0.328221C69.8018 0.281901 69.8558 0.246455 69.9158 0.224711C70.8892 0.28386 72.1215 0.0940912 72.925 0.328221Z" fill="#FFBF3F"/>
</g>
<path id="Vector_11" d="M3.79502 85.3296L3.58554 85.9926H0.973145L4.2485 76.8936H6.83625L10.0845 85.9901H7.49674L7.27986 85.3272L3.79502 85.3296ZM6.40742 82.7591L5.53005 80.1468L4.67486 82.7591H6.40742Z" fill="#FFBF3F"/>
<path id="Vector_12" d="M13.3255 83.395H15.9305L15.6003 85.9926H10.7131V76.8936H13.3255V83.395Z" fill="#FFBF3F"/>
<path id="Vector_13" d="M21.7664 85.9926H19.1639V79.4863H16.5515L16.8965 76.8961H24.3468L24.0338 79.4863H21.7664V85.9926Z" fill="#FFBF3F"/>
<path id="Vector_14" d="M28.2751 81.7019L28.1051 81.4357L24.9998 76.8936H27.9572L29.5369 79.2497L31.1611 76.8936H34.1185L31.0625 81.4677L30.8629 81.766V85.9926H28.2751V81.7019Z" fill="#FFBF3F"/>
<path id="Vector_15" d="M37.3521 81.4357V85.9926H34.7397V76.8936H37.3521L40.6028 81.4332V76.8936H43.198V85.9901H40.6028L37.3521 81.4357Z" fill="#FFBF3F"/>
<path id="Vector_16" d="M53.0337 85.9926H50.4065C49.2003 85.9848 48.0457 85.5022 47.1928 84.6493C46.3399 83.7964 45.8573 82.6418 45.8496 81.4357C45.8409 80.8375 45.9562 80.244 46.1882 79.6926C46.4203 79.1412 46.764 78.6438 47.1977 78.2318C47.6142 77.8054 48.1129 77.4678 48.6636 77.2395C49.2143 77.0112 49.8055 76.8969 50.4016 76.9034H53.0287L52.6837 79.4936H50.4016C49.8832 79.4936 49.3861 79.6995 49.0196 80.066C48.6531 80.4326 48.4472 80.9297 48.4472 81.448C48.4472 81.9663 48.6531 82.4634 49.0196 82.8299C49.3861 83.1964 49.8832 83.4024 50.4016 83.4024V81.4307H53.0287L53.0337 85.9926Z" fill="#FFBF3F"/>
<path id="Vector_17" d="M56.6787 83.395H56.2523V85.9926H53.6375V76.8936H58.1919C60.3525 76.8936 61.4327 77.9772 61.4327 80.1443C61.4327 81.8267 60.7821 82.8561 59.4808 83.2323L61.4327 85.9901H58.5246L56.6787 83.395ZM56.2523 79.4863V80.7925H58.1944C58.3676 80.7925 58.5337 80.7237 58.6562 80.6012C58.7786 80.4787 58.8475 80.3126 58.8475 80.1394C58.8475 79.9661 58.7786 79.8 58.6562 79.6775C58.5337 79.5551 58.3676 79.4863 58.1944 79.4863H56.2523Z" fill="#FFBF3F"/>
<path id="Vector_18" d="M66.643 85.9926C65.4369 85.9855 64.2822 85.503 63.4295 84.6499C62.5769 83.7968 62.095 82.6418 62.0886 81.4357C62.08 80.8378 62.1952 80.2445 62.4267 79.6932C62.6583 79.1419 63.0013 78.6443 63.4342 78.2318C64.2879 77.3811 65.444 76.9034 66.6492 76.9034C67.8544 76.9034 69.0105 77.3811 69.8641 78.2318C70.4988 78.8692 70.9306 79.6802 71.105 80.5625C71.2794 81.4449 71.1886 82.3592 70.844 83.1901C70.4995 84.0209 69.9167 84.7312 69.1691 85.2312C68.4214 85.7313 67.5425 85.9988 66.643 86V85.9926ZM68.6146 81.4357C68.6175 81.1796 68.5677 80.9257 68.4685 80.6896C68.3694 80.4535 68.2228 80.2402 68.0379 80.063C67.8576 79.8767 67.641 79.7294 67.4015 79.6302C67.162 79.531 66.9047 79.4821 66.6455 79.4863C66.1271 79.4863 65.63 79.6922 65.2635 80.0587C64.897 80.4252 64.6911 80.9223 64.6911 81.4406C64.6911 81.959 64.897 82.4561 65.2635 82.8226C65.63 83.1891 66.1271 83.395 66.6455 83.395C67.1684 83.395 67.6699 83.1873 68.0396 82.8175C68.4094 82.4478 68.6171 81.9463 68.6171 81.4234L68.6146 81.4357Z" fill="#FFBF3F"/>
<path id="Vector_19" d="M71.8281 81.4357V76.8936H74.4405V81.4332C74.4405 82.7476 74.8677 83.4049 75.7221 83.4049C76.6044 83.4049 77.0456 82.7476 77.0456 81.4332V76.8936H79.6259V81.4332C79.6259 84.4728 78.3246 85.9918 75.7221 85.9901C73.1196 85.9885 71.8216 84.4704 71.8281 81.4357Z" fill="#FFBF3F"/>
<path id="Vector_20" d="M82.8914 83.395V85.9926H80.2791V76.8936H84.8335C86.9957 76.8936 88.076 77.9772 88.0743 80.1443C88.0727 82.3114 86.9924 83.3942 84.8335 83.3925L82.8914 83.395ZM82.8914 79.4863V80.7925H84.8335C85.0067 80.7925 85.1728 80.7237 85.2953 80.6012C85.4178 80.4787 85.4866 80.3126 85.4866 80.1394C85.4866 79.9661 85.4178 79.8 85.2953 79.6775C85.1728 79.5551 85.0067 79.4863 84.8335 79.4863H82.8914Z" fill="#FFBF3F"/>
</g>
</svg>
