<svg width="1376" height="1807" viewBox="0 0 1376 1807" fill="none" xmlns="http://www.w3.org/2000/svg">
<path fill-rule="evenodd" clip-rule="evenodd" d="M301.918 692.157C306.354 732.6 304.453 775.816 304.453 818.913V1075.99C304.453 1118.89 302.908 1158.5 292.569 1193.52C274.685 1254.64 239.078 1309.09 190.249 1349.98C137.52 1393.58 71.7157 1418.29 3.31675 1420.17C-1.63485 1405.83 0.781533 1379.37 3.31675 1364.36C70.4208 1354.85 124.888 1332.91 164.026 1295.04C195.197 1266.97 219.255 1231.91 234.22 1192.72C250.897 1149.15 248.599 1095.08 248.599 1034.56V732.758C248.599 719.33 246.658 705.03 251.134 692.196C268.032 690.775 285.018 690.761 301.918 692.157Z" fill="#FFEFD0"/>
<path fill-rule="evenodd" clip-rule="evenodd" d="M350.139 692.157C366.816 692.712 385.592 691.088 400.843 693.029C405.399 788.096 402.348 890.134 403.378 991.539C403.973 1045.61 404.289 1096.27 400.011 1142.93C387.296 1281.77 320.786 1375.01 233.4 1440.61C173.981 1485.09 100.578 1516.55 3.36865 1518.41C-1.22643 1504.58 0.278861 1476.93 2.53679 1461.76C87.3477 1452.97 153.739 1428.37 206.344 1386.5C258.039 1345.31 299.791 1294.8 325.579 1226.67C338.968 1191.3 343.761 1152.32 345.9 1107.44C348.039 1062.56 343.999 1015.31 345.029 968.802C346.732 893.541 345.9 809.248 345.9 728.6C345.9 716.479 344.672 700.594 347.564 694.811C347.779 694.211 348.12 693.664 348.564 693.206C349.009 692.748 349.545 692.391 350.139 692.157Z" fill="#FFEFD0"/>
<path fill-rule="evenodd" clip-rule="evenodd" d="M449.911 692.157C465.757 692.712 483.661 691.088 498.12 693.029C500.774 810.12 500.655 927.646 500.655 1043.98C500.655 1103.4 499.784 1159.85 488.772 1209.72C457.081 1353.39 379.718 1460.38 273.08 1530.25C201.777 1576.91 115.58 1616.13 3.31717 1614.82C-1.11946 1602.03 0.0689224 1575.65 2.4853 1561.54C22.2917 1556.63 40.7512 1558.02 59.9634 1555.6C70.5796 1554.26 82.3446 1551.17 92.9609 1548.83C164.264 1532.98 225.901 1495.75 274.783 1457.72C321.699 1421.44 360.685 1375.93 389.34 1324.01C417.995 1272.08 435.71 1214.84 441.395 1155.81C445.752 1108.27 444.762 1057.61 444.762 1002.75C444.762 916.436 442.108 821.013 444.762 729.432C445.158 716.756 443.336 700.872 447.297 693.781C448.027 693.04 448.923 692.483 449.911 692.157Z" fill="#FFEFD0"/>
<path fill-rule="evenodd" clip-rule="evenodd" d="M593.666 693.86C597.033 825.567 596.201 956.878 596.201 1088.82C596.201 1157.03 590.734 1218.15 575.047 1271.47C552.231 1349.23 517.926 1418.03 473.56 1475.27C458.744 1494.36 442.543 1511.55 426.222 1529.42C393.661 1565.07 355.593 1593.43 313.722 1620.76C270.547 1648.8 223.542 1670.44 174.166 1685.01C122.393 1700.42 65.1917 1716.7 1.65285 1712.07C1.09827 1695.71 -1.5954 1669.92 3.3562 1656.25C33.5807 1652.29 61.9039 1651.42 88.7613 1646.94C167.353 1633.91 233.744 1601.51 290.786 1565.78C368.071 1517.46 427.847 1451.27 473.441 1370.42C497.327 1327.48 514.974 1281.36 525.848 1233.44C549.616 1131.09 539.436 995.103 540.267 872.982C540.584 826.557 539.634 781.282 541.099 735.135C541.535 721.112 538.485 706.337 543.635 692.83C558.41 692.077 580.395 690.651 593.666 693.86Z" fill="#FFEFD0"/>
<path fill-rule="evenodd" clip-rule="evenodd" d="M686.722 695.563C688.425 763.536 688.425 833.569 688.425 901.026C688.425 969.99 690.643 1040.42 688.425 1111.6C687.053 1175 678.252 1238.01 662.201 1299.36C642.87 1369.9 611.695 1434.55 577.628 1490.48C525.815 1575.49 450.392 1642.75 367.918 1697.69C320.898 1728.98 265.519 1754.53 206.378 1774.61C175.178 1784.99 143.22 1792.94 110.792 1798.38C75.3778 1804.86 39.3939 1807.7 3.40176 1806.86C-1.43099 1792.52 -0.55951 1770.29 2.5699 1756.11C18.0189 1749.82 34.8147 1751.4 50.1052 1750.17C149.512 1741.99 245.509 1710.09 330.049 1657.16C450.313 1582.14 539.362 1479.27 595.454 1336.63C600.722 1323.24 602.98 1310.17 607.338 1295.2C625.459 1234.81 634.576 1172.07 634.393 1109.02C634.393 1012.22 634.393 902.571 634.393 796.096C634.393 779.658 633.72 761.357 634.393 742.819C634.829 729.074 632.531 700.911 637.76 694.612C638.444 693.835 639.317 693.248 640.296 692.909C655.19 694.375 675.947 690.097 686.722 695.563Z" fill="#FFEFD0"/>
<path fill-rule="evenodd" clip-rule="evenodd" d="M1373.86 52.717C1235.89 55.767 1087.26 54.4203 951.825 54.4203C889.599 54.3222 827.719 63.6714 768.299 82.1482C717.006 97.7213 668.071 120.202 622.841 148.972C579.069 177.255 536.208 205.735 502.735 241.979C468.242 278.887 437.115 318.802 409.724 361.249C381.268 406.453 358.541 455.019 342.066 505.83C324.082 559.582 315.011 619.791 309.94 685.981C296.313 688.318 269.733 689.744 257.493 685.11C255.156 632.031 265.693 581.329 276.943 536.291C280.904 520.803 283.162 504.602 287.915 490.619C297.541 462.218 309.544 435.163 320.913 409.416C332.582 384.229 346.156 359.97 361.516 336.848C391.225 290.028 422.718 247.723 461.3 209.181C499.883 170.64 539.417 135.782 587.309 107.658C611.512 93.477 635.24 80.1676 661.741 68.0466C737.916 32.7926 827.362 4.15365 935.782 0.390588C971.156 -0.837358 1009.18 1.22239 1047.41 1.22239C1119.11 1.2224 1192.71 -0.401625 1268.96 0.390603C1295.94 0.667883 1321.57 0.390572 1350.17 1.22241C1358.09 1.49969 1368 -1.43148 1374.69 4.62904C1375.64 18.6514 1377.03 39.7641 1373.86 52.717Z" fill="#FFEFD0"/>
<path fill-rule="evenodd" clip-rule="evenodd" d="M1373.87 148.267C1344.95 151.515 1315.24 150.802 1285.06 150.842C1196.56 150.842 1098.88 150.842 1005.98 150.842C973.066 150.842 942.326 149.97 912.933 152.505C836.773 158.783 762.896 181.587 696.45 219.33C656.478 241.029 619.243 267.425 585.534 297.958C504.526 372.427 442.73 473.119 417.259 603.241C412.07 629.781 412.585 657.469 407.118 686.98C388.894 689.733 370.36 689.733 352.136 686.98C348.927 624.275 363.702 566.086 380.894 514.473C398.086 462.859 418.012 415.722 446.018 375.833C474.024 335.945 502.862 296.611 538.197 263.377C573.287 229.55 612.495 200.272 654.896 176.233C719.861 140.583 793.026 108.656 884.095 98.3965C914.874 94.9504 946.485 95.5446 979.641 95.8615C1097.05 97.0895 1214.94 95.8615 1326.41 95.8615C1342.26 95.8615 1359.05 93.8413 1374.62 98.3966C1375.65 113.053 1377.08 134.839 1373.87 148.267Z" fill="#FFEFD0"/>
<path fill-rule="evenodd" clip-rule="evenodd" d="M1372.99 244.668C1268.49 247.758 1153.89 246.332 1046.54 246.371C989.775 246.371 935.862 244.747 888.406 252.273C750.593 274.178 654.888 349.796 586.477 442.407C547.142 495.803 517.432 567.935 506.974 650.445C505.509 662.329 507.173 674.846 502.775 686.808C485.341 688.63 467.763 688.63 450.328 686.808C446.367 673.776 449.14 659.714 450.328 647.197C456.319 586.753 473.527 527.955 501.072 473.819C511.283 454.849 522.591 436.491 534.941 418.839C582.396 347.249 647.682 289.255 724.369 250.57C783.234 220.347 850.575 196.065 934.951 192.263C962.204 191.035 990.844 192.263 1019.52 191.391C1121.41 188.222 1228.8 191.391 1332.46 191.391C1346.13 191.391 1360.67 189.45 1373.9 193.926C1376.28 207.117 1377.43 232.824 1372.99 244.668Z" fill="#FFEFD0"/>
<path fill-rule="evenodd" clip-rule="evenodd" d="M1373.86 343.62C1355.79 348.096 1336.78 346.155 1318.04 346.155C1223.68 346.155 1124.61 346.155 1028.87 346.155C990.128 346.155 951.545 344.214 914.705 346.987C868.556 350.512 826.607 369.169 792.104 387.588C757.571 405.955 726.606 430.358 700.678 459.641C658.879 504.113 629.176 558.554 614.401 617.769C608.974 639.595 608.063 662.846 602.517 687.128C583.681 689.372 564.629 689.079 545.871 686.257C546.822 590.992 581.047 518.464 623.67 458.77C663.283 402.997 724.366 350.552 795.312 323.458C832.152 309.435 870.577 296.245 917.122 291.333C963.667 286.421 1012.67 288.798 1067.65 288.798H1336.62C1348.98 288.798 1368.75 287.253 1372.99 291.333C1373.76 292.016 1374.35 292.89 1374.69 293.868C1374.17 310.148 1375.76 328.647 1373.86 343.62Z" fill="#FFEFD0"/>
<path fill-rule="evenodd" clip-rule="evenodd" d="M1372.16 440.872C1305.18 444.555 1236.61 441.941 1167.52 443.407C1098.44 444.872 1027.33 442.575 958.605 442.575C878.667 442.575 822.971 475.016 781.021 516.965C749.569 548.416 723.662 584.304 709.956 634.531C705.519 650.89 705.48 668.755 699.815 686.976C684.802 689.313 657.667 690.581 644.001 686.105C646.298 605.535 679.137 548.178 716.73 499.932C762.443 448.992 821.07 406.727 901.919 391.674C929.094 386.644 959.635 387.476 993.266 387.476C1101.96 387.476 1221.28 384.386 1325.62 387.476C1340.39 387.872 1367.05 385.376 1372.16 389.971C1372.91 390.675 1373.48 391.543 1373.83 392.506C1372.88 408.153 1375.93 427.958 1372.16 440.872Z" fill="#FFEFD0"/>
</svg>
