<svg width="1213" height="762" viewBox="0 0 1213 762" fill="none" xmlns="http://www.w3.org/2000/svg">
<g filter="url(#filter0_f_37_6990)">
<path fill-rule="evenodd" clip-rule="evenodd" d="M1210.7 67.4265C1062.35 70.7061 902.541 69.2581 756.917 69.2581C690.01 69.1526 623.474 79.2054 559.585 99.0729C504.433 115.818 451.817 139.991 403.185 170.927C356.12 201.338 310.034 231.962 274.044 270.934C236.956 310.62 203.487 353.54 174.036 399.181C143.439 447.788 119.003 500.009 101.288 554.644C81.9508 612.442 72.1971 677.183 66.7452 748.355C52.0934 750.868 23.5138 752.402 10.3526 747.418C7.83957 690.344 19.1692 635.826 31.2655 587.398C35.5248 570.744 37.9526 553.324 43.0637 538.288C53.4138 507.749 66.3192 478.659 78.5432 450.973C91.0903 423.891 105.685 397.806 122.201 372.944C154.145 322.599 188.006 277.11 229.492 235.667C270.977 194.225 313.484 156.743 364.979 126.503C391.003 111.254 416.516 96.9433 445.011 83.9099C526.916 46.0025 623.091 15.2079 739.667 11.1616C777.702 9.84123 818.591 12.056 859.693 12.056C936.786 12.056 1015.92 10.3098 1097.91 11.1616C1126.92 11.4598 1154.48 11.1616 1185.23 12.056C1193.75 12.3542 1204.4 9.20239 1211.59 15.7191C1212.62 30.7969 1214.11 53.4987 1210.7 67.4265Z" fill="#FFF8E9"/>
<path fill-rule="evenodd" clip-rule="evenodd" d="M1210.7 170.16C1179.61 173.653 1147.66 172.886 1115.21 172.929C1020.05 172.929 915.021 172.929 815.141 172.929C779.747 172.929 746.695 171.992 715.091 174.717C633.201 181.467 553.767 205.988 482.322 246.571C439.344 269.904 399.307 298.287 363.062 331.118C275.96 411.192 209.516 519.463 182.129 659.38C176.549 687.917 177.103 717.689 171.225 749.42C151.63 752.381 131.702 752.381 112.107 749.42C108.657 681.996 124.544 619.428 143.029 563.929C161.514 508.431 182.938 457.746 213.051 414.855C243.164 371.964 274.172 329.67 312.164 293.934C349.895 257.561 392.052 226.079 437.642 200.231C507.494 161.897 586.163 127.567 684.083 116.536C717.178 112.83 751.167 113.469 786.817 113.81C913.062 115.13 1039.82 113.81 1159.67 113.81C1176.71 113.81 1194.77 111.638 1211.51 116.536C1212.62 132.295 1214.15 155.721 1210.7 170.16Z" fill="#FFF8E9"/>
<path fill-rule="evenodd" clip-rule="evenodd" d="M1209.76 273.831C1097.4 277.153 974.182 275.62 858.756 275.662C797.721 275.662 739.752 273.916 688.726 282.009C540.546 305.562 437.642 386.872 364.085 486.453C321.79 543.868 289.846 621.43 278.601 710.15C277.025 722.928 278.814 736.387 274.087 749.25C255.34 751.209 236.44 751.209 217.694 749.25C213.434 735.237 216.416 720.117 217.694 706.658C224.135 641.664 242.638 578.441 272.255 520.229C283.234 499.832 295.393 480.092 308.672 461.111C359.697 384.133 429.894 321.774 512.35 280.177C575.643 247.679 648.05 221.57 738.772 217.481C768.076 216.16 798.871 217.481 829.708 216.544C939.256 213.136 1054.72 216.544 1166.19 216.544C1180.88 216.544 1196.52 214.457 1210.74 219.27C1213.3 233.453 1214.53 261.096 1209.76 273.831Z" fill="#FFF8E9"/>
<path fill-rule="evenodd" clip-rule="evenodd" d="M1210.7 380.228C1191.28 385.041 1170.83 382.954 1150.69 382.954C1049.23 382.954 942.706 382.954 839.759 382.954C798.104 382.954 756.618 380.867 717.007 383.848C667.387 387.639 622.281 407.7 585.183 427.506C548.052 447.255 514.758 473.494 486.879 504.982C441.937 552.801 409.998 611.34 394.112 675.012C388.277 698.48 387.297 723.482 381.334 749.591C361.081 752.004 340.596 751.689 320.427 748.654C321.449 646.219 358.249 568.232 404.079 504.045C446.672 444.074 512.349 387.682 588.633 358.548C628.244 343.47 669.559 329.287 719.605 324.006C769.652 318.724 822.339 321.28 881.458 321.28L1170.66 321.28C1183.95 321.28 1205.2 319.619 1209.76 324.006C1210.6 324.74 1211.23 325.68 1211.59 326.731C1211.04 344.237 1212.74 364.128 1210.7 380.228Z" fill="#FFF8E9"/>
<path fill-rule="evenodd" clip-rule="evenodd" d="M1208.87 484.792C1136.84 488.753 1063.12 485.942 988.834 487.518C914.552 489.094 838.098 486.624 764.2 486.624C678.248 486.624 618.363 521.507 573.257 566.613C539.439 600.431 511.583 639.02 496.846 693.028C492.076 710.618 492.033 729.828 485.942 749.42C469.8 751.933 440.624 753.296 425.929 748.483C428.4 661.85 463.709 600.176 504.129 548.298C553.281 493.524 616.318 448.077 703.25 431.892C732.469 426.483 765.307 427.377 801.469 427.377C918.343 427.377 1046.63 424.055 1158.82 427.377C1174.71 427.803 1203.37 425.12 1208.87 430.061C1209.67 430.817 1210.28 431.751 1210.66 432.786C1209.63 449.61 1212.91 470.907 1208.87 484.792Z" fill="#FFF8E9"/>
</g>
<defs>
<filter id="filter0_f_37_6990" x="0" y="0.741619" width="1223" height="760.96" filterUnits="userSpaceOnUse" color-interpolation-filters="sRGB">
<feFlood flood-opacity="0" result="BackgroundImageFix"/>
<feBlend mode="normal" in="SourceGraphic" in2="BackgroundImageFix" result="shape"/>
<feGaussianBlur stdDeviation="5" result="effect1_foregroundBlur_37_6990"/>
</filter>
</defs>
</svg>
