<svg width="182" height="182" viewBox="0 0 182 182" fill="none" xmlns="http://www.w3.org/2000/svg">
<g id="Group 21" filter="url(#filter0_d_32_344)">
<rect id="Rectangle 13" x="13" y="11" width="152" height="152" rx="4" fill="#FFEFD0"/>
<path id="Vector" fill-rule="evenodd" clip-rule="evenodd" d="M81.5915 104.842C81.6129 103.057 81.0066 101.322 79.8789 99.94C78.738 98.5742 77.1443 97.6651 75.3891 97.3789C74.907 97.293 74.4184 97.2485 73.9287 97.246C71.5391 97.246 69.2105 98.2109 67.3851 99.7712C65.5597 101.332 64.2374 103.481 63.8219 105.873C63.7339 106.379 63.6895 106.891 63.6892 107.404C63.6675 109.189 64.2738 110.924 65.4017 112.306C66.5424 113.672 68.1362 114.581 69.8916 114.867C70.3736 114.953 70.8622 114.998 71.3519 115C73.7415 115 76.0701 114.036 77.8955 112.474C79.7209 110.913 81.0432 108.766 81.4587 106.373C81.5475 105.867 81.5919 105.355 81.5915 104.842ZM74.2991 96.3568C79.7754 96.3568 83.4395 100.813 82.481 106.312C82.4717 106.359 82.4637 106.407 82.4544 106.455H113.785C113.793 106.407 113.8 106.359 113.809 106.312C114.766 100.813 119.981 96.3568 125.458 96.3568C130.936 96.3568 134.599 100.813 133.64 106.312C133.632 106.359 133.623 106.407 133.612 106.455H136.489C139.893 106.455 143.163 103.664 143.758 100.243L145.679 89.2117C146.122 86.6625 146.21 87.2752 145.214 85.1966C142.609 79.7766 139.022 69.8777 134.859 69.8777H111.565L107.125 95.3866C107.057 95.7284 106.876 96.0374 106.611 96.2631C106.346 96.4887 106.012 96.6178 105.664 96.6293C104.982 96.6293 104.524 96.0737 104.643 95.3866L110.323 62.7751C110.868 59.6425 109.128 57.9971 105.942 57.9971H66.347C63.028 57.9971 59.8419 60.6552 59.1289 63.95H49.4735C48.6597 63.95 47.9999 64.6451 47.9999 65.5023C47.9999 66.3596 48.6637 67.056 49.4735 67.056H72.0648C72.361 67.0522 72.6491 66.959 72.8916 66.7888C73.1341 66.6186 73.3197 66.3792 73.4242 66.1018H74.396C75.2085 66.1018 75.8683 66.7969 75.8683 67.6554C75.8683 68.514 75.2045 69.2078 74.396 69.2078H58.2076L57.9063 70.9356H55.1953C54.3815 70.9356 53.7217 71.6307 53.7217 72.4893C53.7217 73.3479 54.3855 74.0536 55.1953 74.0536H72.6728C72.97 74.0495 73.259 73.9555 73.5018 73.784C73.7446 73.6125 73.93 73.3716 74.0336 73.0927H77.5955C78.4093 73.0927 79.0704 73.7891 79.0704 74.6464C79.0704 75.5036 78.4066 76.2001 77.5955 76.2001H56.9902L56.811 77.2314H49.4616C48.6478 77.2314 47.988 77.9265 47.988 78.7838C47.988 79.641 48.6517 80.3375 49.4616 80.3375H63.4648C63.7609 80.3336 64.049 80.2405 64.2915 80.0703C64.534 79.9 64.7197 79.6606 64.8242 79.3832H65.0778C65.8916 79.3832 66.5514 80.0783 66.5514 80.9369C66.5514 81.7955 65.8876 82.4892 65.0778 82.4892H55.895L55.5936 84.217H45.3713C44.5575 84.217 43.8977 84.9122 43.8977 85.7694C43.8977 86.6267 44.5615 87.3231 45.3713 87.3231H73.2782C73.5742 87.3191 73.8621 87.226 74.1043 87.0557C74.3466 86.8855 74.532 86.6461 74.6363 86.3688H76.1033C76.9184 86.3688 77.5782 87.0652 77.5782 87.9225C77.5782 88.7798 76.9144 89.4749 76.1033 89.4749H54.6776L54.3975 91.0897H45.4403C44.6265 91.0897 43.9667 91.7848 43.9667 92.642C43.9667 93.4993 44.6305 94.1957 45.4403 94.1957H62.1412C62.4373 94.1919 62.7255 94.0987 62.968 93.9285C63.2104 93.7583 63.3961 93.5189 63.5006 93.2415H64.9132C65.727 93.2415 66.3868 93.9366 66.3868 94.7952C66.3868 95.6537 65.723 96.3475 64.9132 96.3475H53.4815L52.8031 100.24C52.2083 103.657 54.5063 106.452 57.9089 106.452H62.6284C62.6346 106.405 62.6426 106.357 62.6523 106.309C63.6095 100.811 68.8242 96.3542 74.3005 96.3542L74.2991 96.3568ZM41.3129 94.1984C42.1267 94.1984 42.7865 93.5033 42.7865 92.6447C42.7865 91.7861 42.1227 91.0923 41.3129 91.0923H39.3216C38.5091 91.0923 37.848 91.7874 37.848 92.6447C37.848 93.502 38.5117 94.1984 39.3216 94.1984H41.3129ZM39.0959 67.0587H44.1632C44.977 67.0587 45.6368 66.3636 45.6368 65.505C45.6368 64.6464 44.977 63.9527 44.1632 63.9527H39.0972C38.2834 63.9527 37.6236 64.6478 37.6236 65.505C37.6236 66.3623 38.2874 67.0587 39.0972 67.0587H39.0959ZM38.6551 87.3257H40.5788C41.3926 87.3257 42.0524 86.6306 42.0524 85.7721C42.0524 84.9135 41.3886 84.2197 40.5788 84.2197H38.6564C37.8426 84.2197 37.1828 84.9148 37.1828 85.7721C37.1828 86.6293 37.8466 87.3257 38.6564 87.3257H38.6551ZM34.8052 94.1984C35.619 94.1984 36.2788 93.5033 36.2788 92.6447C36.2788 91.7861 35.615 91.0923 34.8052 91.0923H33.4736C32.6598 91.0923 32 91.7874 32 92.6447C32 93.502 32.6638 94.1984 33.4736 94.1984H34.8052ZM113.149 87.0599L115.603 72.9717H132.728C134.534 75.5089 136.168 79.1852 137.585 82.3417C139.637 86.919 139.31 87.0666 134.198 87.0666L113.149 87.0599ZM118.813 99.9094C117.034 101.433 115.719 103.559 115.321 105.906C115.234 106.403 115.189 106.906 115.188 107.411C115.168 109.166 115.763 110.873 116.872 112.234C117.993 113.578 119.559 114.474 121.285 114.759C121.762 114.843 122.247 114.885 122.732 114.884C125.081 114.884 127.368 113.935 129.162 112.403C130.957 110.87 132.256 108.758 132.665 106.406C132.753 105.909 132.797 105.405 132.797 104.9C132.817 103.145 132.221 101.438 131.113 100.078C129.992 98.7348 128.426 97.8388 126.701 97.553C126.223 97.4694 125.739 97.4276 125.254 97.428C122.903 97.428 120.615 98.3757 118.822 99.9094H118.813ZM118.205 106.401C118.491 104.747 119.433 103.24 120.719 102.14C122.005 101.039 123.608 100.372 125.245 100.372C125.56 100.371 125.874 100.397 126.185 100.45H126.191C127.225 100.614 128.165 101.146 128.84 101.947C129.511 102.781 129.868 103.824 129.847 104.895C129.847 105.234 129.817 105.572 129.758 105.906C129.472 107.56 128.532 109.067 127.245 110.167C125.959 111.268 124.355 111.935 122.72 111.935C122.404 111.936 122.089 111.91 121.778 111.856H121.772C120.738 111.692 119.798 111.161 119.123 110.36C118.453 109.525 118.096 108.482 118.116 107.411C118.117 107.072 118.146 106.734 118.205 106.401ZM77.6181 101.814C78.3058 102.671 78.6717 103.742 78.6522 104.842C78.6518 105.189 78.6211 105.536 78.5606 105.878C78.2672 107.573 77.3021 109.117 75.9838 110.244C74.6655 111.371 73.026 112.056 71.3479 112.056C71.0227 112.057 70.698 112.03 70.3775 111.975C69.3153 111.806 68.3492 111.26 67.656 110.437C66.9673 109.58 66.6012 108.509 66.6218 107.409C66.6218 107.062 66.652 106.715 66.712 106.373C67.0068 104.679 67.9693 103.134 69.2889 102.008C70.6085 100.882 72.2467 100.196 73.9247 100.196C74.2499 100.195 74.5746 100.222 74.8952 100.276C75.9573 100.446 76.9233 100.992 77.6181 101.814Z" fill="#444A5D"/>
</g>
<defs>
<filter id="filter0_d_32_344" x="0" y="0" width="182" height="182" filterUnits="userSpaceOnUse" color-interpolation-filters="sRGB">
<feFlood flood-opacity="0" result="BackgroundImageFix"/>
<feColorMatrix in="SourceAlpha" type="matrix" values="0 0 0 0 0 0 0 0 0 0 0 0 0 0 0 0 0 0 127 0" result="hardAlpha"/>
<feOffset dx="2" dy="4"/>
<feGaussianBlur stdDeviation="7.5"/>
<feComposite in2="hardAlpha" operator="out"/>
<feColorMatrix type="matrix" values="0 0 0 0 0 0 0 0 0 0 0 0 0 0 0 0 0 0 0.15 0"/>
<feBlend mode="normal" in2="BackgroundImageFix" result="effect1_dropShadow_32_344"/>
<feBlend mode="normal" in="SourceGraphic" in2="effect1_dropShadow_32_344" result="shape"/>
</filter>
</defs>
</svg>
