<svg width="24" height="24" viewBox="0 0 24 24" fill="none" xmlns="http://www.w3.org/2000/svg">
<g id="instagram-logo-svgrepo-com 2">
<g id="Group">
<path id="Vector" d="M16.0326 3H7.96728C5.22832 3 3 5.22843 3 7.96739V16.0328C3 18.7718 5.22832 21.0001 7.96728 21.0001H16.0326C18.7718 21.0001 21.0001 18.7717 21.0001 16.0328V7.96739C21.0002 5.22843 18.7718 3 16.0326 3ZM19.4032 16.0328C19.4032 17.8912 17.8912 19.4031 16.0328 19.4031H7.96728C6.10894 19.4032 4.59706 17.8912 4.59706 16.0328V7.96739C4.59706 6.10905 6.10894 4.59706 7.96728 4.59706H16.0326C17.8911 4.59706 19.4031 6.10905 19.4031 7.96739V16.0328H19.4032Z" fill="#444A5D"/>
<path id="Vector_2" d="M11.9995 7.36203C9.44198 7.36203 7.36133 9.44268 7.36133 12.0002C7.36133 14.5576 9.44198 16.6382 11.9995 16.6382C14.557 16.6382 16.6377 14.5576 16.6377 12.0002C16.6377 9.44268 14.557 7.36203 11.9995 7.36203ZM11.9995 15.041C10.3227 15.041 8.95839 13.6769 8.95839 12.0001C8.95839 10.3232 10.3226 8.95898 11.9995 8.95898C13.6764 8.95898 15.0406 10.3232 15.0406 12.0001C15.0406 13.6769 13.6763 15.041 11.9995 15.041Z" fill="#444A5D"/>
<path id="Vector_3" d="M16.8323 6.00778C16.5246 6.00778 16.2223 6.13235 16.005 6.35062C15.7867 6.56782 15.6611 6.87019 15.6611 7.17896C15.6611 7.48677 15.7868 7.78904 16.005 8.0073C16.2222 8.2245 16.5246 8.35014 16.8323 8.35014C17.1411 8.35014 17.4424 8.2245 17.6607 8.0073C17.8789 7.78904 18.0035 7.48666 18.0035 7.17896C18.0035 6.87019 17.8789 6.56782 17.6607 6.35062C17.4435 6.13235 17.1411 6.00778 16.8323 6.00778Z" fill="#444A5D"/>
</g>
</g>
</svg>
