<svg width="24" height="25" viewBox="0 0 24 25" fill="none" xmlns="http://www.w3.org/2000/svg">
<g id="Frame 41">
<path id="Vector" d="M12.0027 6.3467C8.59743 6.3467 5.85075 9.094 5.85075 12.5C5.85075 15.906 8.59743 18.6533 12.0027 18.6533C15.4079 18.6533 18.1546 15.906 18.1546 12.5C18.1546 9.094 15.4079 6.3467 12.0027 6.3467ZM12.0027 16.5004C9.80212 16.5004 8.00312 14.7064 8.00312 12.5C8.00312 10.2936 9.79677 8.49955 12.0027 8.49955C14.2086 8.49955 16.0022 10.2936 16.0022 12.5C16.0022 14.7064 14.2032 16.5004 12.0027 16.5004ZM19.8412 6.095C19.8412 6.89295 19.1987 7.53024 18.4062 7.53024C17.6085 7.53024 16.9713 6.88759 16.9713 6.095C16.9713 5.30241 17.6138 4.65977 18.4062 4.65977C19.1987 4.65977 19.8412 5.30241 19.8412 6.095ZM23.9157 7.55166C23.8247 5.62909 23.3856 3.92608 21.9775 2.52298C20.5747 1.11988 18.8721 0.680743 16.9499 0.584347C14.9689 0.471884 9.03112 0.471884 7.05008 0.584347C5.1333 0.675388 3.43068 1.11453 2.02253 2.51763C0.614389 3.92073 0.180703 5.62373 0.0843279 7.5463C-0.0281093 9.52778 -0.0281093 15.4669 0.0843279 17.4483C0.175349 19.3709 0.614389 21.0739 2.02253 22.477C3.43068 23.8801 5.12794 24.3193 7.05008 24.4157C9.03112 24.5281 14.9689 24.5281 16.9499 24.4157C18.8721 24.3246 20.5747 23.8855 21.9775 22.477C23.3803 21.0739 23.8193 19.3709 23.9157 17.4483C24.0281 15.4669 24.0281 9.53314 23.9157 7.55166ZM21.3564 19.5744C20.9388 20.6241 20.1303 21.4327 19.0755 21.8558C17.496 22.4824 13.7481 22.3378 12.0027 22.3378C10.2572 22.3378 6.50396 22.477 4.92984 21.8558C3.88042 21.4381 3.07195 20.6294 2.64897 19.5744C2.02253 17.9946 2.16709 14.2458 2.16709 12.5C2.16709 10.7542 2.02789 7.00006 2.64897 5.42558C3.06659 4.37593 3.87507 3.56728 4.92984 3.1442C6.50931 2.51763 10.2572 2.66222 12.0027 2.66222C13.7481 2.66222 17.5014 2.52298 19.0755 3.1442C20.1249 3.56192 20.9334 4.37058 21.3564 5.42558C21.9828 7.00541 21.8383 10.7542 21.8383 12.5C21.8383 14.2458 21.9828 17.9999 21.3564 19.5744Z" fill="#E6E4E1"/>
</g>
</svg>
