<svg width="375" height="2662" viewBox="0 0 375 2662" fill="none" xmlns="http://www.w3.org/2000/svg">
<path fill-rule="evenodd" clip-rule="evenodd" d="M84.5474 2339.33C85.8339 2351.04 85.2825 2363.54 85.2825 2376.02V2450.42C85.2825 2462.84 84.8345 2474.3 81.8365 2484.44C76.6506 2502.13 66.3255 2517.89 52.1668 2529.72C36.8767 2542.35 17.7955 2549.5 -2.03824 2550.04C-3.47406 2545.89 -2.77338 2538.23 -2.03824 2533.89C17.42 2531.14 33.214 2524.78 44.5627 2513.82C53.6014 2505.7 60.5777 2495.55 64.9169 2484.21C69.7527 2471.6 69.0865 2455.95 69.0865 2438.43V2351.08C69.0865 2347.2 68.5236 2343.06 69.8216 2339.34C74.7214 2338.93 79.647 2338.93 84.5474 2339.33Z" fill="#FFEFD0"/>
<path fill-rule="evenodd" clip-rule="evenodd" d="M98.5301 2339.33C103.366 2339.49 108.811 2339.02 113.233 2339.58C114.554 2367.1 113.669 2396.63 113.968 2425.98C114.14 2441.63 114.232 2456.29 112.992 2469.8C109.304 2509.98 90.0185 2536.97 64.6792 2555.96C47.4494 2568.83 26.1648 2577.93 -2.02319 2578.47C-3.35563 2574.47 -2.91914 2566.47 -2.26441 2562.08C22.3283 2559.53 41.5798 2552.41 56.8339 2540.3C71.8238 2528.37 83.9307 2513.75 91.4084 2494.04C95.2909 2483.8 96.6807 2472.52 97.301 2459.53C97.9213 2446.54 96.7497 2432.86 97.0483 2419.4C97.5422 2397.62 97.301 2373.22 97.301 2349.88C97.301 2346.37 96.9449 2341.77 97.7834 2340.1C97.8459 2339.93 97.9448 2339.77 98.0736 2339.63C98.2023 2339.5 98.358 2339.4 98.5301 2339.33Z" fill="#FFEFD0"/>
<path fill-rule="evenodd" clip-rule="evenodd" d="M127.461 2339.33C132.056 2339.49 137.248 2339.02 141.44 2339.58C142.21 2373.47 142.176 2407.49 142.176 2441.16C142.176 2458.36 141.923 2474.69 138.73 2489.13C129.54 2530.71 107.107 2561.68 76.1853 2581.9C55.5095 2595.41 30.5148 2606.76 -2.03812 2606.38C-3.32461 2602.67 -2.98001 2595.04 -2.27934 2590.96C3.46394 2589.54 8.81667 2589.94 14.3876 2589.24C17.466 2588.85 20.8776 2587.95 23.9559 2587.28C44.6317 2582.69 62.5048 2571.92 76.6792 2560.91C90.2832 2550.41 101.588 2537.24 109.897 2522.21C118.206 2507.18 123.343 2490.61 124.992 2473.53C126.255 2459.77 125.968 2445.1 125.968 2429.23C125.968 2404.24 125.198 2376.63 125.968 2350.12C126.083 2346.45 125.554 2341.85 126.703 2339.8C126.915 2339.59 127.175 2339.43 127.461 2339.33Z" fill="#FFEFD0"/>
<path fill-rule="evenodd" clip-rule="evenodd" d="M169.146 2339.82C170.122 2377.94 169.881 2415.95 169.881 2454.14C169.881 2473.88 168.296 2491.57 163.747 2507C157.131 2529.51 147.183 2549.42 134.319 2565.99C130.023 2571.51 125.325 2576.49 120.592 2581.66C111.15 2591.98 100.112 2600.19 87.9703 2608.1C75.4509 2616.21 61.8205 2622.48 47.5032 2626.69C32.4903 2631.15 15.9037 2635.86 -2.52072 2634.52C-2.68153 2629.79 -3.46262 2622.32 -2.0268 2618.37C6.73744 2617.22 14.9503 2616.97 22.7382 2615.68C45.5275 2611.9 64.779 2602.53 81.3196 2592.18C103.73 2578.2 121.063 2559.04 134.284 2535.64C141.21 2523.21 146.327 2509.86 149.481 2496C156.373 2466.37 153.421 2427.01 153.662 2391.67C153.754 2378.23 153.478 2365.13 153.903 2351.77C154.029 2347.71 153.145 2343.44 154.638 2339.53C158.923 2339.31 165.298 2338.9 169.146 2339.82Z" fill="#FFEFD0"/>
<path fill-rule="evenodd" clip-rule="evenodd" d="M196.129 2340.32C196.623 2359.99 196.623 2380.26 196.623 2399.78C196.623 2419.74 197.267 2440.13 196.623 2460.73C196.225 2479.08 193.673 2497.32 189.019 2515.07C183.414 2535.49 174.374 2554.2 164.495 2570.39C149.471 2594.99 127.601 2614.46 103.686 2630.36C90.0511 2639.42 73.9929 2646.81 56.8435 2652.63C47.7965 2655.63 38.5297 2657.93 29.1264 2659.5C18.8574 2661.38 8.42308 2662.2 -2.01359 2661.96C-3.41495 2657.81 -3.16224 2651.38 -2.2548 2647.27C2.22495 2645.45 7.09524 2645.91 11.529 2645.55C40.3541 2643.18 68.1903 2633.95 92.7045 2618.63C127.578 2596.92 153.399 2567.15 169.664 2525.86C171.192 2521.99 171.847 2518.2 173.11 2513.87C178.365 2496.39 181.009 2478.23 180.956 2459.99C180.956 2431.97 180.956 2400.23 180.956 2369.41C180.956 2364.66 180.76 2359.36 180.956 2353.99C181.082 2350.02 180.416 2341.86 181.932 2340.04C182.13 2339.82 182.383 2339.65 182.667 2339.55C186.986 2339.97 193.005 2338.73 196.129 2340.32Z" fill="#FFEFD0"/>
<path fill-rule="evenodd" clip-rule="evenodd" d="M395.379 2154.26C355.372 2155.14 312.274 2154.75 273.002 2154.75C254.958 2154.72 237.014 2157.43 219.784 2162.78C204.911 2167.28 190.721 2173.79 177.606 2182.12C164.913 2190.3 152.485 2198.55 142.779 2209.04C132.777 2219.72 123.751 2231.27 115.808 2243.56C107.557 2256.64 100.967 2270.7 96.1892 2285.4C90.9743 2300.96 88.3439 2318.39 86.8736 2337.54C82.9222 2338.22 75.2148 2338.63 71.6654 2337.29C70.9877 2321.93 74.0431 2307.25 77.3053 2294.22C78.454 2289.74 79.1087 2285.05 80.4871 2281C83.2783 2272.78 86.7587 2264.95 90.0553 2257.5C93.4391 2250.21 97.3751 2243.19 101.829 2236.49C110.444 2222.94 119.576 2210.7 130.764 2199.54C141.952 2188.39 153.415 2178.3 167.302 2170.16C174.321 2166.06 181.201 2162.2 188.886 2158.69C210.974 2148.49 236.911 2140.2 268.35 2139.11C278.607 2138.76 289.634 2139.35 300.719 2139.35C321.509 2139.35 342.851 2138.88 364.963 2139.11C372.785 2139.19 380.217 2139.11 388.51 2139.35C390.808 2139.43 393.679 2138.59 395.621 2140.34C395.896 2144.4 396.298 2150.51 395.379 2154.26Z" fill="#FFEFD0"/>
<path fill-rule="evenodd" clip-rule="evenodd" d="M395.382 2181.91C386.996 2182.85 378.382 2182.65 369.629 2182.66C343.968 2182.66 315.642 2182.66 288.706 2182.66C279.161 2182.66 270.247 2182.41 261.724 2183.14C239.64 2184.96 218.218 2191.56 198.95 2202.48C187.36 2208.76 176.562 2216.4 166.788 2225.24C143.298 2246.79 125.379 2275.93 117.993 2313.6C116.488 2321.28 116.638 2329.29 115.052 2337.83C109.768 2338.63 104.394 2338.63 99.1091 2337.83C98.1787 2319.68 102.463 2302.84 107.448 2287.9C112.433 2272.97 118.211 2259.32 126.332 2247.78C134.453 2236.23 142.815 2224.85 153.061 2215.23C163.237 2205.44 174.606 2196.96 186.901 2190.01C205.739 2179.69 226.954 2170.45 253.362 2167.48C262.287 2166.48 271.453 2166.65 281.067 2166.75C315.114 2167.1 349.298 2166.75 381.621 2166.75C386.215 2166.75 391.086 2166.16 395.6 2167.48C395.899 2171.72 396.312 2178.03 395.382 2181.91Z" fill="#FFEFD0"/>
<path fill-rule="evenodd" clip-rule="evenodd" d="M395.127 2209.81C364.825 2210.71 331.595 2210.3 300.466 2210.31C284.006 2210.31 268.373 2209.84 254.612 2212.02C214.65 2218.36 186.899 2240.24 167.061 2267.05C155.655 2282.5 147.04 2303.38 144.008 2327.26C143.583 2330.7 144.065 2334.32 142.79 2337.78C137.735 2338.31 132.638 2338.31 127.582 2337.78C126.433 2334.01 127.237 2329.94 127.582 2326.32C129.319 2308.82 134.309 2291.81 142.296 2276.14C145.257 2270.65 148.536 2265.33 152.117 2260.22C165.878 2239.5 184.809 2222.72 207.046 2211.52C224.115 2202.77 243.642 2195.75 268.109 2194.65C276.011 2194.29 284.316 2194.65 292.632 2194.39C322.176 2193.48 353.316 2194.39 383.376 2194.39C387.339 2194.39 391.554 2193.83 395.391 2195.13C396.08 2198.95 396.413 2206.39 395.127 2209.81Z" fill="#FFEFD0"/>
<path fill-rule="evenodd" clip-rule="evenodd" d="M395.379 2238.45C390.141 2239.75 384.627 2239.19 379.194 2239.19C351.833 2239.19 323.105 2239.19 295.342 2239.19C284.108 2239.19 272.92 2238.63 262.238 2239.43C248.856 2240.45 236.692 2245.85 226.687 2251.18C216.673 2256.5 207.695 2263.56 200.176 2272.03C188.056 2284.91 179.443 2300.66 175.158 2317.8C173.585 2324.12 173.321 2330.85 171.712 2337.88C166.251 2338.52 160.726 2338.44 155.287 2337.62C155.562 2310.05 165.487 2289.06 177.846 2271.78C189.333 2255.64 207.045 2240.46 227.617 2232.62C238.3 2228.56 249.442 2224.74 262.939 2223.32C276.435 2221.9 290.644 2222.59 306.587 2222.59H384.581C388.165 2222.59 393.897 2222.14 395.126 2223.32C395.351 2223.52 395.521 2223.77 395.62 2224.05C395.47 2228.77 395.93 2234.12 395.379 2238.45Z" fill="#FFEFD0"/>
<path fill-rule="evenodd" clip-rule="evenodd" d="M394.887 2266.6C375.464 2267.67 355.58 2266.91 335.548 2267.34C315.515 2267.76 294.897 2267.09 274.968 2267.09C251.788 2267.09 235.638 2276.48 223.473 2288.62C214.353 2297.73 206.841 2308.12 202.867 2322.65C201.58 2327.39 201.569 2332.56 199.926 2337.83C195.573 2338.51 187.704 2338.87 183.742 2337.58C184.408 2314.26 193.93 2297.66 204.831 2283.7C218.086 2268.95 235.086 2256.72 258.53 2252.36C266.41 2250.91 275.266 2251.15 285.018 2251.15C316.538 2251.15 351.135 2250.25 381.391 2251.15C385.675 2251.26 393.405 2250.54 394.887 2251.87C395.103 2252.07 395.268 2252.32 395.37 2252.6C395.094 2257.13 395.978 2262.86 394.887 2266.6Z" fill="#FFEFD0"/>
<path fill-rule="evenodd" clip-rule="evenodd" d="M84.5474 200.331C85.8339 212.036 85.2825 224.544 85.2825 237.018V311.424C85.2825 323.84 84.8345 335.304 81.8365 345.439C76.6506 363.13 66.3255 378.89 52.1668 390.725C36.8767 403.345 17.7955 410.497 -2.03824 411.04C-3.47406 406.89 -2.77338 399.231 -2.03824 394.886C17.42 392.135 33.214 385.783 44.5627 374.823C53.6014 366.7 60.5777 356.551 64.9169 345.21C69.7527 332.599 69.0865 316.95 69.0865 299.432V212.082C69.0865 208.196 68.5236 204.057 69.8216 200.342C74.7214 199.931 79.647 199.927 84.5474 200.331Z" fill="#FFEFD0"/>
<path fill-rule="evenodd" clip-rule="evenodd" d="M98.5301 200.331C103.366 200.492 108.811 200.022 113.233 200.583C114.554 228.099 113.669 257.632 113.968 286.981C114.14 302.63 114.232 317.294 112.992 330.799C109.304 370.983 90.0185 397.971 64.6792 416.956C47.4494 429.831 26.1648 438.934 -2.02319 439.473C-3.35563 435.471 -2.91914 427.469 -2.26441 423.078C22.3283 420.533 41.5798 413.413 56.8339 401.295C71.8238 389.372 83.9307 374.755 91.4084 355.035C95.2909 344.797 96.6807 333.516 97.301 320.527C97.9213 307.537 96.7497 293.86 97.0483 280.4C97.5422 258.617 97.301 234.221 97.301 210.879C97.301 207.37 96.9449 202.773 97.7834 201.099C97.8459 200.925 97.9448 200.767 98.0736 200.635C98.2023 200.502 98.358 200.399 98.5301 200.331Z" fill="#FFEFD0"/>
<path fill-rule="evenodd" clip-rule="evenodd" d="M127.461 200.331C132.056 200.492 137.248 200.022 141.44 200.583C142.21 234.473 142.176 268.489 142.176 302.16C142.176 319.357 141.923 335.694 138.73 350.129C129.54 391.711 107.107 422.677 76.1853 442.901C55.5095 456.406 30.5148 467.756 -2.03812 467.378C-3.32461 463.675 -2.98001 456.039 -2.27934 451.958C3.46394 450.536 8.81667 450.937 14.3876 450.238C17.466 449.848 20.8776 448.954 23.9559 448.278C44.6317 443.692 62.5048 432.915 76.6792 421.909C90.2832 411.408 101.588 398.237 109.897 383.208C118.206 368.179 123.343 351.611 124.992 334.525C126.255 320.767 125.968 306.104 125.968 290.226C125.968 265.244 125.198 237.626 125.968 211.119C126.083 207.451 125.554 202.853 126.703 200.801C126.915 200.586 127.175 200.425 127.461 200.331Z" fill="#FFEFD0"/>
<path fill-rule="evenodd" clip-rule="evenodd" d="M169.146 200.824C170.122 238.944 169.881 276.949 169.881 315.138C169.881 334.88 168.296 352.57 163.747 368.002C157.131 390.507 147.183 410.421 134.319 426.987C130.023 432.513 125.325 437.489 120.592 442.66C111.15 452.978 100.112 461.187 87.9703 469.097C75.4509 477.212 61.8205 483.476 47.5032 487.693C32.4903 492.153 15.9037 496.865 -2.52072 495.523C-2.68153 490.788 -3.46262 483.325 -2.0268 479.369C6.73744 478.223 14.9503 477.971 22.7382 476.675C45.5275 472.903 64.779 463.525 81.3196 453.184C103.73 439.197 121.063 420.04 134.284 396.64C141.21 384.213 146.327 370.864 149.481 356.996C156.373 327.371 153.421 288.013 153.662 252.667C153.754 239.23 153.478 226.126 153.903 212.77C154.029 208.712 153.145 204.435 154.638 200.526C158.923 200.308 165.298 199.895 169.146 200.824Z" fill="#FFEFD0"/>
<path fill-rule="evenodd" clip-rule="evenodd" d="M196.129 201.317C196.623 220.99 196.623 241.26 196.623 260.784C196.623 280.744 197.267 301.128 196.623 321.73C196.225 340.079 193.673 358.318 189.019 376.073C183.414 396.491 174.374 415.202 164.495 431.39C149.471 455.993 127.601 475.46 103.686 491.362C90.0511 500.419 73.9929 507.813 56.8435 513.626C47.7965 516.63 38.5297 518.93 29.1264 520.505C18.8574 522.38 8.42308 523.202 -2.01359 522.958C-3.41495 518.808 -3.16224 512.376 -2.2548 508.272C2.22495 506.449 7.09524 506.908 11.529 506.552C40.3541 504.183 68.1903 494.952 92.7045 479.633C127.578 457.919 153.399 428.145 169.664 386.861C171.192 382.986 171.847 379.203 173.11 374.869C178.365 357.39 181.009 339.234 180.956 320.985C180.956 292.965 180.956 261.231 180.956 230.414C180.956 225.656 180.76 220.36 180.956 214.994C181.082 211.016 180.416 202.865 181.932 201.042C182.13 200.817 182.383 200.647 182.667 200.549C186.986 200.973 193.005 199.735 196.129 201.317Z" fill="#FFEFD0"/>
<path fill-rule="evenodd" clip-rule="evenodd" d="M395.379 15.2579C355.372 16.1407 312.274 15.7509 273.002 15.7509C254.958 15.7225 237.014 18.4284 219.784 23.7761C204.911 28.2835 190.721 34.7901 177.606 43.117C164.913 51.3028 152.485 59.5459 142.779 70.0361C132.777 80.7183 123.751 92.271 115.808 104.556C107.557 117.64 100.967 131.696 96.1892 146.402C90.9743 161.96 88.3439 179.386 86.8736 198.544C82.9222 199.22 75.2148 199.633 71.6654 198.291C70.9877 182.929 74.0431 168.254 77.3053 155.219C78.454 150.736 79.1087 146.047 80.4871 142C83.2783 133.78 86.7587 125.949 90.0553 118.497C93.4391 111.208 97.3751 104.186 101.829 97.494C110.444 83.9427 119.576 71.6984 130.764 60.5433C141.952 49.3882 153.415 39.2993 167.302 31.1594C174.321 27.055 181.201 23.2029 188.886 19.6947C210.974 9.49117 236.911 1.20219 268.35 0.113048C278.607 -0.242356 289.634 0.353797 300.719 0.353798C321.509 0.353799 342.851 -0.116242 364.963 0.113052C372.785 0.193305 380.217 0.113043 388.51 0.353802C390.808 0.434054 393.679 -0.414313 395.621 1.33978C395.896 5.39828 396.298 11.5089 395.379 15.2579Z" fill="#FFEFD0"/>
<path fill-rule="evenodd" clip-rule="evenodd" d="M395.382 42.913C386.996 43.8531 378.382 43.6467 369.629 43.6582C343.968 43.6582 315.642 43.6582 288.706 43.6582C279.161 43.6582 270.247 43.4059 261.724 44.1397C239.64 45.9565 218.218 52.5567 198.95 63.4805C187.36 69.7609 176.562 77.4009 166.788 86.2379C143.298 107.792 125.379 136.935 117.993 174.596C116.488 182.277 116.638 190.291 115.052 198.832C109.768 199.629 104.394 199.629 99.1091 198.832C98.1787 180.684 102.463 163.842 107.448 148.904C112.433 133.965 118.211 120.322 126.332 108.777C134.453 97.2325 142.815 85.8482 153.061 76.2293C163.237 66.4386 174.606 57.9646 186.901 51.007C205.739 40.6888 226.954 31.4483 253.362 28.4789C262.287 27.4815 271.453 27.6535 281.067 27.7452C315.114 28.1006 349.298 27.7452 381.621 27.7452C386.215 27.7452 391.086 27.1605 395.6 28.4789C395.899 32.7208 396.312 39.0264 395.382 42.913Z" fill="#FFEFD0"/>
<path fill-rule="evenodd" clip-rule="evenodd" d="M395.127 70.8143C364.825 71.7086 331.595 71.2958 300.466 71.3073C284.006 71.3073 268.373 70.8372 254.612 73.0155C214.65 79.3555 186.899 101.242 167.061 128.046C155.655 143.5 147.04 164.377 144.008 188.258C143.583 191.698 144.065 195.321 142.79 198.783C137.735 199.31 132.638 199.31 127.582 198.783C126.433 195.011 127.237 190.941 127.582 187.318C129.319 169.824 134.309 152.806 142.296 137.137C145.257 131.647 148.536 126.334 152.117 121.224C165.878 100.504 184.809 83.7191 207.046 72.5225C224.115 63.775 243.642 56.7472 268.109 55.6465C276.011 55.2911 284.316 55.6465 292.632 55.3943C322.176 54.4771 353.316 55.3943 383.376 55.3943C387.339 55.3943 391.554 54.8326 395.391 56.1281C396.08 59.9458 396.413 67.3864 395.127 70.8143Z" fill="#FFEFD0"/>
<path fill-rule="evenodd" clip-rule="evenodd" d="M395.379 99.4539C390.141 100.749 384.627 100.188 379.194 100.188C351.833 100.188 323.105 100.188 295.342 100.188C284.108 100.188 272.92 99.6258 262.238 100.428C248.856 101.449 236.692 106.849 226.687 112.18C216.673 117.495 207.695 124.558 200.176 133.034C188.056 145.905 179.443 161.662 175.158 178.801C173.585 185.118 173.321 191.848 171.712 198.876C166.251 199.525 160.726 199.44 155.287 198.623C155.562 171.051 165.487 150.059 177.846 132.782C189.333 116.639 207.045 101.46 227.617 93.6184C238.3 89.5599 249.442 85.7421 262.939 84.3205C276.435 82.8989 290.644 83.5868 306.587 83.5868H384.581C388.165 83.5868 393.897 83.1397 395.126 84.3205C395.351 84.5183 395.521 84.7711 395.62 85.0542C395.47 89.7662 395.93 95.1202 395.379 99.4539Z" fill="#FFEFD0"/>
<path fill-rule="evenodd" clip-rule="evenodd" d="M394.887 127.601C375.464 128.668 355.58 127.911 335.548 128.335C315.515 128.759 294.897 128.094 274.968 128.094C251.788 128.094 235.638 137.484 223.473 149.625C214.353 158.728 206.841 169.115 202.867 183.652C201.58 188.387 201.569 193.558 199.926 198.831C195.573 199.508 187.704 199.875 183.742 198.579C184.408 175.26 193.93 158.659 204.831 144.695C218.086 129.952 235.086 117.719 258.53 113.362C266.41 111.906 275.266 112.147 285.018 112.147C316.538 112.147 351.135 111.253 381.391 112.147C385.675 112.262 393.405 111.539 394.887 112.869C395.103 113.073 395.268 113.324 395.37 113.603C395.094 118.132 395.978 123.864 394.887 127.601Z" fill="#FFEFD0"/>
<path fill-rule="evenodd" clip-rule="evenodd" d="M84.5474 1271.33C85.8339 1283.04 85.2825 1295.54 85.2825 1308.02V1382.42C85.2825 1394.84 84.8345 1406.3 81.8365 1416.44C76.6506 1434.13 66.3255 1449.89 52.1668 1461.72C36.8767 1474.35 17.7955 1481.5 -2.03824 1482.04C-3.47406 1477.89 -2.77338 1470.23 -2.03824 1465.89C17.42 1463.13 33.214 1456.78 44.5627 1445.82C53.6014 1437.7 60.5777 1427.55 64.9169 1416.21C69.7527 1403.6 69.0865 1387.95 69.0865 1370.43V1283.08C69.0865 1279.2 68.5236 1275.06 69.8216 1271.34C74.7214 1270.93 79.647 1270.93 84.5474 1271.33Z" fill="#FFEFD0"/>
<path fill-rule="evenodd" clip-rule="evenodd" d="M98.5301 1271.33C103.366 1271.49 108.811 1271.02 113.233 1271.58C114.554 1299.1 113.669 1328.63 113.968 1357.98C114.14 1373.63 114.232 1388.29 112.992 1401.8C109.304 1441.98 90.0185 1468.97 64.6792 1487.96C47.4494 1500.83 26.1648 1509.93 -2.02319 1510.47C-3.35563 1506.47 -2.91914 1498.47 -2.26441 1494.08C22.3283 1491.53 41.5798 1484.41 56.8339 1472.3C71.8238 1460.37 83.9307 1445.75 91.4084 1426.04C95.2909 1415.8 96.6807 1404.52 97.301 1391.53C97.9213 1378.54 96.7497 1364.86 97.0483 1351.4C97.5422 1329.62 97.301 1305.22 97.301 1281.88C97.301 1278.37 96.9449 1273.77 97.7834 1272.1C97.8459 1271.93 97.9448 1271.77 98.0736 1271.63C98.2023 1271.5 98.358 1271.4 98.5301 1271.33Z" fill="#FFEFD0"/>
<path fill-rule="evenodd" clip-rule="evenodd" d="M127.461 1271.33C132.056 1271.49 137.248 1271.02 141.44 1271.58C142.21 1305.47 142.176 1339.49 142.176 1373.16C142.176 1390.36 141.923 1406.69 138.73 1421.13C129.54 1462.71 107.107 1493.68 76.1853 1513.9C55.5095 1527.41 30.5148 1538.76 -2.03812 1538.38C-3.32461 1534.67 -2.98001 1527.04 -2.27934 1522.96C3.46394 1521.54 8.81667 1521.94 14.3876 1521.24C17.466 1520.85 20.8776 1519.95 23.9559 1519.28C44.6317 1514.69 62.5048 1503.91 76.6792 1492.91C90.2832 1482.41 101.588 1469.24 109.897 1454.21C118.206 1439.18 123.343 1422.61 124.992 1405.53C126.255 1391.77 125.968 1377.1 125.968 1361.23C125.968 1336.24 125.198 1308.63 125.968 1282.12C126.083 1278.45 125.554 1273.85 126.703 1271.8C126.915 1271.59 127.175 1271.43 127.461 1271.33Z" fill="#FFEFD0"/>
<path fill-rule="evenodd" clip-rule="evenodd" d="M169.146 1271.82C170.122 1309.94 169.881 1347.95 169.881 1386.14C169.881 1405.88 168.296 1423.57 163.747 1439C157.131 1461.51 147.183 1481.42 134.319 1497.99C130.023 1503.51 125.325 1508.49 120.592 1513.66C111.15 1523.98 100.112 1532.19 87.9703 1540.1C75.4509 1548.21 61.8205 1554.48 47.5032 1558.69C32.4903 1563.15 15.9037 1567.86 -2.52072 1566.52C-2.68153 1561.79 -3.46262 1554.32 -2.0268 1550.37C6.73744 1549.22 14.9503 1548.97 22.7382 1547.68C45.5275 1543.9 64.779 1534.53 81.3196 1524.18C103.73 1510.2 121.063 1491.04 134.284 1467.64C141.21 1455.21 146.327 1441.86 149.481 1428C156.373 1398.37 153.421 1359.01 153.662 1323.67C153.754 1310.23 153.478 1297.13 153.903 1283.77C154.029 1279.71 153.145 1275.44 154.638 1271.53C158.923 1271.31 165.298 1270.9 169.146 1271.82Z" fill="#FFEFD0"/>
<path fill-rule="evenodd" clip-rule="evenodd" d="M196.129 1272.32C196.623 1291.99 196.623 1312.26 196.623 1331.78C196.623 1351.74 197.267 1372.13 196.623 1392.73C196.225 1411.08 193.673 1429.32 189.019 1447.07C183.414 1467.49 174.374 1486.2 164.495 1502.39C149.471 1526.99 127.601 1546.46 103.686 1562.36C90.0511 1571.42 73.9929 1578.81 56.8435 1584.63C47.7965 1587.63 38.5297 1589.93 29.1264 1591.5C18.8574 1593.38 8.42308 1594.2 -2.01359 1593.96C-3.41495 1589.81 -3.16224 1583.38 -2.2548 1579.27C2.22495 1577.45 7.09524 1577.91 11.529 1577.55C40.3541 1575.18 68.1903 1565.95 92.7045 1550.63C127.578 1528.92 153.399 1499.15 169.664 1457.86C171.192 1453.99 171.847 1450.2 173.11 1445.87C178.365 1428.39 181.009 1410.23 180.956 1391.99C180.956 1363.97 180.956 1332.23 180.956 1301.41C180.956 1296.66 180.76 1291.36 180.956 1285.99C181.082 1282.02 180.416 1273.86 181.932 1272.04C182.13 1271.82 182.383 1271.65 182.667 1271.55C186.986 1271.97 193.005 1270.73 196.129 1272.32Z" fill="#FFEFD0"/>
<path fill-rule="evenodd" clip-rule="evenodd" d="M395.379 1086.26C355.372 1087.14 312.274 1086.75 273.002 1086.75C254.958 1086.72 237.014 1089.43 219.784 1094.78C204.911 1099.28 190.721 1105.79 177.606 1114.12C164.913 1122.3 152.485 1130.55 142.779 1141.04C132.777 1151.72 123.751 1163.27 115.808 1175.56C107.557 1188.64 100.967 1202.7 96.1892 1217.4C90.9743 1232.96 88.3439 1250.39 86.8736 1269.54C82.9222 1270.22 75.2148 1270.63 71.6654 1269.29C70.9877 1253.93 74.0431 1239.25 77.3053 1226.22C78.454 1221.74 79.1087 1217.05 80.4871 1213C83.2783 1204.78 86.7587 1196.95 90.0553 1189.5C93.4391 1182.21 97.3751 1175.19 101.829 1168.49C110.444 1154.94 119.576 1142.7 130.764 1131.54C141.952 1120.39 153.415 1110.3 167.302 1102.16C174.321 1098.06 181.201 1094.2 188.886 1090.69C210.974 1080.49 236.911 1072.2 268.35 1071.11C278.607 1070.76 289.634 1071.35 300.719 1071.35C321.509 1071.35 342.851 1070.88 364.963 1071.11C372.785 1071.19 380.217 1071.11 388.51 1071.35C390.808 1071.43 393.679 1070.59 395.621 1072.34C395.896 1076.4 396.298 1082.51 395.379 1086.26Z" fill="#FFEFD0"/>
<path fill-rule="evenodd" clip-rule="evenodd" d="M395.382 1113.91C386.996 1114.85 378.382 1114.65 369.629 1114.66C343.968 1114.66 315.642 1114.66 288.706 1114.66C279.161 1114.66 270.247 1114.41 261.724 1115.14C239.64 1116.96 218.218 1123.56 198.95 1134.48C187.36 1140.76 176.562 1148.4 166.788 1157.24C143.298 1178.79 125.379 1207.93 117.993 1245.6C116.488 1253.28 116.638 1261.29 115.052 1269.83C109.768 1270.63 104.394 1270.63 99.1091 1269.83C98.1787 1251.68 102.463 1234.84 107.448 1219.9C112.433 1204.97 118.211 1191.32 126.332 1179.78C134.453 1168.23 142.815 1156.85 153.061 1147.23C163.237 1137.44 174.606 1128.96 186.901 1122.01C205.739 1111.69 226.954 1102.45 253.362 1099.48C262.287 1098.48 271.453 1098.65 281.067 1098.75C315.114 1099.1 349.298 1098.75 381.621 1098.75C386.215 1098.75 391.086 1098.16 395.6 1099.48C395.899 1103.72 396.312 1110.03 395.382 1113.91Z" fill="#FFEFD0"/>
<path fill-rule="evenodd" clip-rule="evenodd" d="M395.127 1141.81C364.825 1142.71 331.595 1142.3 300.466 1142.31C284.006 1142.31 268.373 1141.84 254.612 1144.02C214.65 1150.36 186.899 1172.24 167.061 1199.05C155.655 1214.5 147.04 1235.38 144.008 1259.26C143.583 1262.7 144.065 1266.32 142.79 1269.78C137.735 1270.31 132.638 1270.31 127.582 1269.78C126.433 1266.01 127.237 1261.94 127.582 1258.32C129.319 1240.82 134.309 1223.81 142.296 1208.14C145.257 1202.65 148.536 1197.33 152.117 1192.22C165.878 1171.5 184.809 1154.72 207.046 1143.52C224.115 1134.78 243.642 1127.75 268.109 1126.65C276.011 1126.29 284.316 1126.65 292.632 1126.39C322.176 1125.48 353.316 1126.39 383.376 1126.39C387.339 1126.39 391.554 1125.83 395.391 1127.13C396.08 1130.95 396.413 1138.39 395.127 1141.81Z" fill="#FFEFD0"/>
<path fill-rule="evenodd" clip-rule="evenodd" d="M395.379 1170.45C390.141 1171.75 384.627 1171.19 379.194 1171.19C351.833 1171.19 323.105 1171.19 295.342 1171.19C284.108 1171.19 272.92 1170.63 262.238 1171.43C248.856 1172.45 236.692 1177.85 226.687 1183.18C216.673 1188.5 207.695 1195.56 200.176 1204.03C188.056 1216.91 179.443 1232.66 175.158 1249.8C173.585 1256.12 173.321 1262.85 171.712 1269.88C166.251 1270.52 160.726 1270.44 155.287 1269.62C155.562 1242.05 165.487 1221.06 177.846 1203.78C189.333 1187.64 207.045 1172.46 227.617 1164.62C238.3 1160.56 249.442 1156.74 262.939 1155.32C276.435 1153.9 290.644 1154.59 306.587 1154.59H384.581C388.165 1154.59 393.897 1154.14 395.126 1155.32C395.351 1155.52 395.521 1155.77 395.62 1156.05C395.47 1160.77 395.93 1166.12 395.379 1170.45Z" fill="#FFEFD0"/>
<path fill-rule="evenodd" clip-rule="evenodd" d="M394.887 1198.6C375.464 1199.67 355.58 1198.91 335.548 1199.34C315.515 1199.76 294.897 1199.09 274.968 1199.09C251.788 1199.09 235.638 1208.48 223.473 1220.63C214.353 1229.73 206.841 1240.11 202.867 1254.65C201.58 1259.39 201.569 1264.56 199.926 1269.83C195.573 1270.51 187.704 1270.87 183.742 1269.58C184.408 1246.26 193.93 1229.66 204.831 1215.7C218.086 1200.95 235.086 1188.72 258.53 1184.36C266.41 1182.91 275.266 1183.15 285.018 1183.15C316.538 1183.15 351.135 1182.25 381.391 1183.15C385.675 1183.26 393.405 1182.54 394.887 1183.87C395.103 1184.07 395.268 1184.32 395.37 1184.6C395.094 1189.13 395.978 1194.86 394.887 1198.6Z" fill="#FFEFD0"/>
<path fill-rule="evenodd" clip-rule="evenodd" d="M311.453 739.331C310.166 751.036 310.717 763.544 310.717 776.018V850.424C310.717 862.84 311.165 874.305 314.163 884.439C319.349 902.13 329.674 917.89 343.833 929.725C359.123 942.345 378.205 949.497 398.038 950.04C399.474 945.89 398.773 938.232 398.038 933.886C378.58 931.135 362.786 924.783 351.437 913.823C342.399 905.7 335.422 895.551 331.083 884.21C326.247 871.599 326.914 855.95 326.914 838.432V751.082C326.914 747.196 327.476 743.057 326.178 739.342C321.279 738.931 316.353 738.927 311.453 739.331Z" fill="#FFEFD0"/>
<path fill-rule="evenodd" clip-rule="evenodd" d="M297.47 739.331C292.634 739.492 287.189 739.022 282.767 739.583C281.446 767.099 282.331 796.631 282.032 825.981C281.86 841.63 281.768 856.294 283.008 869.799C286.696 909.983 305.981 936.971 331.321 955.956C348.551 968.831 369.835 977.934 398.023 978.473C399.356 974.471 398.919 966.469 398.264 962.078C373.672 959.533 354.42 952.413 339.166 940.295C324.176 928.372 312.069 913.755 304.592 894.035C300.709 883.797 299.319 872.516 298.699 859.527C298.079 846.537 299.25 832.86 298.952 819.4C298.458 797.618 298.699 773.221 298.699 749.879C298.699 746.37 299.055 741.773 298.217 740.099C298.154 739.926 298.055 739.767 297.926 739.635C297.798 739.502 297.642 739.399 297.47 739.331Z" fill="#FFEFD0"/>
<path fill-rule="evenodd" clip-rule="evenodd" d="M268.539 739.331C263.944 739.492 258.752 739.022 254.56 739.583C253.79 773.473 253.824 807.489 253.824 841.16C253.824 858.357 254.077 874.695 257.27 889.129C266.46 930.711 288.893 961.677 319.815 981.901C340.491 995.406 365.485 1006.76 398.038 1006.38C399.325 1002.67 398.98 995.039 398.279 990.958C392.536 989.536 387.183 989.937 381.612 989.238C378.534 988.848 375.122 987.954 372.044 987.278C351.368 982.692 333.495 971.915 319.321 960.909C305.717 950.408 294.412 937.237 286.103 922.208C277.794 907.179 272.657 890.611 271.008 873.525C269.745 859.767 270.032 845.104 270.032 829.226C270.032 804.244 270.802 776.626 270.032 750.119C269.917 746.451 270.446 741.853 269.297 739.801C269.085 739.586 268.825 739.425 268.539 739.331Z" fill="#FFEFD0"/>
<path fill-rule="evenodd" clip-rule="evenodd" d="M226.854 739.824C225.878 777.944 226.119 815.949 226.119 854.138C226.119 873.88 227.704 891.57 232.253 907.002C238.869 929.507 248.817 949.421 261.681 965.987C265.977 971.513 270.675 976.489 275.408 981.66C284.85 991.978 295.888 1000.19 308.03 1008.1C320.549 1016.21 334.179 1022.48 348.497 1026.69C363.51 1031.15 380.096 1035.86 398.521 1034.52C398.682 1029.79 399.463 1022.32 398.027 1018.37C389.263 1017.22 381.05 1016.97 373.262 1015.68C350.473 1011.9 331.221 1002.53 314.68 992.184C292.27 978.197 274.937 959.04 261.716 935.64C254.79 923.213 249.673 909.864 246.519 895.996C239.627 866.371 242.579 827.013 242.338 791.667C242.246 778.231 242.522 765.126 242.097 751.77C241.971 747.712 242.855 743.435 241.362 739.526C237.077 739.308 230.702 738.895 226.854 739.824Z" fill="#FFEFD0"/>
<path fill-rule="evenodd" clip-rule="evenodd" d="M199.871 740.317C199.377 759.99 199.377 780.26 199.377 799.784C199.377 819.744 198.733 840.128 199.377 860.73C199.775 879.079 202.327 897.318 206.981 915.073C212.586 935.491 221.626 954.202 231.505 970.39C246.529 994.993 268.399 1014.46 292.314 1030.36C305.949 1039.42 322.007 1046.81 339.157 1052.63C348.204 1055.63 357.47 1057.93 366.874 1059.5C377.143 1061.38 387.577 1062.2 398.014 1061.96C399.415 1057.81 399.162 1051.38 398.255 1047.27C393.775 1045.45 388.905 1045.91 384.471 1045.55C355.646 1043.18 327.81 1033.95 303.296 1018.63C268.422 996.919 242.601 967.145 226.336 925.861C224.808 921.986 224.153 918.203 222.89 913.869C217.635 896.39 214.991 878.234 215.044 859.985C215.044 831.965 215.044 800.231 215.044 769.414C215.044 764.656 215.24 759.36 215.044 753.994C214.918 750.016 215.584 741.865 214.068 740.042C213.87 739.817 213.617 739.647 213.333 739.549C209.014 739.973 202.995 738.735 199.871 740.317Z" fill="#FFEFD0"/>
<path fill-rule="evenodd" clip-rule="evenodd" d="M0.620605 554.258C40.6283 555.141 83.7258 554.751 122.998 554.751C141.042 554.722 158.986 557.428 176.216 562.776C191.089 567.283 205.279 573.79 218.394 582.117C231.087 590.303 243.515 598.546 253.221 609.036C263.223 619.718 272.249 631.271 280.192 643.556C288.443 656.64 295.033 670.696 299.811 685.402C305.026 700.96 307.656 718.386 309.126 737.544C313.078 738.22 320.785 738.633 324.335 737.291C325.012 721.929 321.957 707.254 318.695 694.219C317.546 689.736 316.891 685.047 315.513 681C312.722 672.78 309.241 664.949 305.945 657.497C302.561 650.208 298.625 643.186 294.171 636.494C285.556 622.943 276.424 610.698 265.236 599.543C254.048 588.388 242.585 578.299 228.698 570.159C221.679 566.055 214.799 562.203 207.114 558.695C185.026 548.491 159.089 540.202 127.65 539.113C117.393 538.758 106.366 539.354 95.2813 539.354C74.4907 539.354 53.1487 538.884 31.037 539.113C23.2147 539.193 15.7829 539.113 7.48962 539.354C5.19229 539.434 2.32065 538.586 0.379425 540.34C0.10376 544.398 -0.298309 550.509 0.620605 554.258Z" fill="#FFEFD0"/>
<path fill-rule="evenodd" clip-rule="evenodd" d="M0.618378 581.913C9.00357 582.853 17.6185 582.647 26.3712 582.658C52.0322 582.658 80.358 582.658 107.294 582.658C116.839 582.658 125.753 582.406 134.276 583.14C156.36 584.956 177.782 591.557 197.05 602.481C208.64 608.761 219.438 616.401 229.212 625.238C252.702 646.792 270.621 675.935 278.007 713.596C279.512 721.277 279.362 729.291 280.948 737.833C286.232 738.629 291.606 738.629 296.891 737.833C297.821 719.684 293.537 702.842 288.552 687.904C283.567 672.965 277.789 659.322 269.668 647.777C261.547 636.233 253.185 624.848 242.939 615.229C232.763 605.439 221.394 596.965 209.099 590.007C190.261 579.689 169.046 570.448 142.638 567.479C133.713 566.482 124.547 566.653 114.933 566.745C80.8864 567.101 46.7024 566.745 14.3793 566.745C9.78464 566.745 4.91434 566.161 0.400116 567.479C0.101471 571.721 -0.312042 578.026 0.618378 581.913Z" fill="#FFEFD0"/>
<path fill-rule="evenodd" clip-rule="evenodd" d="M0.87323 609.814C31.1747 610.709 64.4053 610.296 95.5339 610.307C111.994 610.307 127.627 609.837 141.388 612.016C181.35 618.355 209.101 640.242 228.939 667.046C240.345 682.5 248.96 703.378 251.992 727.258C252.417 730.698 251.935 734.321 253.21 737.783C258.265 738.31 263.362 738.31 268.418 737.783C269.567 734.011 268.763 729.941 268.418 726.318C266.681 708.824 261.691 691.806 253.704 676.137C250.743 670.647 247.464 665.334 243.883 660.224C230.122 639.504 211.191 622.719 188.954 611.523C171.885 602.775 152.358 595.747 127.891 594.647C119.989 594.291 111.684 594.647 103.368 594.394C73.8243 593.477 42.6843 594.394 12.624 594.394C8.6611 594.394 4.44553 593.833 0.609039 595.128C-0.0801697 598.946 -0.413269 606.386 0.87323 609.814Z" fill="#FFEFD0"/>
<path fill-rule="evenodd" clip-rule="evenodd" d="M0.62146 638.454C5.85934 639.749 11.3729 639.188 16.806 639.188C44.167 639.188 72.8948 639.188 100.658 639.188C111.892 639.188 123.08 638.626 133.762 639.428C147.144 640.449 159.308 645.849 169.313 651.18C179.327 656.496 188.305 663.558 195.824 672.034C207.944 684.905 216.557 700.662 220.842 717.801C222.415 724.118 222.679 730.848 224.288 737.875C229.749 738.525 235.274 738.44 240.713 737.623C240.438 710.051 230.513 689.059 218.154 671.782C206.667 655.639 188.955 640.46 168.383 632.618C157.7 628.56 146.558 624.742 133.061 623.32C119.565 621.899 105.356 622.587 89.4125 622.587H11.4188C7.83502 622.587 2.10324 622.14 0.874176 623.321C0.648712 623.518 0.478516 623.771 0.38028 624.054C0.529602 628.766 0.0701294 634.12 0.62146 638.454Z" fill="#FFEFD0"/>
<path fill-rule="evenodd" clip-rule="evenodd" d="M1.11276 666.601C20.5365 667.668 40.4197 666.911 60.4522 667.335C80.4848 667.759 101.103 667.094 121.032 667.094C144.212 667.094 160.362 676.484 172.527 688.625C181.647 697.728 189.159 708.115 193.133 722.652C194.42 727.387 194.431 732.558 196.074 737.831C200.427 738.508 208.296 738.875 212.258 737.579C211.592 714.26 202.07 697.659 191.169 683.695C177.914 668.952 160.914 656.719 137.47 652.362C129.59 650.906 120.734 651.147 110.982 651.147C79.4625 651.147 44.865 650.253 14.6094 651.147C10.3249 651.262 2.59451 650.539 1.11276 651.869C0.896851 652.073 0.731628 652.324 0.63028 652.603C0.905975 657.132 0.0215149 662.864 1.11276 666.601Z" fill="#FFEFD0"/>
<path fill-rule="evenodd" clip-rule="evenodd" d="M311.453 1810.33C310.166 1822.04 310.717 1834.54 310.717 1847.02V1921.42C310.717 1933.84 311.165 1945.3 314.163 1955.44C319.349 1973.13 329.674 1988.89 343.833 2000.72C359.123 2013.35 378.205 2020.5 398.038 2021.04C399.474 2016.89 398.773 2009.23 398.038 2004.89C378.58 2002.13 362.786 1995.78 351.437 1984.82C342.399 1976.7 335.422 1966.55 331.083 1955.21C326.247 1942.6 326.914 1926.95 326.914 1909.43V1822.08C326.914 1818.2 327.476 1814.06 326.178 1810.34C321.279 1809.93 316.353 1809.93 311.453 1810.33Z" fill="#FFEFD0"/>
<path fill-rule="evenodd" clip-rule="evenodd" d="M297.47 1810.33C292.634 1810.49 287.189 1810.02 282.767 1810.58C281.446 1838.1 282.331 1867.63 282.032 1896.98C281.86 1912.63 281.768 1927.29 283.008 1940.8C286.696 1980.98 305.981 2007.97 331.321 2026.96C348.551 2039.83 369.835 2048.93 398.023 2049.47C399.356 2045.47 398.919 2037.47 398.264 2033.08C373.672 2030.53 354.42 2023.41 339.166 2011.3C324.176 1999.37 312.069 1984.75 304.592 1965.04C300.709 1954.8 299.319 1943.52 298.699 1930.53C298.079 1917.54 299.25 1903.86 298.952 1890.4C298.458 1868.62 298.699 1844.22 298.699 1820.88C298.699 1817.37 299.055 1812.77 298.217 1811.1C298.154 1810.93 298.055 1810.77 297.926 1810.63C297.798 1810.5 297.642 1810.4 297.47 1810.33Z" fill="#FFEFD0"/>
<path fill-rule="evenodd" clip-rule="evenodd" d="M268.539 1810.33C263.944 1810.49 258.752 1810.02 254.56 1810.58C253.79 1844.47 253.824 1878.49 253.824 1912.16C253.824 1929.36 254.077 1945.69 257.27 1960.13C266.46 2001.71 288.893 2032.68 319.815 2052.9C340.491 2066.41 365.485 2077.76 398.038 2077.38C399.325 2073.67 398.98 2066.04 398.279 2061.96C392.536 2060.54 387.183 2060.94 381.612 2060.24C378.534 2059.85 375.122 2058.95 372.044 2058.28C351.368 2053.69 333.495 2042.91 319.321 2031.91C305.717 2021.41 294.412 2008.24 286.103 1993.21C277.794 1978.18 272.657 1961.61 271.008 1944.53C269.745 1930.77 270.032 1916.1 270.032 1900.23C270.032 1875.24 270.802 1847.63 270.032 1821.12C269.917 1817.45 270.446 1812.85 269.297 1810.8C269.085 1810.59 268.825 1810.43 268.539 1810.33Z" fill="#FFEFD0"/>
<path fill-rule="evenodd" clip-rule="evenodd" d="M226.854 1810.82C225.878 1848.94 226.119 1886.95 226.119 1925.14C226.119 1944.88 227.704 1962.57 232.253 1978C238.869 2000.51 248.817 2020.42 261.681 2036.99C265.977 2042.51 270.675 2047.49 275.408 2052.66C284.85 2062.98 295.888 2071.19 308.03 2079.1C320.549 2087.21 334.179 2093.48 348.497 2097.69C363.51 2102.15 380.096 2106.86 398.521 2105.52C398.682 2100.79 399.463 2093.32 398.027 2089.37C389.263 2088.22 381.05 2087.97 373.262 2086.68C350.473 2082.9 331.221 2073.53 314.68 2063.18C292.27 2049.2 274.937 2030.04 261.716 2006.64C254.79 1994.21 249.673 1980.86 246.519 1967C239.627 1937.37 242.579 1898.01 242.338 1862.67C242.246 1849.23 242.522 1836.13 242.097 1822.77C241.971 1818.71 242.855 1814.44 241.362 1810.53C237.077 1810.31 230.702 1809.9 226.854 1810.82Z" fill="#FFEFD0"/>
<path fill-rule="evenodd" clip-rule="evenodd" d="M199.871 1811.32C199.377 1830.99 199.377 1851.26 199.377 1870.78C199.377 1890.74 198.733 1911.13 199.377 1931.73C199.775 1950.08 202.327 1968.32 206.981 1986.07C212.586 2006.49 221.626 2025.2 231.505 2041.39C246.529 2065.99 268.399 2085.46 292.314 2101.36C305.949 2110.42 322.007 2117.81 339.157 2123.63C348.204 2126.63 357.47 2128.93 366.874 2130.5C377.143 2132.38 387.577 2133.2 398.014 2132.96C399.415 2128.81 399.162 2122.38 398.255 2118.27C393.775 2116.45 388.905 2116.91 384.471 2116.55C355.646 2114.18 327.81 2104.95 303.296 2089.63C268.422 2067.92 242.601 2038.15 226.336 1996.86C224.808 1992.99 224.153 1989.2 222.89 1984.87C217.635 1967.39 214.991 1949.23 215.044 1930.99C215.044 1902.97 215.044 1871.23 215.044 1840.41C215.044 1835.66 215.24 1830.36 215.044 1824.99C214.918 1821.02 215.584 1812.86 214.068 1811.04C213.87 1810.82 213.617 1810.65 213.333 1810.55C209.014 1810.97 202.995 1809.73 199.871 1811.32Z" fill="#FFEFD0"/>
<path fill-rule="evenodd" clip-rule="evenodd" d="M0.620605 1625.26C40.6283 1626.14 83.7258 1625.75 122.998 1625.75C141.042 1625.72 158.986 1628.43 176.216 1633.78C191.089 1638.28 205.279 1644.79 218.394 1653.12C231.087 1661.3 243.515 1669.55 253.221 1680.04C263.223 1690.72 272.249 1702.27 280.192 1714.56C288.443 1727.64 295.033 1741.7 299.811 1756.4C305.026 1771.96 307.656 1789.39 309.126 1808.54C313.078 1809.22 320.785 1809.63 324.335 1808.29C325.012 1792.93 321.957 1778.25 318.695 1765.22C317.546 1760.74 316.891 1756.05 315.513 1752C312.722 1743.78 309.241 1735.95 305.945 1728.5C302.561 1721.21 298.625 1714.19 294.171 1707.49C285.556 1693.94 276.424 1681.7 265.236 1670.54C254.048 1659.39 242.585 1649.3 228.698 1641.16C221.679 1637.06 214.799 1633.2 207.114 1629.69C185.026 1619.49 159.089 1611.2 127.65 1610.11C117.393 1609.76 106.366 1610.35 95.2813 1610.35C74.4907 1610.35 53.1487 1609.88 31.037 1610.11C23.2147 1610.19 15.7829 1610.11 7.48962 1610.35C5.19229 1610.43 2.32065 1609.59 0.379425 1611.34C0.10376 1615.4 -0.298309 1621.51 0.620605 1625.26Z" fill="#FFEFD0"/>
<path fill-rule="evenodd" clip-rule="evenodd" d="M0.618378 1652.91C9.00357 1653.85 17.6185 1653.65 26.3712 1653.66C52.0322 1653.66 80.358 1653.66 107.294 1653.66C116.839 1653.66 125.753 1653.41 134.276 1654.14C156.36 1655.96 177.782 1662.56 197.05 1673.48C208.64 1679.76 219.438 1687.4 229.212 1696.24C252.702 1717.79 270.621 1746.93 278.007 1784.6C279.512 1792.28 279.362 1800.29 280.948 1808.83C286.232 1809.63 291.606 1809.63 296.891 1808.83C297.821 1790.68 293.537 1773.84 288.552 1758.9C283.567 1743.97 277.789 1730.32 269.668 1718.78C261.547 1707.23 253.185 1695.85 242.939 1686.23C232.763 1676.44 221.394 1667.96 209.099 1661.01C190.261 1650.69 169.046 1641.45 142.638 1638.48C133.713 1637.48 124.547 1637.65 114.933 1637.75C80.8864 1638.1 46.7024 1637.75 14.3793 1637.75C9.78464 1637.75 4.91434 1637.16 0.400116 1638.48C0.101471 1642.72 -0.312042 1649.03 0.618378 1652.91Z" fill="#FFEFD0"/>
<path fill-rule="evenodd" clip-rule="evenodd" d="M0.87323 1680.81C31.1747 1681.71 64.4053 1681.3 95.5339 1681.31C111.994 1681.31 127.627 1680.84 141.388 1683.02C181.35 1689.36 209.101 1711.24 228.939 1738.05C240.345 1753.5 248.96 1774.38 251.992 1798.26C252.417 1801.7 251.935 1805.32 253.21 1808.78C258.265 1809.31 263.362 1809.31 268.418 1808.78C269.567 1805.01 268.763 1800.94 268.418 1797.32C266.681 1779.82 261.691 1762.81 253.704 1747.14C250.743 1741.65 247.464 1736.33 243.883 1731.22C230.122 1710.5 211.191 1693.72 188.954 1682.52C171.885 1673.78 152.358 1666.75 127.891 1665.65C119.989 1665.29 111.684 1665.65 103.368 1665.39C73.8243 1664.48 42.6843 1665.39 12.624 1665.39C8.6611 1665.39 4.44553 1664.83 0.609039 1666.13C-0.0801697 1669.95 -0.413269 1677.39 0.87323 1680.81Z" fill="#FFEFD0"/>
<path fill-rule="evenodd" clip-rule="evenodd" d="M0.62146 1709.45C5.85934 1710.75 11.3729 1710.19 16.806 1710.19C44.167 1710.19 72.8948 1710.19 100.658 1710.19C111.892 1710.19 123.08 1709.63 133.762 1710.43C147.144 1711.45 159.308 1716.85 169.313 1722.18C179.327 1727.5 188.305 1734.56 195.824 1743.03C207.944 1755.91 216.557 1771.66 220.842 1788.8C222.415 1795.12 222.679 1801.85 224.288 1808.88C229.749 1809.52 235.274 1809.44 240.713 1808.62C240.438 1781.05 230.513 1760.06 218.154 1742.78C206.667 1726.64 188.955 1711.46 168.383 1703.62C157.7 1699.56 146.558 1695.74 133.061 1694.32C119.565 1692.9 105.356 1693.59 89.4125 1693.59H11.4188C7.83502 1693.59 2.10324 1693.14 0.874176 1694.32C0.648712 1694.52 0.478516 1694.77 0.38028 1695.05C0.529602 1699.77 0.0701294 1705.12 0.62146 1709.45Z" fill="#FFEFD0"/>
<path fill-rule="evenodd" clip-rule="evenodd" d="M1.11276 1737.6C20.5365 1738.67 40.4197 1737.91 60.4522 1738.34C80.4848 1738.76 101.103 1738.09 121.032 1738.09C144.212 1738.09 160.362 1747.48 172.527 1759.63C181.647 1768.73 189.159 1779.11 193.133 1793.65C194.42 1798.39 194.431 1803.56 196.074 1808.83C200.427 1809.51 208.296 1809.87 212.258 1808.58C211.592 1785.26 202.07 1768.66 191.169 1754.7C177.914 1739.95 160.914 1727.72 137.47 1723.36C129.59 1721.91 120.734 1722.15 110.982 1722.15C79.4625 1722.15 44.865 1721.25 14.6094 1722.15C10.3249 1722.26 2.59451 1721.54 1.11276 1722.87C0.896851 1723.07 0.731628 1723.32 0.63028 1723.6C0.905975 1728.13 0.0215149 1733.86 1.11276 1737.6Z" fill="#FFEFD0"/>
</svg>
