<svg width="24" height="24" viewBox="0 0 24 24" fill="none" xmlns="http://www.w3.org/2000/svg">
<g id="pie-chart">
<path id="Vector" d="M21.2104 15.89C20.5742 17.3945 19.5792 18.7202 18.3123 19.7513C17.0454 20.7824 15.5452 21.4874 13.9428 21.8048C12.3405 22.1221 10.6848 22.0421 9.12055 21.5718C7.55627 21.1014 6.13103 20.2551 4.96942 19.1066C3.80782 17.9582 2.94522 16.5427 2.45704 14.9839C1.96886 13.4251 1.86996 11.7705 2.169 10.1646C2.46804 8.55877 3.1559 7.05061 4.17245 5.77202C5.189 4.49342 6.50329 3.4833 8.0004 2.82999" stroke="#82847F" stroke-width="2" stroke-linecap="round" stroke-linejoin="round"/>
<path id="Vector_2" d="M22 12C22 10.6868 21.7413 9.38642 21.2388 8.17317C20.7362 6.95991 19.9997 5.85752 19.0711 4.92893C18.1425 4.00035 17.0401 3.26375 15.8268 2.7612C14.6136 2.25866 13.3132 2 12 2V12H22Z" stroke="#82847F" stroke-width="2" stroke-linecap="round" stroke-linejoin="round"/>
</g>
</svg>
