<svg width="24" height="24" viewBox="0 0 24 24" fill="none" xmlns="http://www.w3.org/2000/svg">
<g id="telegram-logo-svgrepo-com 2">
<g id="Group">
<path id="Vector" d="M18.2 21C18.0428 21 17.8867 20.9535 17.7528 20.8627L12.6929 17.4305L9.9791 19.3832C9.76625 19.5362 9.49192 19.5748 9.24477 19.4864C8.99795 19.3978 8.81049 19.1934 8.74358 18.9399L7.38093 13.7758L2.51205 11.9141C2.20553 11.7969 2.00225 11.5036 2.00002 11.1754C1.99779 10.8473 2.19703 10.5513 2.50206 10.4299L21.0154 3.06329C21.0994 3.02761 21.1883 3.007 21.2779 3.00148C21.31 2.99957 21.3422 2.99957 21.3741 3.00137C21.5598 3.01242 21.7421 3.08804 21.8845 3.22759C21.8992 3.24204 21.9132 3.2568 21.9265 3.2722C22.0444 3.40687 22.1092 3.57107 22.1214 3.73835C22.1244 3.78041 22.1242 3.823 22.1205 3.86558C22.1179 3.89596 22.1136 3.92623 22.1074 3.95629L18.9824 20.3525C18.9322 20.6159 18.7529 20.8364 18.5052 20.9391C18.407 20.9799 18.3032 21 18.2 21ZM13.1372 15.8067L17.6443 18.8639L20.0758 6.10583L11.2938 14.5564L13.1159 15.7924C13.1233 15.797 13.1303 15.8019 13.1372 15.8067ZM9.38518 15.1269L9.98865 17.4136L11.2889 16.478L9.58634 15.3231C9.50721 15.2695 9.43945 15.2028 9.38518 15.1269ZM4.98828 11.1552L8.33149 12.4334C8.57099 12.5249 8.75176 12.7263 8.81718 12.9742L9.24116 14.581C9.2606 14.3957 9.34461 14.2213 9.48109 14.0899L17.8491 6.03785L4.98828 11.1552Z" fill="#FFBF3F"/>
</g>
</g>
</svg>
