<svg width="24" height="24" viewBox="0 0 24 24" fill="none" xmlns="http://www.w3.org/2000/svg">
<g id="twitter-svgrepo-com (1) 2">
<path id="Vector" fill-rule="evenodd" clip-rule="evenodd" d="M15.4512 4.07745C15.9478 3.99413 16.5039 3.96631 17.0271 4.05304C17.9618 4.20792 18.825 4.63341 19.5074 5.27132C19.9535 5.2812 20.3919 5.19512 20.7797 5.07241C21.1081 4.96855 21.3854 4.84315 21.5797 4.744C21.6763 4.6947 21.751 4.65264 21.7995 4.62417C21.8237 4.60995 21.8414 4.5992 21.8518 4.5927L21.8611 4.5869C22.151 4.39773 22.537 4.43454 22.784 4.67517C23.031 4.91585 23.0709 5.29368 22.8792 5.57871C22.6763 5.88036 22.3947 6.41811 22.0791 7.02063C22.0295 7.11536 21.979 7.2117 21.9279 7.30897C21.7469 7.65337 21.5613 8.00144 21.3884 8.30007C21.2797 8.48758 21.1636 8.67794 21.0465 8.84244V9.10438C21.0539 10.0665 20.9413 11.0236 20.7126 11.9548C20.5688 12.5406 20.3791 13.1162 20.1444 13.6762C19.5365 15.1272 18.6394 16.4451 17.5057 17.5527C16.3719 18.6605 15.0243 19.5357 13.5413 20.1275C12.0597 20.7188 10.4727 21.0152 8.87298 20.9994C6.5539 21.0014 4.28359 20.3469 2.33527 19.1147C2.0483 18.9332 1.92748 18.5815 2.04404 18.267C2.16061 17.9526 2.48361 17.7587 2.8226 17.7998C3.11598 17.8354 3.41135 17.8527 3.70697 17.8517C4.76913 17.8489 5.81105 17.619 6.76227 17.1859C6.45992 17.0511 6.17125 16.8848 5.90152 16.6889C5.10868 16.113 4.51882 15.3095 4.21401 14.3899C4.13481 14.151 4.18896 13.8888 4.35677 13.6988C4.35978 13.6955 4.36282 13.692 4.36587 13.6887C4.18661 13.5321 4.01889 13.3617 3.86446 13.1783C3.16969 12.3534 2.78713 11.3187 2.78147 10.2494L2.78145 10.2457L2.78146 10.1978C2.78146 9.94347 2.91895 9.70812 3.14282 9.57923C3.19957 9.54655 3.25971 9.52196 3.32159 9.50546C2.99113 8.85959 2.81928 8.14639 2.82053 7.42284C2.82014 6.60314 3.03874 5.7976 3.45459 5.08625C3.57465 4.88091 3.79034 4.74673 4.03113 4.72763C4.27193 4.70851 4.50687 4.80691 4.6591 4.99066C5.59926 6.12536 6.77261 7.05364 8.10292 7.7152C8.78677 8.05527 9.50424 8.32096 10.2424 8.50889C10.6563 8.61426 11.0767 8.69519 11.5014 8.75108C11.4826 8.05912 11.6222 7.36752 11.915 6.72849C12.3444 5.79104 13.0793 5.01974 14.0046 4.53554C14.3964 4.33049 14.9165 4.16716 15.4512 4.07745ZM4.43536 11.2984C4.56199 11.6476 4.75037 11.975 4.99461 12.265C5.4745 12.8348 6.14059 13.2247 6.8802 13.3688C7.20963 13.433 7.45229 13.7085 7.46892 14.0371C7.48555 14.3657 7.27189 14.6633 6.95054 14.7591C6.68439 14.8385 6.4117 14.8937 6.13591 14.9244C6.31816 15.1545 6.53253 15.3607 6.77418 15.5361C7.32232 15.9343 7.98351 16.1551 8.66578 16.1681C8.97532 16.1739 9.2477 16.3696 9.34618 16.6572C9.44467 16.9447 9.34798 17.2618 9.10467 17.4493C8.07991 18.2392 6.89493 18.7899 5.63928 19.0711C6.67998 19.3975 7.77143 19.5656 8.87543 19.5643H8.88393C10.2905 19.5786 11.6859 19.3183 12.9886 18.7984C14.2913 18.2786 15.4751 17.5097 16.4711 16.5367C17.4669 15.5637 18.255 14.406 18.789 13.1314C18.9951 12.6394 19.1618 12.1338 19.2882 11.6191C19.4892 10.8004 19.5882 9.95877 19.5814 9.11276V9.10714V8.60008C19.5814 8.42609 19.6459 8.25803 19.763 8.12717C19.8306 8.05155 19.949 7.87689 20.1141 7.59188C20.271 7.32101 20.4446 6.9958 20.6252 6.65216C20.6362 6.63137 20.6471 6.61048 20.6581 6.58949C20.1897 6.68914 19.6588 6.74137 19.1022 6.68244C18.926 6.66378 18.7626 6.58314 18.6424 6.45547C18.1512 5.93373 17.4971 5.58643 16.7827 5.46804C16.4658 5.41551 16.0825 5.42753 15.6986 5.49196C15.2814 5.56195 14.9183 5.68443 14.6949 5.80132C14.056 6.13577 13.5483 6.66852 13.2516 7.31603C12.955 7.96353 12.8861 8.68917 13.0559 9.37914C13.11 9.5991 13.0551 9.83118 12.9076 10.0053C12.7601 10.1795 12.5374 10.2753 12.3067 10.2639C11.4829 10.2231 10.6678 10.1 9.87391 9.89786C9.03402 9.68404 8.21772 9.38176 7.43967 8.99484C6.29417 8.42519 5.25097 7.68171 4.34764 6.79415C4.30643 7.00043 4.28551 7.21094 4.28564 7.42281V7.42465C4.28463 7.95155 4.41663 8.47051 4.66991 8.93534C4.92319 9.40017 5.28988 9.79645 5.73733 10.0889C6.00889 10.2663 6.12779 10.5984 6.02889 10.9031C5.92999 11.2079 5.63717 11.4117 5.31084 11.403C5.01528 11.3952 4.7222 11.36 4.43536 11.2984Z" fill="#444A5D"/>
</g>
</svg>
