<svg width="24" height="25" viewBox="0 0 24 25" fill="none" xmlns="http://www.w3.org/2000/svg">
<g id="Frame 40">
<path id="Vector" d="M20.4054 3.9875C18.1607 1.7375 15.1714 0.5 11.9946 0.5C5.4375 0.5 0.101786 5.83571 0.101786 12.3929C0.101786 14.4875 0.648214 16.5339 1.6875 18.3393L0 24.5L6.30536 22.8446C8.04107 23.7929 9.99643 24.2911 11.9893 24.2911H11.9946C18.5464 24.2911 24 18.9554 24 12.3982C24 9.22143 22.65 6.2375 20.4054 3.9875ZM11.9946 22.2875C10.2161 22.2875 8.475 21.8107 6.95893 20.9107L6.6 20.6964L2.86071 21.6768L3.85714 18.0286L3.62143 17.6536C2.63036 16.0786 2.11071 14.2625 2.11071 12.3929C2.11071 6.94464 6.54643 2.50893 12 2.50893C14.6411 2.50893 17.1214 3.5375 18.9857 5.40714C20.85 7.27679 21.9964 9.75714 21.9911 12.3982C21.9911 17.8518 17.4429 22.2875 11.9946 22.2875ZM17.4161 14.8839C17.1214 14.7339 15.6589 14.0161 15.3857 13.9196C15.1125 13.8179 14.9143 13.7696 14.7161 14.0696C14.5179 14.3696 13.95 15.0339 13.7732 15.2375C13.6018 15.4357 13.425 15.4625 13.1304 15.3125C11.3839 14.4393 10.2375 13.7536 9.08572 11.7768C8.78036 11.2518 9.39107 11.2893 9.95893 10.1536C10.0554 9.95536 10.0071 9.78393 9.93214 9.63393C9.85714 9.48393 9.2625 8.02143 9.01607 7.42679C8.775 6.84821 8.52857 6.92857 8.34643 6.91786C8.175 6.90714 7.97679 6.90714 7.77857 6.90714C7.58036 6.90714 7.25893 6.98214 6.98571 7.27679C6.7125 7.57679 5.94643 8.29464 5.94643 9.75714C5.94643 11.2196 7.0125 12.6339 7.15714 12.8321C7.30714 13.0304 9.25179 16.0304 12.2357 17.3214C14.1214 18.1357 14.8607 18.2054 15.8036 18.0661C16.3768 17.9804 17.5607 17.3482 17.8071 16.6518C18.0536 15.9554 18.0536 15.3607 17.9786 15.2375C17.9089 15.1036 17.7107 15.0286 17.4161 14.8839Z" fill="#E6E4E1"/>
</g>
</svg>
