<svg width="191" height="210" viewBox="0 0 191 210" fill="none" xmlns="http://www.w3.org/2000/svg">
<g id="Frame 42065">
<g id="Ameriways">
<path id="Vector" fill-rule="evenodd" clip-rule="evenodd" d="M40.6001 0.139186C41.1967 5.56946 40.9411 11.372 40.9411 17.1587V51.6763C40.9411 57.4363 40.7333 62.7549 39.343 67.4565C36.9381 75.6637 32.1499 82.9746 25.5839 88.465C18.4932 94.3197 9.64445 97.6374 0.446723 97.8895C-0.219127 95.9642 0.105808 92.4114 0.446723 90.3956C9.47032 89.1191 16.7947 86.1726 22.0576 81.0881C26.2492 77.3198 29.4844 72.6112 31.4966 67.3502C33.7392 61.4997 33.4303 54.2399 33.4303 46.1131V5.59075C33.4303 3.78774 33.1693 1.86773 33.7712 0.14451C36.0434 -0.0463739 38.3276 -0.0481581 40.6001 0.139186Z" fill="#FFBF3F"/>
<path id="Vector_2" fill-rule="evenodd" clip-rule="evenodd" d="M47.0829 0.139162C49.3255 0.213623 51.8504 -0.00443874 53.9012 0.256172C54.5138 13.0208 54.1037 26.7215 54.2422 40.337C54.3221 47.5969 54.3647 54.3994 53.7894 60.6647C52.0795 79.3063 43.1358 91.8263 31.3849 100.634C23.3947 106.607 13.5241 110.83 0.452136 111.08C-0.165773 109.223 0.036646 105.511 0.340274 103.474C11.745 102.293 20.6727 98.9904 27.7467 93.3687C34.6981 87.8373 40.3126 81.0562 43.7803 71.9082C45.5808 67.1587 46.2253 61.9252 46.513 55.8992C46.8006 49.8733 46.2573 43.5282 46.3958 37.2842C46.6248 27.1789 46.513 15.8609 46.513 5.03226C46.513 3.40477 46.3478 1.27202 46.7367 0.495507C46.7657 0.414911 46.8115 0.341431 46.8712 0.279975C46.931 0.218518 47.0031 0.170505 47.0829 0.139162Z" fill="#FFBF3F"/>
<path id="Vector_3" fill-rule="evenodd" clip-rule="evenodd" d="M60.5012 0.139162C62.632 0.213623 65.0397 -0.00443874 66.984 0.256172C67.3409 15.9779 67.3249 31.7582 67.3249 47.3788C67.3249 55.3567 67.2077 62.9357 65.7268 69.6318C61.4654 88.9223 51.0622 103.288 36.7224 112.67C27.1342 118.935 15.5431 124.201 0.446906 124.025C-0.149696 122.307 0.0101088 118.765 0.335044 116.872C2.99844 116.212 5.48073 116.398 8.06423 116.074C9.49181 115.893 11.0739 115.478 12.5015 115.164C22.0897 113.037 30.3782 108.037 36.9515 102.931C43.2602 98.0599 48.5028 91.9497 52.3561 84.9777C56.2093 78.0057 58.5916 70.3196 59.356 62.3932C59.9419 56.0109 59.8088 49.2085 59.8088 41.8422C59.8088 30.253 59.4519 17.4405 59.8088 5.14396C59.862 3.44201 59.617 1.30925 60.1497 0.357226C60.2478 0.257633 60.3683 0.182871 60.5012 0.139162Z" fill="#FFBF3F"/>
<path id="Vector_4" fill-rule="evenodd" clip-rule="evenodd" d="M79.8321 0.367895C80.2849 18.0522 80.1731 35.6833 80.1731 53.3995C80.1731 62.5581 79.438 70.7647 77.3285 77.9235C74.2603 88.3639 69.6473 97.6023 63.6813 105.288C61.6891 107.851 59.5104 110.159 57.3158 112.558C52.9371 117.345 47.8181 121.153 42.1877 124.823C36.3819 128.587 30.0609 131.493 23.4213 133.45C16.4592 135.518 8.76732 137.704 0.223133 137.082C0.148558 134.886 -0.213665 131.423 0.452185 129.588C4.51653 129.056 8.32519 128.939 11.9368 128.338C22.5051 126.589 31.4329 122.238 39.1034 117.441C49.496 110.952 57.5342 102.065 63.6653 91.2093C66.8773 85.4441 69.2503 79.2513 70.7127 72.8177C73.9087 59.0744 72.5398 40.8157 72.6516 24.4185C72.6942 18.1852 72.5664 12.106 72.7635 5.90985C72.8221 4.02707 72.4119 2.04324 73.1044 0.229607C75.0913 0.128553 78.0477 -0.0629105 79.8321 0.367895Z" fill="#FFBF3F"/>
<path id="Vector_5" fill-rule="evenodd" clip-rule="evenodd" d="M92.3447 0.596564C92.5738 9.72326 92.5738 19.1265 92.5738 28.1841C92.5738 37.4437 92.8721 46.9002 92.5738 56.4577C92.3893 64.9698 91.2057 73.4309 89.0474 81.6678C86.448 91.1402 82.2558 99.8201 77.6747 107.33C70.7073 118.744 60.565 127.775 49.4747 135.151C43.1517 139.353 35.7049 142.784 27.752 145.48C23.5565 146.874 19.2591 147.941 14.8984 148.671C10.1362 149.541 5.29737 149.923 0.457441 149.81C-0.192428 147.884 -0.0752383 144.9 0.345579 142.996C2.42303 142.151 4.68159 142.363 6.7111 142.199C20.0785 141.1 32.9874 136.817 44.3556 129.711C60.5278 119.637 72.5024 105.825 80.0451 86.6726C80.7536 84.8749 81.0572 83.1198 81.6432 81.1093C84.08 73.0008 85.306 64.5777 85.2814 56.112C85.2814 43.1133 85.2814 28.3915 85.2814 14.0951C85.2814 11.8879 85.1908 9.43073 85.2814 6.94163C85.34 5.09609 85.031 1.31458 85.7342 0.468923C85.8261 0.364518 85.9435 0.285712 86.0751 0.24022C88.1046 0.437008 90.8958 -0.137401 92.3447 0.596564Z" fill="#FFBF3F"/>
<path id="Vector_6" fill-rule="evenodd" clip-rule="evenodd" d="M105.422 0.479577C105.832 19.0042 105.651 38.9596 105.651 57.1438C105.638 65.4986 106.895 73.8069 109.38 81.7848C111.474 88.6717 114.497 95.2419 118.366 101.315C122.169 107.192 125.999 112.946 130.873 117.441C135.837 122.072 141.204 126.251 146.912 129.929C152.991 133.749 159.522 136.801 166.355 139.013C173.584 141.427 181.68 142.645 190.582 143.326C190.896 145.156 191.088 148.725 190.464 150.368C183.326 150.682 176.508 149.267 170.452 147.757C168.369 147.225 166.19 146.922 164.31 146.283C160.49 144.991 156.852 143.379 153.39 141.853C150.003 140.286 146.74 138.464 143.631 136.401C137.335 132.412 131.646 128.184 126.463 123.004C121.28 117.824 116.592 112.516 112.81 106.085C110.903 102.836 109.113 99.65 107.483 96.0918C102.743 85.8642 98.8913 73.8548 98.3853 59.2978C98.2202 54.5483 98.4971 49.4425 98.4971 44.3101C98.4971 34.6834 98.2788 24.8015 98.3853 14.5632C98.4226 10.9412 98.3853 7.50012 98.4971 3.6601C98.5344 2.59638 98.1403 1.26673 98.9553 0.367891C100.841 0.240245 103.68 0.0540897 105.422 0.479577Z" fill="#FFBF3F"/>
<path id="Vector_7" fill-rule="evenodd" clip-rule="evenodd" d="M118.27 0.479594C118.707 4.36216 118.611 8.35111 118.616 12.4039C118.616 24.2856 118.616 37.4012 118.616 49.8733C118.616 54.2931 118.499 58.4203 118.84 62.3667C119.684 72.5923 122.751 82.5113 127.826 91.4328C130.745 96.7995 134.294 101.799 138.4 106.325C148.415 117.201 161.955 125.498 179.454 128.918C183.023 129.615 186.746 129.546 190.715 130.28C191.085 132.727 191.085 135.215 190.715 137.662C182.282 138.093 174.457 136.109 167.516 133.801C160.576 131.492 154.237 128.817 148.873 125.057C143.509 121.297 138.219 117.425 133.75 112.68C129.201 107.969 125.264 102.705 122.031 97.0119C117.237 88.2895 112.943 78.466 111.564 66.2386C111.1 62.1061 111.18 57.8618 111.223 53.4102C111.388 37.6459 111.223 21.8178 111.223 6.85127C111.223 4.72383 110.951 2.46875 111.564 0.378548C113.535 0.240265 116.464 0.0487889 118.27 0.479594Z" fill="#FFBF3F"/>
<path id="Vector_8" fill-rule="evenodd" clip-rule="evenodd" d="M131.236 0.596576C131.651 14.627 131.46 30.0137 131.465 44.4271C131.465 52.0486 131.246 59.2872 132.259 65.6589C135.204 84.1622 145.373 97.0119 157.827 106.197C165.008 111.478 174.708 115.467 185.804 116.872C187.402 117.068 189.085 116.845 190.694 117.435C190.939 119.776 190.939 122.136 190.694 124.477C188.941 125.009 187.05 124.637 185.367 124.477C177.238 123.673 169.331 121.362 162.051 117.664C159.5 116.293 157.032 114.775 154.658 113.117C145.031 106.745 137.232 97.9794 132.029 87.6831C127.965 79.7797 124.7 70.7381 124.188 59.4095C124.023 55.7503 124.188 51.905 124.071 48.0543C123.645 34.3749 124.071 19.9562 124.071 6.0375C124.071 4.20258 123.81 2.25066 124.412 0.474251C126.186 0.155136 129.643 0.000894472 131.236 0.596576Z" fill="#FFBF3F"/>
<path id="Vector_9" fill-rule="evenodd" clip-rule="evenodd" d="M144.542 0.479605C145.144 2.90488 144.883 5.4578 144.883 7.97349C144.883 20.6424 144.883 33.9442 144.883 46.7992C144.883 52.0008 144.622 57.1811 144.995 62.1273C145.469 68.3235 147.978 73.9559 150.455 78.5884C152.925 83.2249 156.206 87.3823 160.144 90.8637C166.125 96.4757 173.446 100.464 181.409 102.448C184.344 103.176 187.471 103.299 190.736 104.043C191.038 106.572 190.998 109.13 190.619 111.649C177.808 111.521 168.055 106.926 160.027 101.203C152.527 95.8844 145.474 87.6832 141.831 78.1576C139.945 73.2113 138.171 68.0523 137.511 61.8029C136.85 55.5536 137.17 48.9745 137.17 41.5923V5.47907C137.17 3.81967 136.962 1.1657 137.511 0.596614C137.603 0.492209 137.72 0.413411 137.852 0.367919C140.041 0.43706 142.529 0.224312 144.542 0.479605Z" fill="#FFBF3F"/>
<path id="Vector_10" fill-rule="evenodd" clip-rule="evenodd" d="M157.619 0.708276C158.115 9.70201 157.763 18.9085 157.96 28.1841C158.157 37.4597 157.848 47.0066 157.848 56.2343C157.848 66.9672 162.211 74.4452 167.852 80.0775C172.082 84.3005 176.908 87.7789 183.662 89.6191C185.862 90.2148 188.264 90.2201 190.715 90.9806C191.029 92.9964 191.199 96.6396 190.598 98.4745C179.763 98.1661 172.05 93.757 165.562 88.7096C158.711 82.572 153.028 74.7005 151.003 63.8452C150.327 60.1967 150.439 56.096 150.439 51.5806C150.439 36.9864 150.023 20.9668 150.439 6.95761C150.492 4.97377 150.156 1.39437 150.774 0.708276C150.869 0.608314 150.986 0.531821 151.115 0.484897C153.219 0.612543 155.883 0.203011 157.619 0.708276Z" fill="#FFBF3F"/>
</g>
<g id="Group 120">
<path id="Vector_11" d="M38.2679 188.231C38.5449 190.358 39.493 191.38 41.1017 191.38H42.1032V198.198H41.0059C40.0794 198.187 39.1599 198.037 38.2785 197.751V200.453C38.2785 204.162 36.352 207.064 32.499 209.16C31.3048 209.688 30.0174 209.974 28.7116 210H20.5616C19.2558 209.974 17.9684 209.688 16.7743 209.16C12.9212 207.064 10.9965 204.162 11 200.453V190.406L17.829 183.694V200.033C18.106 202.134 19.0541 203.182 20.6628 203.182H28.5998C30.1978 203.182 31.1566 202.118 31.4336 200.033V183.301L38.2679 176.578V188.231ZM29.5959 182.673H19.2725L26.0003 175.849H29.5959V182.673Z" fill="#FFBF3F"/>
<path id="Vector_12" d="M57.4353 174.669H39.4946L46.2064 167.85H57.4246L57.4353 174.669ZM57.7016 188.231C57.9786 190.358 58.9268 191.38 60.5355 191.38H61.5369V198.198H60.429C59.1252 198.169 57.84 197.883 56.6469 197.358C55.8109 196.9 55.0192 196.366 54.2818 195.762C53.5472 196.367 52.7571 196.901 51.9221 197.358C50.7271 197.883 49.4402 198.169 48.1347 198.198H41.7425V191.38H48.0495C49.6475 191.38 50.6063 190.316 50.8833 188.231V183.301L57.7016 176.578V188.231Z" fill="#FFBF3F"/>
<path id="Vector_13" d="M66.8689 172.206L73.6979 165.489V188.651C73.6979 192.356 71.7713 195.259 67.9183 197.358C66.7252 197.883 65.44 198.169 64.1363 198.198H60.9402V191.38H64.0404C65.6384 191.38 66.5972 190.316 66.8796 188.231L66.8689 172.206Z" fill="#FFBF3F"/>
<path id="Vector_14" d="M70.9919 159.957C71.253 159.729 71.5246 159.511 71.8336 159.298C73.4457 157.878 75.5168 157.087 77.6664 157.069H90.0352L86.3598 163.574H78.6998C77.4258 163.551 76.1925 164.022 75.2587 164.888L70.9919 159.957ZM84.0266 198.198H77.1923V172.206L84.0266 165.489V198.198Z" fill="#FFBF3F"/>
<path id="Vector_15" d="M105.589 176.578C106.893 176.607 108.178 176.893 109.371 177.418C113.224 179.517 115.151 182.42 115.151 186.125V188.646C115.151 192.351 113.224 195.253 109.371 197.352C108.178 197.878 106.893 198.164 105.589 198.193H102.622C101.319 198.164 100.033 197.879 98.8403 197.352C95.0015 195.26 93.082 192.36 93.082 188.651V186.151C93.082 182.45 95.0086 179.548 98.8616 177.445C100.055 176.919 101.34 176.633 102.644 176.605L105.589 176.578ZM102.724 183.402C101.126 183.402 100.167 184.465 99.8897 186.545V188.226C100.167 190.353 101.115 191.374 102.724 191.374H105.483C107.081 191.374 108.04 190.311 108.322 188.226V186.545C108.04 184.45 107.097 183.402 105.483 183.402H102.724Z" fill="#FFBF3F"/>
<path id="Vector_16" d="M132.884 198.198H128.495C124.659 198.198 121.621 196.221 119.381 192.268C118.755 190.966 118.424 189.542 118.411 188.098V186.683C118.411 182.836 120.38 179.803 124.319 177.583C125.618 176.942 127.045 176.6 128.495 176.583H129.597C133.454 176.583 136.494 178.56 138.717 182.513C139.358 183.811 139.699 185.236 139.713 186.683V200.453C139.713 204.162 137.786 207.064 133.933 209.16C132.741 209.688 131.455 209.973 130.151 210H123.269L129.89 203.171H130.045C131.643 203.171 132.602 202.107 132.884 200.022V198.198ZM125 187.337V187.444C125 189.791 126.21 191.181 128.628 191.614H133.118V187.359C133.118 185.019 131.911 183.629 129.496 183.189H128.964C128.182 183.162 127.413 183.38 126.763 183.813C126.113 184.247 125.615 184.873 125.341 185.604C125.107 186.151 124.991 186.742 125 187.337Z" fill="#FFBF3F"/>
<path id="Vector_17" d="M151.405 188.231C151.682 190.358 152.63 191.38 154.239 191.38H155.24V198.198H154.138C153.21 198.188 152.288 198.037 151.405 197.751V200.453C151.405 204.162 149.479 207.064 145.626 209.16C144.433 209.688 143.148 209.973 141.844 210H134.631L141.316 203.171H141.737C143.346 203.171 144.292 202.121 144.576 200.022V183.301L151.405 176.578V188.231Z" fill="#FFBF3F"/>
<path id="Vector_18" d="M154.292 198.198V191.38H170.949C172.787 191.412 173.735 190.364 173.783 188.231V186.55C173.783 184.455 172.856 183.407 170.949 183.407H156.604V178.237L169.319 166.536L174.311 171.52L169.032 176.578H171.056C172.36 176.607 173.645 176.893 174.838 177.418C178.687 179.517 180.614 182.42 180.618 186.125V188.646C180.618 192.351 178.691 195.253 174.838 197.352C173.645 197.878 172.36 198.164 171.056 198.193L154.292 198.198ZM158.522 174.408L155.608 171.499L164.094 163.654L167.034 166.59L158.522 174.408Z" fill="#FFBF3F"/>
</g>
</g>
</svg>
